<svg width="24" height="24" viewBox="0 0 24 24" fill="none" xmlns="http://www.w3.org/2000/svg">
<path d="M10.6667 3C6.21336 3.19644 2.66675 6.66189 2.66675 10.9081C2.66675 16.3769 8.37385 21.2831 10.3793 22.8383C10.4685 22.9074 10.5654 22.9613 10.6667 23V14.2804C8.86659 14.0932 7.46632 12.6548 7.46632 10.9081C7.46632 9.16144 8.86659 7.72302 10.6667 7.53579V3Z" fill="#EFC36E"/>
<path fill-rule="evenodd" clip-rule="evenodd" d="M13.6667 3.19201C13.0235 3.04055 12.3526 2.97522 11.6667 3.00847V7.54235C13.5711 7.3246 15.3028 8.9174 15.3028 10.9132C15.3028 12.9091 13.5711 14.5019 11.6667 14.2841V23C13.0275 22.0729 14.4903 20.6266 15.7881 19H13.6667V15H15.6667V13H18.6667V14.4807C19.2904 13.1628 19.6667 11.9191 19.6667 10.9132C19.6667 8.88881 18.9027 7.03054 17.6667 5.62422V7H13.6667V3.19201Z" fill="#EFC36E"/>
<path d="M18.6667 13H21.6667V15H18.6667V13Z" fill="#EFC36E"/>
<path d="M14.6667 15H17.6667V18H14.6667V15Z" fill="#EFC36E"/>
<path d="M17.6667 4H19.6667V6H17.6667V4Z" fill="#EFC36E"/>
<path d="M18.6667 7H20.6667V9H18.6667V7Z" fill="#EFC36E"/>
<path d="M14.6667 4H16.6667V6H14.6667V4Z" fill="#EFC36E"/>
<path d="M15.6667 2H16.6667V3H15.6667V2Z" fill="#EFC36E"/>
</svg>
