<svg width="8" height="3766" viewBox="0 0 8 3766" fill="none" xmlns="http://www.w3.org/2000/svg">
<rect y="345" width="4" height="4" fill="#1A1A1A"/>
<rect y="355" width="4" height="12" fill="#1A1A1A"/>
<rect x="0.00012207" y="9" width="4" height="4" fill="#1A1A1A"/>
<rect x="0.00012207" width="4" height="4" fill="#1A1A1A"/>
<rect x="0.00012207" y="33" width="8" height="8" fill="#1A1A1A"/>
<rect y="530" width="8" height="8" fill="#1A1A1A"/>
<rect x="8" y="963" width="4" height="4" transform="rotate(-180 8 963)" fill="#1A1A1A"/>
<rect x="8" y="953" width="4" height="12" transform="rotate(-180 8 953)" fill="#1A1A1A"/>
<rect x="8" y="1299" width="4" height="4" transform="rotate(-180 8 1299)" fill="#1A1A1A"/>
<rect x="8" y="1308" width="4" height="4" transform="rotate(-180 8 1308)" fill="#1A1A1A"/>
<rect x="8" y="1275" width="8" height="8" transform="rotate(-180 8 1275)" fill="#1A1A1A"/>
<rect x="8" y="778" width="8" height="8" transform="rotate(-180 8 778)" fill="#1A1A1A"/>
<rect y="1775" width="4" height="4" fill="#1A1A1A"/>
<rect y="1785" width="4" height="12" fill="#1A1A1A"/>
<rect x="0.00012207" y="1439" width="4" height="4" fill="#1A1A1A"/>
<rect x="0.00012207" y="1430" width="4" height="4" fill="#1A1A1A"/>
<rect x="0.00012207" y="1463" width="8" height="8" fill="#1A1A1A"/>
<rect y="1960" width="8" height="8" fill="#1A1A1A"/>
<rect x="8" y="2393" width="4" height="4" transform="rotate(-180 8 2393)" fill="#1A1A1A"/>
<rect x="8" y="2383" width="4" height="12" transform="rotate(-180 8 2383)" fill="#1A1A1A"/>
<rect x="8" y="2699" width="4" height="4" transform="rotate(-180 8 2699)" fill="#1A1A1A"/>
<rect x="8" y="2708" width="4" height="4" transform="rotate(-180 8 2708)" fill="#1A1A1A"/>
<rect x="8" y="2675" width="8" height="8" transform="rotate(-180 8 2675)" fill="#1A1A1A"/>
<rect x="8" y="2208" width="8" height="8" transform="rotate(-180 8 2208)" fill="#1A1A1A"/>
<rect y="3175" width="4" height="4" fill="#1A1A1A"/>
<rect y="3185" width="4" height="12" fill="#1A1A1A"/>
<rect x="0.00012207" y="2839" width="4" height="4" fill="#1A1A1A"/>
<rect x="0.00012207" y="2830" width="4" height="4" fill="#1A1A1A"/>
<rect x="0.00012207" y="2863" width="8" height="8" fill="#1A1A1A"/>
<rect y="3360" width="8" height="8" fill="#1A1A1A"/>
<rect x="8" y="3608" width="8" height="8" transform="rotate(-180 8 3608)" fill="#1A1A1A"/>
</svg>
