<svg width="8" height="3966" viewBox="0 0 8 3966" fill="none" xmlns="http://www.w3.org/2000/svg">
<rect x="8.00003" y="963" width="4" height="4" transform="rotate(-180 8.00003 963)" fill="#1A1A1A"/>
<rect x="8.00003" y="953" width="4" height="12" transform="rotate(-180 8.00003 953)" fill="#1A1A1A"/>
<rect x="8" y="1299" width="4" height="4" transform="rotate(-180 8 1299)" fill="#1A1A1A"/>
<rect x="8" y="1308" width="4" height="4" transform="rotate(-180 8 1308)" fill="#1A1A1A"/>
<rect x="8" y="1275" width="8" height="8" transform="rotate(-180 8 1275)" fill="#1A1A1A"/>
<rect x="8.00006" y="778" width="8" height="8" transform="rotate(-180 8.00006 778)" fill="#1A1A1A"/>
<rect y="345" width="4" height="4" fill="#1A1A1A"/>
<rect y="355" width="4" height="12" fill="#1A1A1A"/>
<rect y="9" width="4" height="4" fill="#1A1A1A"/>
<rect width="4" height="4" fill="#1A1A1A"/>
<rect y="33" width="8" height="8" fill="#1A1A1A"/>
<rect y="530" width="8" height="8" fill="#1A1A1A"/>
<rect x="8.00003" y="2393" width="4" height="4" transform="rotate(-180 8.00003 2393)" fill="#1A1A1A"/>
<rect x="4" y="3003" width="4" height="4" transform="rotate(-180 4 3003)" fill="#1A1A1A"/>
<rect x="8" y="3113" width="4" height="4" transform="rotate(-180 8 3113)" fill="#1A1A1A"/>
<rect x="8" y="3129" width="4" height="4" transform="rotate(-180 8 3129)" fill="#1A1A1A"/>
<rect x="8.00003" y="2383" width="4" height="12" transform="rotate(-180 8.00003 2383)" fill="#1A1A1A"/>
<rect x="4" y="2993" width="4.00001" height="72" transform="rotate(-180 4 2993)" fill="#1A1A1A"/>
<path d="M2.17949 2445.5C2.11966 2445.5 2.09402 2445.53 2.09402 2445.59L2.09402 2446.69C2.09402 2446.75 2.11966 2446.77 2.17949 2446.77H4.4188C4.45299 2446.77 4.47009 2446.79 4.47009 2446.83V2448.75C4.47009 2448.78 4.45299 2448.8 4.4188 2448.8H2.17949C2.11966 2448.8 2.09402 2448.83 2.09402 2448.89L2.09402 2449.99C2.09402 2450.05 2.11966 2450.07 2.17949 2450.07H7.82051C7.88034 2450.07 7.90598 2450.05 7.90598 2449.99L7.90598 2448.89C7.90598 2448.83 7.88034 2448.8 7.82051 2448.8L5.64103 2448.8C5.60684 2448.8 5.58974 2448.78 5.58974 2448.75V2446.83C5.58974 2446.79 5.60684 2446.77 5.64103 2446.77H7.82051C7.88034 2446.77 7.90598 2446.75 7.90598 2446.69V2445.59C7.90598 2445.53 7.88034 2445.5 7.82051 2445.5L2.17949 2445.5Z" fill="#1A1A1A"/>
<path d="M3.41026 2451.21C2.48718 2451.51 2 2452.31 2 2453.36C2 2454.41 2.48718 2455.2 3.41026 2455.51C3.75214 2455.62 4.28205 2455.67 5 2455.67C5.71795 2455.67 6.24786 2455.62 6.58974 2455.51C7.51282 2455.2 8 2454.41 8 2453.36C8 2452.31 7.51282 2451.51 6.58974 2451.21C6.24786 2451.1 5.71795 2451.05 5 2451.05C4.28205 2451.05 3.75214 2451.1 3.41026 2451.21ZM3.75214 2454.28C3.32479 2454.15 3.11111 2453.83 3.11111 2453.36C3.11111 2452.88 3.32479 2452.57 3.75214 2452.43C3.94017 2452.37 4.35897 2452.34 5 2452.34C5.64103 2452.34 6.05983 2452.37 6.24786 2452.43C6.67521 2452.57 6.88889 2452.88 6.88889 2453.36C6.88889 2453.83 6.67521 2454.15 6.24786 2454.28C6.05983 2454.35 5.64103 2454.38 5 2454.38C4.35897 2454.38 3.94017 2454.35 3.75214 2454.28Z" fill="#1A1A1A"/>
<path d="M2 2458.87C2 2459.55 2.19658 2460.1 2.5812 2460.5C2.97436 2460.92 3.52137 2461.13 4.23077 2461.13H7.82051C7.88034 2461.13 7.90598 2461.1 7.90598 2461.04V2459.94C7.90598 2459.88 7.88034 2459.85 7.82051 2459.85H4.19658C3.51282 2459.85 3.11111 2459.47 3.11111 2458.87C3.11111 2458.28 3.51282 2457.89 4.19658 2457.89H7.82051C7.88034 2457.89 7.90598 2457.86 7.90598 2457.8V2456.7C7.90598 2456.64 7.88034 2456.61 7.82051 2456.61H4.23077C3.52137 2456.61 2.97436 2456.82 2.5812 2457.23C2.19658 2457.64 2 2458.19 2 2458.87Z" fill="#1A1A1A"/>
<path d="M2 2464.27C2 2465.75 2.73504 2466.58 3.82906 2466.58C4.83761 2466.58 5.42735 2465.96 5.58974 2464.73L5.63248 2464.41C5.7265 2463.76 5.93162 2463.5 6.2735 2463.5C6.64957 2463.5 6.90598 2463.77 6.90598 2464.28C6.90598 2464.73 6.76068 2465.19 6.46154 2465.65C6.4359 2465.7 6.44444 2465.74 6.48718 2465.77L7.26496 2466.3C7.31624 2466.35 7.35897 2466.34 7.39316 2466.29C7.79487 2465.76 8 2465.09 8 2464.28C8 2463.65 7.83761 2463.14 7.51282 2462.76C7.18803 2462.39 6.76068 2462.2 6.22222 2462.2C5.23077 2462.2 4.64957 2462.82 4.47863 2464.06L4.4359 2464.37C4.34188 2465.04 4.15385 2465.28 3.78633 2465.28C3.36752 2465.28 3.09402 2464.92 3.09402 2464.32C3.09402 2463.8 3.2906 2463.29 3.69231 2462.78C3.73504 2462.73 3.7265 2462.68 3.68376 2462.65L2.94017 2461.99C2.88889 2461.95 2.83761 2461.95 2.79487 2462C2.5641 2462.23 2.37607 2462.56 2.22222 2462.98C2.07692 2463.39 2 2463.83 2 2464.27Z" fill="#1A1A1A"/>
<path d="M2.17949 2467.37C2.11966 2467.37 2.09402 2467.4 2.09402 2467.46L2.09402 2471.24C2.09402 2471.3 2.11966 2471.32 2.17949 2471.32H3.09402C3.15385 2471.32 3.17949 2471.3 3.17949 2471.24V2468.7C3.17949 2468.66 3.19658 2468.65 3.23077 2468.65H4.4359C4.47009 2468.65 4.48718 2468.66 4.48718 2468.7L4.48718 2470.81C4.48718 2470.87 4.51282 2470.9 4.57265 2470.9H5.47863C5.53846 2470.9 5.5641 2470.87 5.5641 2470.81L5.5641 2468.7C5.5641 2468.66 5.5812 2468.65 5.61538 2468.65H6.76923C6.80342 2468.65 6.82051 2468.66 6.82051 2468.7V2471.24C6.82051 2471.3 6.84615 2471.32 6.90598 2471.32H7.82051C7.88034 2471.32 7.90598 2471.3 7.90598 2471.24V2467.46C7.90598 2467.4 7.88034 2467.37 7.82051 2467.37H2.17949Z" fill="#1A1A1A"/>
<path d="M2.09402 2476.62C2.09402 2476.69 2.11966 2476.71 2.17949 2476.71H6.73504C6.76923 2476.71 6.78632 2476.73 6.78632 2476.76V2478.25C6.78632 2478.31 6.81196 2478.34 6.87179 2478.34H7.82051C7.88034 2478.34 7.90598 2478.31 7.90598 2478.25V2473.9C7.90598 2473.84 7.88034 2473.81 7.82051 2473.81L6.87179 2473.81C6.81196 2473.81 6.78632 2473.84 6.78632 2473.9V2475.39C6.78632 2475.42 6.76923 2475.44 6.73504 2475.44H2.17949C2.11966 2475.44 2.09402 2475.46 2.09402 2475.52L2.09402 2476.62Z" fill="#1A1A1A"/>
<path d="M2.17949 2479.05C2.11966 2479.05 2.09402 2479.07 2.09402 2479.13L2.09402 2482.91C2.09402 2482.97 2.11966 2483 2.17949 2483H3.09402C3.15385 2483 3.17949 2482.97 3.17949 2482.91V2480.37C3.17949 2480.34 3.19658 2480.32 3.23077 2480.32H4.4359C4.47009 2480.32 4.48718 2480.34 4.48718 2480.37L4.48718 2482.49C4.48718 2482.55 4.51282 2482.57 4.57265 2482.57H5.47863C5.53846 2482.57 5.5641 2482.55 5.5641 2482.49L5.5641 2480.37C5.5641 2480.34 5.5812 2480.32 5.61538 2480.32H6.76923C6.80342 2480.32 6.82051 2480.34 6.82051 2480.37V2482.91C6.82051 2482.97 6.84615 2483 6.90598 2483H7.82051C7.88034 2483 7.90598 2482.97 7.90598 2482.91V2479.13C7.90598 2479.07 7.88034 2479.05 7.82051 2479.05H2.17949Z" fill="#1A1A1A"/>
<path d="M3.42735 2483.95C2.49573 2484.26 2 2485.01 2 2486.05C2 2487.05 2.47009 2487.76 3.2906 2488.1C3.34188 2488.13 3.37607 2488.12 3.39316 2488.06L3.81197 2487.11C3.83761 2487.06 3.82906 2487.02 3.76923 2486.99C3.33333 2486.8 3.11111 2486.49 3.11111 2486.06C3.11111 2485.61 3.32479 2485.31 3.75214 2485.17C3.94872 2485.11 4.35897 2485.08 5 2485.08C5.64102 2485.08 6.05128 2485.11 6.24786 2485.17C6.67521 2485.31 6.88889 2485.61 6.88889 2486.06C6.88889 2486.49 6.66667 2486.8 6.23077 2486.99C6.17094 2487.02 6.16239 2487.06 6.18803 2487.11L6.60684 2488.06C6.62393 2488.12 6.65812 2488.13 6.7094 2488.1C7.52991 2487.76 8 2487.05 8 2486.05C8 2485.01 7.50427 2484.26 6.57265 2483.95C6.25641 2483.84 5.72649 2483.79 5 2483.79C4.2735 2483.79 3.74359 2483.84 3.42735 2483.95Z" fill="#1A1A1A"/>
<path d="M2.17949 2488.93C2.11966 2488.93 2.09402 2488.95 2.09402 2489.01L2.09402 2490.11C2.09402 2490.17 2.11966 2490.2 2.17949 2490.2H4.4188C4.45299 2490.2 4.47008 2490.22 4.47008 2490.25V2492.17C4.47008 2492.21 4.45299 2492.23 4.4188 2492.23H2.17949C2.11966 2492.23 2.09402 2492.25 2.09402 2492.31L2.09402 2493.41C2.09402 2493.47 2.11966 2493.5 2.17949 2493.5H7.82051C7.88034 2493.5 7.90598 2493.47 7.90598 2493.41V2492.31C7.90598 2492.25 7.88034 2492.23 7.82051 2492.23H5.64102C5.60684 2492.23 5.58974 2492.21 5.58974 2492.17V2490.25C5.58974 2490.22 5.60684 2490.2 5.64102 2490.2H7.82051C7.88034 2490.2 7.90598 2490.17 7.90598 2490.11V2489.01C7.90598 2488.95 7.88034 2488.93 7.82051 2488.93H2.17949Z" fill="#1A1A1A"/>
<rect x="8" y="2699" width="4" height="4" transform="rotate(-180 8 2699)" fill="#1A1A1A"/>
<rect x="8" y="2708" width="4" height="4" transform="rotate(-180 8 2708)" fill="#1A1A1A"/>
<rect x="8" y="2675" width="8" height="8" transform="rotate(-180 8 2675)" fill="#1A1A1A"/>
<rect x="8.00006" y="2208" width="8" height="8" transform="rotate(-180 8.00006 2208)" fill="#1A1A1A"/>
<rect y="1775" width="4" height="4" fill="#1A1A1A"/>
<rect y="1785" width="4" height="12" fill="#1A1A1A"/>
<rect y="1439" width="4" height="4" fill="#1A1A1A"/>
<rect y="1430" width="4" height="4" fill="#1A1A1A"/>
<rect y="1463" width="8" height="8" fill="#1A1A1A"/>
<rect y="1960" width="8" height="8" fill="#1A1A1A"/>
<rect y="3596" width="4" height="4" fill="#1A1A1A"/>
<rect y="3606" width="4" height="12" fill="#1A1A1A"/>
<rect y="3260" width="4" height="4" fill="#1A1A1A"/>
<rect y="3251" width="4" height="4" fill="#1A1A1A"/>
<rect y="3284" width="8" height="8" fill="#1A1A1A"/>
<rect y="3781" width="8" height="8" fill="#1A1A1A"/>
</svg>
