<svg width="1918" height="584" viewBox="0 0 1918 584" fill="none" xmlns="http://www.w3.org/2000/svg">
<mask id="path-1-outside-1_1565_28002" maskUnits="userSpaceOnUse" x="0" y="0" width="1922" height="584" fill="black">
<rect fill="white" width="1922" height="584"/>
<path d="M1133.43 577.733C1136.25 577.733 1137.46 576.537 1137.46 573.746V351.264C1137.46 349.669 1138.27 348.871 1139.88 348.871H1211.65C1214.47 348.871 1215.68 347.675 1215.68 344.884V310.595C1215.68 307.804 1214.47 306.608 1211.65 306.608H1015.7C1012.88 306.608 1011.67 307.804 1011.67 310.595V344.884C1011.67 347.675 1012.88 348.871 1015.7 348.871H1087.47C1089.08 348.871 1089.89 349.669 1089.89 351.264V573.746C1089.89 576.537 1091.1 577.733 1093.92 577.733H1133.43ZM1254.72 573.746C1254.72 576.537 1255.92 577.733 1258.75 577.733H1430.51C1433.33 577.733 1434.54 576.537 1434.54 573.746V539.456C1434.54 536.665 1433.33 535.469 1430.51 535.469H1304.71C1303.1 535.469 1302.29 534.672 1302.29 533.077V464.498C1302.29 462.903 1303.1 462.106 1304.71 462.106H1410.75C1413.57 462.106 1414.78 460.91 1414.78 458.119V423.83C1414.78 421.039 1413.57 419.842 1410.75 419.842H1304.71C1303.1 419.842 1302.29 419.045 1302.29 417.45V351.264C1302.29 349.669 1303.1 348.871 1304.71 348.871H1430.51C1433.33 348.871 1434.54 347.675 1434.54 344.884V310.595C1434.54 307.804 1433.33 306.608 1430.51 306.608H1258.75C1255.92 306.608 1254.72 307.804 1254.72 310.595V573.746ZM1483.86 515.534C1497.97 558.993 1531.84 582.119 1579.01 582.119C1622.56 582.119 1655.62 560.588 1671.75 523.907C1672.55 521.514 1671.75 519.919 1669.73 519.122L1635.46 502.775C1633.04 501.579 1631.43 501.977 1630.22 504.768C1619.33 528.292 1602.4 539.855 1579.01 539.855C1554.42 539.855 1538.29 527.894 1529.82 503.971C1526.6 494.003 1524.98 473.669 1524.98 442.17C1524.98 410.672 1526.6 390.338 1529.82 380.37C1538.29 356.447 1554.42 344.486 1579.01 344.486C1602.4 344.486 1619.33 356.048 1630.22 379.572C1631.43 382.363 1633.04 382.762 1635.46 381.566L1669.73 365.219C1671.75 364.421 1672.55 362.826 1671.75 360.434C1655.62 323.753 1622.56 302.222 1579.01 302.222C1531.84 302.222 1497.97 325.347 1483.86 368.807C1479.02 383.161 1476.6 407.482 1476.6 442.17C1476.6 476.858 1479.02 501.18 1483.86 515.534ZM1716.58 573.746C1716.58 576.537 1717.79 577.733 1720.61 577.733H1760.12C1762.95 577.733 1764.16 576.537 1764.16 573.746V464.498C1764.16 462.903 1764.96 462.106 1766.58 462.106H1871C1872.62 462.106 1873.42 462.903 1873.42 464.498V573.746C1873.42 576.537 1874.63 577.733 1877.45 577.733H1916.97C1919.79 577.733 1921 576.537 1921 573.746V310.595C1921 307.804 1919.79 306.608 1916.97 306.608H1877.45C1874.63 306.608 1873.42 307.804 1873.42 310.595V417.45C1873.42 419.045 1872.62 419.842 1871 419.842H1766.58C1764.96 419.842 1764.16 419.045 1764.16 417.45V310.595C1764.16 307.804 1762.95 306.608 1760.12 306.608H1720.61C1717.79 306.608 1716.58 307.804 1716.58 310.595V573.746Z"/>
<path d="M1 272.524C1 275.315 2.20824 276.511 5.02747 276.511H44.4967C47.3159 276.511 48.5242 275.315 48.5242 272.524V163.276C48.5242 161.681 49.3297 160.884 50.9407 160.884H155.252C156.863 160.884 157.669 161.681 157.669 163.276V272.524C157.669 275.315 158.877 276.511 161.696 276.511H201.165C203.985 276.511 205.193 275.315 205.193 272.524V9.37299C205.193 6.58198 203.985 5.38586 201.165 5.38586H161.696C158.877 5.38586 157.669 6.58198 157.669 9.37299V116.228C157.669 117.823 156.863 118.62 155.252 118.62H50.9407C49.3297 118.62 48.5242 117.823 48.5242 116.228V9.37299C48.5242 6.58198 47.3159 5.38586 44.4967 5.38586H5.02747C2.20824 5.38586 1 6.58198 1 9.37299V272.524ZM361.55 280.897C409.88 280.897 444.516 258.17 458.612 215.508C463.445 201.154 465.862 176.434 465.862 140.948C465.862 105.463 463.445 80.7426 458.612 66.389C444.516 23.7267 409.88 1 361.55 1C313.623 1 278.987 23.7267 264.891 66.389C260.058 80.7426 257.641 105.463 257.641 140.948C257.641 176.434 260.058 201.154 264.891 215.508C278.987 258.17 313.623 280.897 361.55 280.897ZM361.55 238.633C336.177 238.633 319.262 226.672 310.804 203.148C307.582 193.18 305.971 172.447 305.971 140.948C305.971 109.45 307.582 88.7169 310.804 78.7491C319.262 55.225 336.177 43.2636 361.55 43.2636C387.326 43.2636 404.241 55.225 412.699 78.7491C415.921 88.7169 417.532 109.45 417.532 140.948C417.532 172.447 415.921 193.18 412.699 203.148C404.241 226.672 387.326 238.633 361.55 238.633ZM617.276 238.633C585.459 238.633 564.113 217.103 564.113 180.421V9.37299C564.113 6.58198 562.905 5.38586 560.086 5.38586H520.616C517.797 5.38586 516.589 6.58198 516.589 9.37299V181.218C516.589 211.919 525.852 236.241 544.781 254.183C563.71 272.125 587.875 280.897 617.276 280.897C647.079 280.897 671.244 272.125 690.173 254.183C709.102 236.241 718.365 211.919 718.365 181.218V9.37299C718.365 6.58198 717.157 5.38586 714.338 5.38586H674.869C672.049 5.38586 670.841 6.58198 670.841 9.37299V180.421C670.841 217.103 649.496 238.633 617.276 238.633ZM865.601 280.897C931.652 280.897 968.704 246.607 968.704 196.768C968.704 151.714 941.318 125.797 886.947 118.222L872.448 116.228C839.02 111.444 822.104 99.0834 822.104 79.5465C822.104 57.6173 837.811 43.2636 865.198 43.2636C887.349 43.2636 909.098 50.4404 930.846 64.3954C932.86 65.5915 934.874 65.1928 936.485 63.1992L955.816 33.6945C957.025 31.7009 957.025 29.7074 955.011 28.1125C930.846 10.1704 901.446 1 866.406 1C810.022 1 773.775 33.2958 773.775 82.7362C773.775 126.993 801.161 152.511 856.338 160.087L870.837 162.08C907.487 166.865 920.777 178.826 920.777 199.559C920.777 223.083 901.446 238.633 869.226 238.633C843.853 238.633 819.285 229.064 794.718 209.926C792.704 207.932 791.093 208.331 789.079 210.324L764.109 239.032C762.498 241.025 762.9 243.019 764.914 245.012C775.788 255.379 790.69 264.151 808.814 270.929C826.937 277.707 845.866 280.897 865.601 280.897ZM1013.37 272.524C1013.37 275.315 1014.58 276.511 1017.4 276.511H1188.97C1191.79 276.511 1193 275.315 1193 272.524V238.234C1193 235.443 1191.79 234.247 1188.97 234.247H1063.32C1061.7 234.247 1060.9 233.45 1060.9 231.855V163.276C1060.9 161.681 1061.7 160.884 1063.32 160.884H1169.24C1172.06 160.884 1173.27 159.688 1173.27 156.897V122.607C1173.27 119.817 1172.06 118.62 1169.24 118.62H1063.32C1061.7 118.62 1060.9 117.823 1060.9 116.228V50.0417C1060.9 48.4469 1061.7 47.6494 1063.32 47.6494H1188.97C1191.79 47.6494 1193 46.4533 1193 43.6623V9.37299C1193 6.58198 1191.79 5.38586 1188.97 5.38586H1017.4C1014.58 5.38586 1013.37 6.58198 1013.37 9.37299V272.524Z"/>
</mask>
<path d="M1133.43 577.733C1136.25 577.733 1137.46 576.537 1137.46 573.746V351.264C1137.46 349.669 1138.27 348.871 1139.88 348.871H1211.65C1214.47 348.871 1215.68 347.675 1215.68 344.884V310.595C1215.68 307.804 1214.47 306.608 1211.65 306.608H1015.7C1012.88 306.608 1011.67 307.804 1011.67 310.595V344.884C1011.67 347.675 1012.88 348.871 1015.7 348.871H1087.47C1089.08 348.871 1089.89 349.669 1089.89 351.264V573.746C1089.89 576.537 1091.1 577.733 1093.92 577.733H1133.43ZM1254.72 573.746C1254.72 576.537 1255.92 577.733 1258.75 577.733H1430.51C1433.33 577.733 1434.54 576.537 1434.54 573.746V539.456C1434.54 536.665 1433.33 535.469 1430.51 535.469H1304.71C1303.1 535.469 1302.29 534.672 1302.29 533.077V464.498C1302.29 462.903 1303.1 462.106 1304.71 462.106H1410.75C1413.57 462.106 1414.78 460.91 1414.78 458.119V423.83C1414.78 421.039 1413.57 419.842 1410.75 419.842H1304.71C1303.1 419.842 1302.29 419.045 1302.29 417.45V351.264C1302.29 349.669 1303.1 348.871 1304.71 348.871H1430.51C1433.33 348.871 1434.54 347.675 1434.54 344.884V310.595C1434.54 307.804 1433.33 306.608 1430.51 306.608H1258.75C1255.92 306.608 1254.72 307.804 1254.72 310.595V573.746ZM1483.86 515.534C1497.97 558.993 1531.84 582.119 1579.01 582.119C1622.56 582.119 1655.62 560.588 1671.75 523.907C1672.55 521.514 1671.75 519.919 1669.73 519.122L1635.46 502.775C1633.04 501.579 1631.43 501.977 1630.22 504.768C1619.33 528.292 1602.4 539.855 1579.01 539.855C1554.42 539.855 1538.29 527.894 1529.82 503.971C1526.6 494.003 1524.98 473.669 1524.98 442.17C1524.98 410.672 1526.6 390.338 1529.82 380.37C1538.29 356.447 1554.42 344.486 1579.01 344.486C1602.4 344.486 1619.33 356.048 1630.22 379.572C1631.43 382.363 1633.04 382.762 1635.46 381.566L1669.73 365.219C1671.75 364.421 1672.55 362.826 1671.75 360.434C1655.62 323.753 1622.56 302.222 1579.01 302.222C1531.84 302.222 1497.97 325.347 1483.86 368.807C1479.02 383.161 1476.6 407.482 1476.6 442.17C1476.6 476.858 1479.02 501.18 1483.86 515.534ZM1716.58 573.746C1716.58 576.537 1717.79 577.733 1720.61 577.733H1760.12C1762.95 577.733 1764.16 576.537 1764.16 573.746V464.498C1764.16 462.903 1764.96 462.106 1766.58 462.106H1871C1872.62 462.106 1873.42 462.903 1873.42 464.498V573.746C1873.42 576.537 1874.63 577.733 1877.45 577.733H1916.97C1919.79 577.733 1921 576.537 1921 573.746V310.595C1921 307.804 1919.79 306.608 1916.97 306.608H1877.45C1874.63 306.608 1873.42 307.804 1873.42 310.595V417.45C1873.42 419.045 1872.62 419.842 1871 419.842H1766.58C1764.96 419.842 1764.16 419.045 1764.16 417.45V310.595C1764.16 307.804 1762.95 306.608 1760.12 306.608H1720.61C1717.79 306.608 1716.58 307.804 1716.58 310.595V573.746Z" stroke="#191919" stroke-opacity="0.1" stroke-width="2" mask="url(#path-1-outside-1_1565_28002)"/>
<path d="M1 272.524C1 275.315 2.20824 276.511 5.02747 276.511H44.4967C47.3159 276.511 48.5242 275.315 48.5242 272.524V163.276C48.5242 161.681 49.3297 160.884 50.9407 160.884H155.252C156.863 160.884 157.669 161.681 157.669 163.276V272.524C157.669 275.315 158.877 276.511 161.696 276.511H201.165C203.985 276.511 205.193 275.315 205.193 272.524V9.37299C205.193 6.58198 203.985 5.38586 201.165 5.38586H161.696C158.877 5.38586 157.669 6.58198 157.669 9.37299V116.228C157.669 117.823 156.863 118.62 155.252 118.62H50.9407C49.3297 118.62 48.5242 117.823 48.5242 116.228V9.37299C48.5242 6.58198 47.3159 5.38586 44.4967 5.38586H5.02747C2.20824 5.38586 1 6.58198 1 9.37299V272.524ZM361.55 280.897C409.88 280.897 444.516 258.17 458.612 215.508C463.445 201.154 465.862 176.434 465.862 140.948C465.862 105.463 463.445 80.7426 458.612 66.389C444.516 23.7267 409.88 1 361.55 1C313.623 1 278.987 23.7267 264.891 66.389C260.058 80.7426 257.641 105.463 257.641 140.948C257.641 176.434 260.058 201.154 264.891 215.508C278.987 258.17 313.623 280.897 361.55 280.897ZM361.55 238.633C336.177 238.633 319.262 226.672 310.804 203.148C307.582 193.18 305.971 172.447 305.971 140.948C305.971 109.45 307.582 88.7169 310.804 78.7491C319.262 55.225 336.177 43.2636 361.55 43.2636C387.326 43.2636 404.241 55.225 412.699 78.7491C415.921 88.7169 417.532 109.45 417.532 140.948C417.532 172.447 415.921 193.18 412.699 203.148C404.241 226.672 387.326 238.633 361.55 238.633ZM617.276 238.633C585.459 238.633 564.113 217.103 564.113 180.421V9.37299C564.113 6.58198 562.905 5.38586 560.086 5.38586H520.616C517.797 5.38586 516.589 6.58198 516.589 9.37299V181.218C516.589 211.919 525.852 236.241 544.781 254.183C563.71 272.125 587.875 280.897 617.276 280.897C647.079 280.897 671.244 272.125 690.173 254.183C709.102 236.241 718.365 211.919 718.365 181.218V9.37299C718.365 6.58198 717.157 5.38586 714.338 5.38586H674.869C672.049 5.38586 670.841 6.58198 670.841 9.37299V180.421C670.841 217.103 649.496 238.633 617.276 238.633ZM865.601 280.897C931.652 280.897 968.704 246.607 968.704 196.768C968.704 151.714 941.318 125.797 886.947 118.222L872.448 116.228C839.02 111.444 822.104 99.0834 822.104 79.5465C822.104 57.6173 837.811 43.2636 865.198 43.2636C887.349 43.2636 909.098 50.4404 930.846 64.3954C932.86 65.5915 934.874 65.1928 936.485 63.1992L955.816 33.6945C957.025 31.7009 957.025 29.7074 955.011 28.1125C930.846 10.1704 901.446 1 866.406 1C810.022 1 773.775 33.2958 773.775 82.7362C773.775 126.993 801.161 152.511 856.338 160.087L870.837 162.08C907.487 166.865 920.777 178.826 920.777 199.559C920.777 223.083 901.446 238.633 869.226 238.633C843.853 238.633 819.285 229.064 794.718 209.926C792.704 207.932 791.093 208.331 789.079 210.324L764.109 239.032C762.498 241.025 762.9 243.019 764.914 245.012C775.788 255.379 790.69 264.151 808.814 270.929C826.937 277.707 845.866 280.897 865.601 280.897ZM1013.37 272.524C1013.37 275.315 1014.58 276.511 1017.4 276.511H1188.97C1191.79 276.511 1193 275.315 1193 272.524V238.234C1193 235.443 1191.79 234.247 1188.97 234.247H1063.32C1061.7 234.247 1060.9 233.45 1060.9 231.855V163.276C1060.9 161.681 1061.7 160.884 1063.32 160.884H1169.24C1172.06 160.884 1173.27 159.688 1173.27 156.897V122.607C1173.27 119.817 1172.06 118.62 1169.24 118.62H1063.32C1061.7 118.62 1060.9 117.823 1060.9 116.228V50.0417C1060.9 48.4469 1061.7 47.6494 1063.32 47.6494H1188.97C1191.79 47.6494 1193 46.4533 1193 43.6623V9.37299C1193 6.58198 1191.79 5.38586 1188.97 5.38586H1017.4C1014.58 5.38586 1013.37 6.58198 1013.37 9.37299V272.524Z" stroke="#191919" stroke-opacity="0.1" stroke-width="2" mask="url(#path-1-outside-1_1565_28002)"/>
</svg>
