<svg width="1920" height="584" viewBox="0 0 1920 584" fill="none" xmlns="http://www.w3.org/2000/svg">
<mask id="path-1-outside-1_1565_28003" maskUnits="userSpaceOnUse" x="-1" y="0" width="1922" height="584" fill="black">
<rect fill="white" x="-1" width="1922" height="584"/>
<path d="M1132.43 577.733C1135.25 577.733 1136.46 576.537 1136.46 573.746V351.264C1136.46 349.669 1137.27 348.871 1138.88 348.871H1210.65C1213.47 348.871 1214.68 347.675 1214.68 344.884V310.595C1214.68 307.804 1213.47 306.608 1210.65 306.608H1014.7C1011.88 306.608 1010.67 307.804 1010.67 310.595V344.884C1010.67 347.675 1011.88 348.871 1014.7 348.871H1086.47C1088.08 348.871 1088.89 349.669 1088.89 351.264V573.746C1088.89 576.537 1090.1 577.733 1092.92 577.733H1132.43ZM1253.72 573.746C1253.72 576.537 1254.92 577.733 1257.75 577.733H1429.51C1432.33 577.733 1433.54 576.537 1433.54 573.746V539.456C1433.54 536.665 1432.33 535.469 1429.51 535.469H1303.71C1302.1 535.469 1301.29 534.672 1301.29 533.077V464.498C1301.29 462.903 1302.1 462.106 1303.71 462.106H1409.75C1412.57 462.106 1413.78 460.91 1413.78 458.119V423.83C1413.78 421.039 1412.57 419.842 1409.75 419.842H1303.71C1302.1 419.842 1301.29 419.045 1301.29 417.45V351.264C1301.29 349.669 1302.1 348.871 1303.71 348.871H1429.51C1432.33 348.871 1433.54 347.675 1433.54 344.884V310.595C1433.54 307.804 1432.33 306.608 1429.51 306.608H1257.75C1254.92 306.608 1253.72 307.804 1253.72 310.595V573.746ZM1482.86 515.534C1496.97 558.993 1530.84 582.119 1578.01 582.119C1621.56 582.119 1654.62 560.588 1670.75 523.907C1671.55 521.514 1670.75 519.919 1668.73 519.122L1634.46 502.775C1632.04 501.579 1630.43 501.977 1629.22 504.768C1618.33 528.292 1601.4 539.855 1578.01 539.855C1553.42 539.855 1537.29 527.894 1528.82 503.971C1525.6 494.003 1523.98 473.669 1523.98 442.17C1523.98 410.672 1525.6 390.338 1528.82 380.37C1537.29 356.447 1553.42 344.486 1578.01 344.486C1601.4 344.486 1618.33 356.048 1629.22 379.572C1630.43 382.363 1632.04 382.762 1634.46 381.566L1668.73 365.219C1670.75 364.421 1671.55 362.826 1670.75 360.434C1654.62 323.753 1621.56 302.222 1578.01 302.222C1530.84 302.222 1496.97 325.347 1482.86 368.807C1478.02 383.161 1475.6 407.482 1475.6 442.17C1475.6 476.858 1478.02 501.18 1482.86 515.534ZM1715.58 573.746C1715.58 576.537 1716.79 577.733 1719.61 577.733H1759.12C1761.95 577.733 1763.16 576.537 1763.16 573.746V464.498C1763.16 462.903 1763.96 462.106 1765.58 462.106H1870C1871.62 462.106 1872.42 462.903 1872.42 464.498V573.746C1872.42 576.537 1873.63 577.733 1876.45 577.733H1915.97C1918.79 577.733 1920 576.537 1920 573.746V310.595C1920 307.804 1918.79 306.608 1915.97 306.608H1876.45C1873.63 306.608 1872.42 307.804 1872.42 310.595V417.45C1872.42 419.045 1871.62 419.842 1870 419.842H1765.58C1763.96 419.842 1763.16 419.045 1763.16 417.45V310.595C1763.16 307.804 1761.95 306.608 1759.12 306.608H1719.61C1716.79 306.608 1715.58 307.804 1715.58 310.595V573.746Z"/>
<path d="M0 272.524C0 275.315 1.20824 276.511 4.02747 276.511H43.4967C46.3159 276.511 47.5242 275.315 47.5242 272.524V163.276C47.5242 161.681 48.3297 160.884 49.9407 160.884H154.252C155.863 160.884 156.669 161.681 156.669 163.276V272.524C156.669 275.315 157.877 276.511 160.696 276.511H200.165C202.985 276.511 204.193 275.315 204.193 272.524V9.37299C204.193 6.58198 202.985 5.38586 200.165 5.38586H160.696C157.877 5.38586 156.669 6.58198 156.669 9.37299V116.228C156.669 117.823 155.863 118.62 154.252 118.62H49.9407C48.3297 118.62 47.5242 117.823 47.5242 116.228V9.37299C47.5242 6.58198 46.3159 5.38586 43.4967 5.38586H4.02747C1.20824 5.38586 0 6.58198 0 9.37299V272.524ZM360.55 280.897C408.88 280.897 443.516 258.17 457.612 215.508C462.445 201.154 464.862 176.434 464.862 140.948C464.862 105.463 462.445 80.7426 457.612 66.389C443.516 23.7267 408.88 1 360.55 1C312.623 1 277.987 23.7267 263.891 66.389C259.058 80.7426 256.641 105.463 256.641 140.948C256.641 176.434 259.058 201.154 263.891 215.508C277.987 258.17 312.623 280.897 360.55 280.897ZM360.55 238.633C335.177 238.633 318.262 226.672 309.804 203.148C306.582 193.18 304.971 172.447 304.971 140.948C304.971 109.45 306.582 88.7169 309.804 78.7491C318.262 55.225 335.177 43.2636 360.55 43.2636C386.326 43.2636 403.241 55.225 411.699 78.7491C414.921 88.7169 416.532 109.45 416.532 140.948C416.532 172.447 414.921 193.18 411.699 203.148C403.241 226.672 386.326 238.633 360.55 238.633ZM616.276 238.633C584.459 238.633 563.113 217.103 563.113 180.421V9.37299C563.113 6.58198 561.905 5.38586 559.086 5.38586H519.616C516.797 5.38586 515.589 6.58198 515.589 9.37299V181.218C515.589 211.919 524.852 236.241 543.781 254.183C562.71 272.125 586.875 280.897 616.276 280.897C646.079 280.897 670.244 272.125 689.173 254.183C708.102 236.241 717.365 211.919 717.365 181.218V9.37299C717.365 6.58198 716.157 5.38586 713.338 5.38586H673.869C671.049 5.38586 669.841 6.58198 669.841 9.37299V180.421C669.841 217.103 648.496 238.633 616.276 238.633ZM864.601 280.897C930.652 280.897 967.704 246.607 967.704 196.768C967.704 151.714 940.318 125.797 885.947 118.222L871.448 116.228C838.02 111.444 821.104 99.0834 821.104 79.5465C821.104 57.6173 836.811 43.2636 864.198 43.2636C886.349 43.2636 908.098 50.4404 929.846 64.3954C931.86 65.5915 933.874 65.1928 935.485 63.1992L954.816 33.6945C956.025 31.7009 956.025 29.7074 954.011 28.1125C929.846 10.1704 900.446 1 865.406 1C809.022 1 772.775 33.2958 772.775 82.7362C772.775 126.993 800.161 152.511 855.338 160.087L869.837 162.08C906.487 166.865 919.777 178.826 919.777 199.559C919.777 223.083 900.446 238.633 868.226 238.633C842.853 238.633 818.285 229.064 793.718 209.926C791.704 207.932 790.093 208.331 788.079 210.324L763.109 239.032C761.498 241.025 761.9 243.019 763.914 245.012C774.788 255.379 789.69 264.151 807.814 270.929C825.937 277.707 844.866 280.897 864.601 280.897ZM1012.37 272.524C1012.37 275.315 1013.58 276.511 1016.4 276.511H1187.97C1190.79 276.511 1192 275.315 1192 272.524V238.234C1192 235.443 1190.79 234.247 1187.97 234.247H1062.32C1060.7 234.247 1059.9 233.45 1059.9 231.855V163.276C1059.9 161.681 1060.7 160.884 1062.32 160.884H1168.24C1171.06 160.884 1172.27 159.688 1172.27 156.897V122.607C1172.27 119.817 1171.06 118.62 1168.24 118.62H1062.32C1060.7 118.62 1059.9 117.823 1059.9 116.228V50.0417C1059.9 48.4469 1060.7 47.6494 1062.32 47.6494H1187.97C1190.79 47.6494 1192 46.4533 1192 43.6623V9.37299C1192 6.58198 1190.79 5.38586 1187.97 5.38586H1016.4C1013.58 5.38586 1012.37 6.58198 1012.37 9.37299V272.524Z"/>
</mask>
<path d="M1132.43 577.733C1135.25 577.733 1136.46 576.537 1136.46 573.746V351.264C1136.46 349.669 1137.27 348.871 1138.88 348.871H1210.65C1213.47 348.871 1214.68 347.675 1214.68 344.884V310.595C1214.68 307.804 1213.47 306.608 1210.65 306.608H1014.7C1011.88 306.608 1010.67 307.804 1010.67 310.595V344.884C1010.67 347.675 1011.88 348.871 1014.7 348.871H1086.47C1088.08 348.871 1088.89 349.669 1088.89 351.264V573.746C1088.89 576.537 1090.1 577.733 1092.92 577.733H1132.43ZM1253.72 573.746C1253.72 576.537 1254.92 577.733 1257.75 577.733H1429.51C1432.33 577.733 1433.54 576.537 1433.54 573.746V539.456C1433.54 536.665 1432.33 535.469 1429.51 535.469H1303.71C1302.1 535.469 1301.29 534.672 1301.29 533.077V464.498C1301.29 462.903 1302.1 462.106 1303.71 462.106H1409.75C1412.57 462.106 1413.78 460.91 1413.78 458.119V423.83C1413.78 421.039 1412.57 419.842 1409.75 419.842H1303.71C1302.1 419.842 1301.29 419.045 1301.29 417.45V351.264C1301.29 349.669 1302.1 348.871 1303.71 348.871H1429.51C1432.33 348.871 1433.54 347.675 1433.54 344.884V310.595C1433.54 307.804 1432.33 306.608 1429.51 306.608H1257.75C1254.92 306.608 1253.72 307.804 1253.72 310.595V573.746ZM1482.86 515.534C1496.97 558.993 1530.84 582.119 1578.01 582.119C1621.56 582.119 1654.62 560.588 1670.75 523.907C1671.55 521.514 1670.75 519.919 1668.73 519.122L1634.46 502.775C1632.04 501.579 1630.43 501.977 1629.22 504.768C1618.33 528.292 1601.4 539.855 1578.01 539.855C1553.42 539.855 1537.29 527.894 1528.82 503.971C1525.6 494.003 1523.98 473.669 1523.98 442.17C1523.98 410.672 1525.6 390.338 1528.82 380.37C1537.29 356.447 1553.42 344.486 1578.01 344.486C1601.4 344.486 1618.33 356.048 1629.22 379.572C1630.43 382.363 1632.04 382.762 1634.46 381.566L1668.73 365.219C1670.75 364.421 1671.55 362.826 1670.75 360.434C1654.62 323.753 1621.56 302.222 1578.01 302.222C1530.84 302.222 1496.97 325.347 1482.86 368.807C1478.02 383.161 1475.6 407.482 1475.6 442.17C1475.6 476.858 1478.02 501.18 1482.86 515.534ZM1715.58 573.746C1715.58 576.537 1716.79 577.733 1719.61 577.733H1759.12C1761.95 577.733 1763.16 576.537 1763.16 573.746V464.498C1763.16 462.903 1763.96 462.106 1765.58 462.106H1870C1871.62 462.106 1872.42 462.903 1872.42 464.498V573.746C1872.42 576.537 1873.63 577.733 1876.45 577.733H1915.97C1918.79 577.733 1920 576.537 1920 573.746V310.595C1920 307.804 1918.79 306.608 1915.97 306.608H1876.45C1873.63 306.608 1872.42 307.804 1872.42 310.595V417.45C1872.42 419.045 1871.62 419.842 1870 419.842H1765.58C1763.96 419.842 1763.16 419.045 1763.16 417.45V310.595C1763.16 307.804 1761.95 306.608 1759.12 306.608H1719.61C1716.79 306.608 1715.58 307.804 1715.58 310.595V573.746Z" stroke="white" stroke-opacity="0.15" stroke-width="2" mask="url(#path-1-outside-1_1565_28003)"/>
<path d="M0 272.524C0 275.315 1.20824 276.511 4.02747 276.511H43.4967C46.3159 276.511 47.5242 275.315 47.5242 272.524V163.276C47.5242 161.681 48.3297 160.884 49.9407 160.884H154.252C155.863 160.884 156.669 161.681 156.669 163.276V272.524C156.669 275.315 157.877 276.511 160.696 276.511H200.165C202.985 276.511 204.193 275.315 204.193 272.524V9.37299C204.193 6.58198 202.985 5.38586 200.165 5.38586H160.696C157.877 5.38586 156.669 6.58198 156.669 9.37299V116.228C156.669 117.823 155.863 118.62 154.252 118.62H49.9407C48.3297 118.62 47.5242 117.823 47.5242 116.228V9.37299C47.5242 6.58198 46.3159 5.38586 43.4967 5.38586H4.02747C1.20824 5.38586 0 6.58198 0 9.37299V272.524ZM360.55 280.897C408.88 280.897 443.516 258.17 457.612 215.508C462.445 201.154 464.862 176.434 464.862 140.948C464.862 105.463 462.445 80.7426 457.612 66.389C443.516 23.7267 408.88 1 360.55 1C312.623 1 277.987 23.7267 263.891 66.389C259.058 80.7426 256.641 105.463 256.641 140.948C256.641 176.434 259.058 201.154 263.891 215.508C277.987 258.17 312.623 280.897 360.55 280.897ZM360.55 238.633C335.177 238.633 318.262 226.672 309.804 203.148C306.582 193.18 304.971 172.447 304.971 140.948C304.971 109.45 306.582 88.7169 309.804 78.7491C318.262 55.225 335.177 43.2636 360.55 43.2636C386.326 43.2636 403.241 55.225 411.699 78.7491C414.921 88.7169 416.532 109.45 416.532 140.948C416.532 172.447 414.921 193.18 411.699 203.148C403.241 226.672 386.326 238.633 360.55 238.633ZM616.276 238.633C584.459 238.633 563.113 217.103 563.113 180.421V9.37299C563.113 6.58198 561.905 5.38586 559.086 5.38586H519.616C516.797 5.38586 515.589 6.58198 515.589 9.37299V181.218C515.589 211.919 524.852 236.241 543.781 254.183C562.71 272.125 586.875 280.897 616.276 280.897C646.079 280.897 670.244 272.125 689.173 254.183C708.102 236.241 717.365 211.919 717.365 181.218V9.37299C717.365 6.58198 716.157 5.38586 713.338 5.38586H673.869C671.049 5.38586 669.841 6.58198 669.841 9.37299V180.421C669.841 217.103 648.496 238.633 616.276 238.633ZM864.601 280.897C930.652 280.897 967.704 246.607 967.704 196.768C967.704 151.714 940.318 125.797 885.947 118.222L871.448 116.228C838.02 111.444 821.104 99.0834 821.104 79.5465C821.104 57.6173 836.811 43.2636 864.198 43.2636C886.349 43.2636 908.098 50.4404 929.846 64.3954C931.86 65.5915 933.874 65.1928 935.485 63.1992L954.816 33.6945C956.025 31.7009 956.025 29.7074 954.011 28.1125C929.846 10.1704 900.446 1 865.406 1C809.022 1 772.775 33.2958 772.775 82.7362C772.775 126.993 800.161 152.511 855.338 160.087L869.837 162.08C906.487 166.865 919.777 178.826 919.777 199.559C919.777 223.083 900.446 238.633 868.226 238.633C842.853 238.633 818.285 229.064 793.718 209.926C791.704 207.932 790.093 208.331 788.079 210.324L763.109 239.032C761.498 241.025 761.9 243.019 763.914 245.012C774.788 255.379 789.69 264.151 807.814 270.929C825.937 277.707 844.866 280.897 864.601 280.897ZM1012.37 272.524C1012.37 275.315 1013.58 276.511 1016.4 276.511H1187.97C1190.79 276.511 1192 275.315 1192 272.524V238.234C1192 235.443 1190.79 234.247 1187.97 234.247H1062.32C1060.7 234.247 1059.9 233.45 1059.9 231.855V163.276C1059.9 161.681 1060.7 160.884 1062.32 160.884H1168.24C1171.06 160.884 1172.27 159.688 1172.27 156.897V122.607C1172.27 119.817 1171.06 118.62 1168.24 118.62H1062.32C1060.7 118.62 1059.9 117.823 1059.9 116.228V50.0417C1059.9 48.4469 1060.7 47.6494 1062.32 47.6494H1187.97C1190.79 47.6494 1192 46.4533 1192 43.6623V9.37299C1192 6.58198 1190.79 5.38586 1187.97 5.38586H1016.4C1013.58 5.38586 1012.37 6.58198 1012.37 9.37299V272.524Z" stroke="white" stroke-opacity="0.15" stroke-width="2" mask="url(#path-1-outside-1_1565_28003)"/>
</svg>
