<svg width="88" height="72" viewBox="0 0 88 72" fill="none" xmlns="http://www.w3.org/2000/svg">
<g clip-path="url(#clip0_2172_3263)">
<path d="M74 27L74 15.7818L76.7692 12.7273V0L80 1.41221e-07L80 29.9999L8 29.9999L8 27L74 27Z" fill="#1A1A1A"/>
<path d="M80 33.0004V39.0002L8 39.0002L8 33.0004L80 33.0004Z" fill="#1A1A1A"/>
<path d="M80 42V44.9999L14 44.9999L14 56L11.2308 59L11.2308 72H8L8 42L80 42Z" fill="#1A1A1A"/>
<path d="M16 0H24.7668L29.6361 4.99899H58.853L63.7223 0H72V72H63.7223L58.853 67.0008H29.6361L24.7668 72H16V0Z" fill="url(#paint0_linear_2172_3263)"/>
<g clip-path="url(#clip1_2172_3263)">
<path fill-rule="evenodd" clip-rule="evenodd" d="M29.6361 4.99997L24.7668 0.00112915H16V71.999H24.7668L29.6361 67H58.853L63.7223 71.999H72V0.00112915H63.7223L58.853 4.99997H29.6361ZM25.2522 48.2928L39.3739 62.7928V66.25H59.1555L63.7217 70.9378V34.7071L58.3652 29.2071V5.74995H29.3336L25.2522 1.55992V48.2928ZM64.6956 34.2928L59.3391 28.7928V5.56147L63.64 1.14619L69.0783 7.19543V71.249H64.6956V34.2928ZM71.2696 71.249V0.751114H64.6102L70.0522 6.80445V71.249H71.2696ZM16.7304 71.249V0.751114H17.9483L17.9483 71.249H16.7304ZM29.3336 66.25L24.4643 71.249H20.87L20.87 0.751114H24.2783V48.707L38.4 63.207V66.25H29.3336Z" fill="#1A1A1A"/>
</g>
<path d="M28.5948 23.6251L33.615 18.5111C34.284 17.8296 35.3686 17.8296 36.0375 18.5111L40.4668 23.0231C41.1357 23.7045 41.1357 24.8094 40.4668 25.4908L38.6777 27.3133C37.456 28.5579 37.3352 30.5344 38.396 31.9236C40.771 35.0344 39.6988 40.1639 36.2526 38.3088C35.6052 37.9603 35.0165 37.4686 34.534 36.8366L28.2874 28.6552C27.1301 27.1394 27.2619 24.9829 28.5948 23.6251Z" fill="#1A1A1A"/>
<path d="M51.6009 38.5779L53.6686 36.4716L54.7329 37.5557L52.6652 39.6621L51.6009 38.5779Z" fill="#1A1A1A"/>
<path d="M53.7223 46.3754L54.8798 45.1963L55.9927 46.33L54.8351 47.5091L53.7223 46.3754Z" fill="#1A1A1A"/>
<path d="M53.6686 49.8653L54.8261 48.6862L55.939 49.8198L54.7815 50.999L53.6686 49.8653Z" fill="#1A1A1A"/>
<path d="M57.0944 37.6507L58.252 36.4716L59.3648 37.6052L58.2073 38.7844L57.0944 37.6507Z" fill="#1A1A1A"/>
<path d="M48.5298 49.8653L49.6873 48.6862L50.8002 49.8198L49.6426 50.999L48.5298 49.8653Z" fill="#1A1A1A"/>
<path d="M56.5157 45.7859L58.8074 43.4513L60.499 45.1746L58.2073 47.5091L56.5157 45.7859Z" fill="#1A1A1A"/>
<path d="M53.6686 40.3228L55.7363 38.2165L59.0261 41.5678L56.9584 43.6742L53.6686 40.3228Z" fill="#1A1A1A"/>
<path d="M46.8168 43.4513L51.0992 39.089L55.3815 43.4513L51.0992 47.8137L46.8168 43.4513Z" fill="#1A1A1A"/>
<path d="M41.678 43.7224L43.657 41.7064L48.556 46.6969L46.577 48.7129L41.678 43.7224Z" fill="#1A1A1A"/>
<path d="M42.4015 39.2245L44.3091 37.2812L47.735 40.7711L45.8273 42.7144L42.4015 39.2245Z" fill="#1A1A1A"/>
<path d="M38.2521 43.3349L39.8507 41.7064L41.2207 43.1019L39.6221 44.7304L38.2521 43.3349Z" fill="#1A1A1A"/>
<path d="M34.8263 37.2858L39.1086 32.9817L42.5345 37.2858L38.2521 40.8339L34.8263 37.2858Z" fill="#1A1A1A"/>
</g>
<defs>
<linearGradient id="paint0_linear_2172_3263" x1="44" y1="0" x2="44" y2="72" gradientUnits="userSpaceOnUse">
<stop stop-color="#DAB367"/>
<stop offset="1" stop-color="#FFDF8D"/>
</linearGradient>
<clipPath id="clip0_2172_3263">
<rect width="88" height="72" fill="white"/>
</clipPath>
<clipPath id="clip1_2172_3263">
<rect width="56" height="72" fill="white" transform="translate(72 72) rotate(180)"/>
</clipPath>
</defs>
</svg>
