<svg width="88" height="72" viewBox="0 0 88 72" fill="none" xmlns="http://www.w3.org/2000/svg">
<rect x="80" y="33.0005" width="5.99982" height="72" transform="rotate(90 80 33.0005)" fill="#1A1A1A"/>
<rect x="80" y="42.0001" width="2.99991" height="72" transform="rotate(90 80 42.0001)" fill="#1A1A1A"/>
<rect x="80" y="27.0001" width="2.99991" height="72" transform="rotate(90 80 27.0001)" fill="#1A1A1A"/>
<path d="M28.7363 5.26524L28.8461 5.37505H29.0014H59.0009H59.1562L59.266 5.26524L64.1559 0.37621H72.125V71.6241H64.1559L59.266 66.7349L59.1562 66.6251H59.0009H29.0014H28.8461L28.7363 66.7349L23.8464 71.6241H15.375V0.37621H23.8464L28.7363 5.26524Z" fill="url(#paint0_linear_1563_16615)" stroke="#1A1A1A" stroke-width="0.749978"/>
<g clip-path="url(#clip0_1563_16615)">
<rect width="8" height="72" transform="translate(8)" fill="#1A1A1A"/>
</g>
<g clip-path="url(#clip1_1563_16615)">
<rect width="8" height="72" transform="translate(72)" fill="#1A1A1A"/>
<rect width="2.99991" height="2.99991" transform="matrix(1 0 0 -1 76.0016 0.00012207)" fill="#EFC36E"/>
</g>
<g clip-path="url(#clip2_1563_16615)">
<path fill-rule="evenodd" clip-rule="evenodd" d="M13.2501 72.0004L101.75 72.0004L101.75 -211.499L44.3107 -211.499L13.2501 -180.439L13.2501 72.0004ZM12.5001 -180.749L44 -212.249L102.5 -212.249L102.5 72.7504L12.5001 72.7504L12.5001 -180.749Z" fill="#1A1A1A"/>
<path d="M20.0002 72.7504L17.0002 72.7504L17.0002 -80.2494L20.0002 -83.2494L20.0002 72.7504Z" fill="#1A1A1A"/>
<path d="M20.0002 0.000488281L20.0002 -5.9995L26.0002 -5.9995L26.0002 0.000488019L20.0002 0.000488281Z" fill="#1A1A1A"/>
<path d="M24 0.5V48.5L38.5 63V66.5" stroke="black"/>
<path d="M59 5.5V29L64.5 34.5V71.5M70 71.5V7L64 0.5" stroke="black"/>
</g>
<path d="M28.5948 23.6251L33.615 18.5111C34.284 17.8296 35.3686 17.8296 36.0375 18.5111L40.4668 23.0231C41.1357 23.7046 41.1357 24.8094 40.4668 25.4909L38.6777 27.3134C37.456 28.5579 37.3352 30.5344 38.396 31.9237C40.771 35.0344 39.6988 40.1639 36.2526 38.3088C35.6052 37.9604 35.0165 37.4686 34.534 36.8367L28.2874 28.6552C27.1301 27.1394 27.2619 24.983 28.5948 23.6251Z" fill="#1A1A1A"/>
<path d="M51.6009 38.5779L53.6686 36.4716L54.7329 37.5558L52.6652 39.6621L51.6009 38.5779Z" fill="#1A1A1A"/>
<path d="M53.7223 46.3755L54.8798 45.1963L55.9927 46.33L54.8351 47.5091L53.7223 46.3755Z" fill="#1A1A1A"/>
<path d="M53.6686 49.8654L54.8261 48.6862L55.939 49.8199L54.7815 50.999L53.6686 49.8654Z" fill="#1A1A1A"/>
<path d="M57.0944 37.6508L58.252 36.4716L59.3648 37.6053L58.2073 38.7844L57.0944 37.6508Z" fill="#1A1A1A"/>
<path d="M48.5298 49.8654L49.6873 48.6862L50.8002 49.8199L49.6426 50.999L48.5298 49.8654Z" fill="#1A1A1A"/>
<path d="M56.5157 45.7859L58.8074 43.4514L60.499 45.1746L58.2073 47.5091L56.5157 45.7859Z" fill="#1A1A1A"/>
<path d="M53.6686 40.3229L55.7363 38.2165L59.0261 41.5679L56.9584 43.6742L53.6686 40.3229Z" fill="#1A1A1A"/>
<path d="M46.8168 43.4514L51.0992 39.089L55.3815 43.4514L51.0992 47.8137L46.8168 43.4514Z" fill="#1A1A1A"/>
<path d="M41.678 43.7224L43.657 41.7064L48.556 46.697L46.577 48.7129L41.678 43.7224Z" fill="#1A1A1A"/>
<path d="M42.4015 39.2245L44.3091 37.2812L47.735 40.7711L45.8273 42.7144L42.4015 39.2245Z" fill="#1A1A1A"/>
<path d="M38.2521 43.3349L39.8507 41.7064L41.2207 43.1019L39.6221 44.7304L38.2521 43.3349Z" fill="#1A1A1A"/>
<path d="M34.8263 37.2858L39.1086 32.9817L42.5345 37.2858L38.2521 40.834L34.8263 37.2858Z" fill="#1A1A1A"/>
<defs>
<linearGradient id="paint0_linear_1563_16615" x1="43.75" y1="0.0012207" x2="43.75" y2="71.9991" gradientUnits="userSpaceOnUse">
<stop stop-color="#DAB367"/>
<stop offset="1" stop-color="#FFDF8D"/>
</linearGradient>
<clipPath id="clip0_1563_16615">
<rect width="8" height="72" fill="white" transform="translate(8)"/>
</clipPath>
<clipPath id="clip1_1563_16615">
<rect width="8" height="72" fill="white" transform="translate(72)"/>
</clipPath>
<clipPath id="clip2_1563_16615">
<rect width="66" height="72" fill="white" transform="translate(80 72) rotate(180)"/>
</clipPath>
</defs>
</svg>
