<svg width="540" height="343" viewBox="0 0 540 343" fill="none" xmlns="http://www.w3.org/2000/svg">
<path fill-rule="evenodd" clip-rule="evenodd" d="M378 99H260V337H336.586L378 295.586V99ZM379 296L337 338H259V98H379V296Z" fill="#1A1A1A"/>
<path d="M369 98H373L373 302L369 306L369 98Z" fill="#1A1A1A"/>
<path d="M369 195L369 203L361 203L361 195L369 195Z" fill="#1A1A1A"/>
<path fill-rule="evenodd" clip-rule="evenodd" d="M341 98.5H342V110.793L362 130.793V197.5H361V131.207L341 111.207V98.5Z" fill="#1A1A1A"/>
<path fill-rule="evenodd" clip-rule="evenodd" d="M168 329L286 329L286 111L209.414 111L168 152.414L168 329ZM167 152L209 110L287 110L287 330L167 330L167 152Z" fill="#1A1A1A"/>
<path d="M177 330L173 330L173 126L177 122L177 330Z" fill="#1A1A1A"/>
<path d="M177 233L177 225L185 225L185 233L177 233Z" fill="#1A1A1A"/>
<path fill-rule="evenodd" clip-rule="evenodd" d="M205 329.5L204 329.5L204 317.207L184 297.207L184 230.5L185 230.5L185 296.793L205 316.793L205 329.5Z" fill="#1A1A1A"/>
<path fill-rule="evenodd" clip-rule="evenodd" d="M385.067 65L385.067 19L162.933 19L162.933 65L385.067 65ZM386 18L162 18L162 66L386 66L386 18Z" fill="#1A1A1A"/>
<path d="M385 19L385 27L377 27L377 19L385 19Z" fill="#1A1A1A"/>
<path d="M309 25.8205C309 25.8803 309.026 25.906 309.087 25.906L310.187 25.906C310.247 25.906 310.273 25.8803 310.273 25.8205L310.273 23.5812C310.273 23.547 310.291 23.5299 310.325 23.5299L312.248 23.5299C312.283 23.5299 312.3 23.547 312.3 23.5812L312.3 25.8205C312.3 25.8803 312.326 25.906 312.387 25.906L313.487 25.906C313.547 25.906 313.573 25.8803 313.573 25.8205L313.573 20.1795C313.573 20.1197 313.547 20.094 313.487 20.094L312.387 20.094C312.326 20.094 312.3 20.1197 312.3 20.1795L312.3 22.359C312.3 22.3932 312.283 22.4103 312.248 22.4103L310.325 22.4103C310.291 22.4103 310.273 22.3932 310.273 22.359L310.273 20.1795C310.273 20.1197 310.247 20.094 310.187 20.094L309.087 20.094C309.026 20.094 309 20.1197 309 20.1795L309 25.8205Z" fill="#1A1A1A"/>
<path d="M314.71 24.5897C315.013 25.5128 315.81 26 316.858 26C317.906 26 318.703 25.5128 319.006 24.5897C319.119 24.2479 319.171 23.7179 319.171 23C319.171 22.2821 319.119 21.7521 319.006 21.4103C318.703 20.4872 317.906 20 316.858 20C315.81 20 315.013 20.4872 314.71 21.4103C314.597 21.7521 314.545 22.2821 314.545 23C314.545 23.7179 314.597 24.2479 314.71 24.5897ZM317.785 24.2479C317.646 24.6752 317.334 24.8889 316.858 24.8889C316.381 24.8889 316.07 24.6752 315.931 24.2479C315.87 24.0598 315.836 23.641 315.836 23C315.836 22.359 315.87 21.9402 315.931 21.7521C316.07 21.3248 316.381 21.1111 316.858 21.1111C317.334 21.1111 317.646 21.3248 317.785 21.7521C317.845 21.9402 317.88 22.359 317.88 23C317.88 23.641 317.845 24.0598 317.785 24.2479Z" fill="#1A1A1A"/>
<path d="M322.375 26C323.05 26 323.596 25.8034 324.003 25.4188C324.419 25.0256 324.627 24.4786 324.627 23.7692L324.627 20.1795C324.627 20.1197 324.601 20.094 324.54 20.094L323.44 20.094C323.379 20.094 323.353 20.1197 323.353 20.1795L323.353 23.8034C323.353 24.4872 322.972 24.8889 322.375 24.8889C321.777 24.8889 321.387 24.4872 321.387 23.8034L321.387 20.1795C321.387 20.1197 321.361 20.094 321.301 20.094L320.201 20.094C320.14 20.094 320.114 20.1197 320.114 20.1795L320.114 23.7692C320.114 24.4786 320.322 25.0256 320.729 25.4188C321.145 25.8034 321.69 26 322.375 26Z" fill="#1A1A1A"/>
<path d="M327.767 26C329.248 26 330.08 25.265 330.08 24.1709C330.08 23.1624 329.465 22.5726 328.226 22.4103L327.914 22.3675C327.256 22.2735 326.996 22.0684 326.996 21.7265C326.996 21.3504 327.273 21.094 327.784 21.094C328.235 21.094 328.694 21.2393 329.153 21.5385C329.196 21.5641 329.239 21.5556 329.274 21.5128L329.802 20.735C329.846 20.6838 329.837 20.641 329.785 20.6068C329.257 20.2051 328.59 20 327.784 20C327.152 20 326.641 20.1624 326.26 20.4872C325.887 20.812 325.697 21.2393 325.697 21.7778C325.697 22.7692 326.32 23.3504 327.559 23.5214L327.871 23.5641C328.538 23.6581 328.78 23.8462 328.78 24.2137C328.78 24.6325 328.417 24.906 327.819 24.906C327.299 24.906 326.788 24.7094 326.277 24.3077C326.225 24.265 326.182 24.2735 326.147 24.3162L325.489 25.0598C325.446 25.1111 325.454 25.1624 325.498 25.2051C325.731 25.4359 326.061 25.6239 326.476 25.7778C326.892 25.9231 327.325 26 327.767 26Z" fill="#1A1A1A"/>
<path d="M330.874 25.8205C330.874 25.8803 330.9 25.906 330.961 25.906L334.737 25.906C334.798 25.906 334.824 25.8803 334.824 25.8205L334.824 24.906C334.824 24.8462 334.798 24.8205 334.737 24.8205L332.199 24.8205C332.165 24.8205 332.147 24.8034 332.147 24.7692L332.147 23.5641C332.147 23.5299 332.165 23.5128 332.199 23.5128L334.313 23.5128C334.373 23.5128 334.399 23.4872 334.399 23.4274L334.399 22.5214C334.399 22.4615 334.373 22.4359 334.313 22.4359L332.199 22.4359C332.165 22.4359 332.147 22.4188 332.147 22.3846L332.147 21.2308C332.147 21.1966 332.165 21.1795 332.199 21.1795L334.737 21.1795C334.798 21.1795 334.824 21.1538 334.824 21.094L334.824 20.1795C334.824 20.1197 334.798 20.094 334.737 20.094L330.961 20.094C330.9 20.094 330.874 20.1197 330.874 20.1795L330.874 25.8205Z" fill="#1A1A1A"/>
<path d="M340.125 25.906C340.185 25.906 340.211 25.8803 340.211 25.8205L340.211 21.265C340.211 21.2308 340.229 21.2137 340.263 21.2137L341.753 21.2137C341.814 21.2137 341.84 21.188 341.84 21.1282L341.84 20.1795C341.84 20.1197 341.814 20.094 341.753 20.094L337.396 20.094C337.336 20.094 337.31 20.1197 337.31 20.1795L337.31 21.1282C337.31 21.188 337.336 21.2137 337.396 21.2137L338.886 21.2137C338.921 21.2137 338.938 21.2308 338.938 21.265L338.938 25.8205C338.938 25.8803 338.964 25.906 339.025 25.906L340.125 25.906Z" fill="#1A1A1A"/>
<path d="M342.547 25.8205C342.547 25.8803 342.573 25.906 342.634 25.906L346.41 25.906C346.471 25.906 346.497 25.8803 346.497 25.8205L346.497 24.906C346.497 24.8462 346.471 24.8205 346.41 24.8205L343.872 24.8205C343.838 24.8205 343.82 24.8034 343.82 24.7692L343.82 23.5641C343.82 23.5299 343.838 23.5128 343.872 23.5128L345.986 23.5128C346.046 23.5128 346.072 23.4872 346.072 23.4274L346.072 22.5214C346.072 22.4615 346.046 22.4359 345.986 22.4359L343.872 22.4359C343.838 22.4359 343.82 22.4188 343.82 22.3846L343.82 21.2308C343.82 21.1966 343.838 21.1795 343.872 21.1795L346.41 21.1795C346.471 21.1795 346.497 21.1538 346.497 21.094L346.497 20.1795C346.497 20.1197 346.471 20.094 346.41 20.094L342.634 20.094C342.573 20.094 342.547 20.1197 342.547 20.1795L342.547 25.8205Z" fill="#1A1A1A"/>
<path d="M347.453 24.5726C347.765 25.5043 348.51 26 349.549 26C350.545 26 351.264 25.5299 351.602 24.7094C351.628 24.6581 351.619 24.6239 351.559 24.6068L350.615 24.188C350.563 24.1624 350.519 24.1709 350.493 24.2308C350.303 24.6667 349.991 24.8889 349.558 24.8889C349.108 24.8889 348.813 24.6752 348.674 24.2479C348.614 24.0513 348.579 23.641 348.579 23C348.579 22.359 348.614 21.9487 348.674 21.7521C348.813 21.3248 349.108 21.1111 349.558 21.1111C349.991 21.1111 350.303 21.3333 350.493 21.7692C350.519 21.8291 350.563 21.8376 350.615 21.812L351.559 21.3932C351.619 21.3761 351.628 21.3419 351.602 21.2906C351.264 20.4701 350.545 20 349.549 20C348.51 20 347.765 20.4957 347.453 21.4274C347.341 21.7436 347.289 22.2735 347.289 23C347.289 23.7265 347.341 24.2564 347.453 24.5726Z" fill="#1A1A1A"/>
<path d="M352.427 25.8205C352.427 25.8803 352.453 25.906 352.513 25.906L353.613 25.906C353.674 25.906 353.7 25.8803 353.7 25.8205L353.7 23.5812C353.7 23.547 353.717 23.5299 353.752 23.5299L355.675 23.5299C355.709 23.5299 355.727 23.547 355.727 23.5812L355.727 25.8205C355.727 25.8803 355.753 25.906 355.813 25.906L356.913 25.906C356.974 25.906 357 25.8803 357 25.8205L357 20.1795C357 20.1197 356.974 20.094 356.913 20.094L355.813 20.094C355.753 20.094 355.727 20.1197 355.727 20.1795L355.727 22.359C355.727 22.3932 355.709 22.4103 355.675 22.4103L353.752 22.4103C353.717 22.4103 353.7 22.3932 353.7 22.359L353.7 20.1795C353.7 20.1197 353.674 20.094 353.613 20.094L352.513 20.094C352.453 20.094 352.427 20.1197 352.427 20.1795L352.427 25.8205Z" fill="#1A1A1A"/>
<path fill-rule="evenodd" clip-rule="evenodd" d="M310.707 51.5L385.5 51.5L385.5 52.5L310.293 52.5L280.293 22.5L162.5 22.5L162.5 21.5L280.707 21.5L310.707 51.5Z" fill="#1A1A1A"/>
<path fill-rule="evenodd" clip-rule="evenodd" d="M308.707 55.5L385.5 55.5L385.5 56.5L308.293 56.5L278.293 26.5L162.5 26.5L162.5 25.5L278.707 25.5L308.707 55.5Z" fill="#1A1A1A"/>
<path d="M183 106L183 102L385 102L385 106L183 106Z" fill="#1A1A1A"/>
<path d="M162 66L162 62L385 62L385 66L162 66Z" fill="#1A1A1A"/>
<path d="M183 69L183 68L385 68L385 69L183 69Z" fill="#1A1A1A"/>
<path d="M226.011 92.024C225.963 92.192 226.011 92.264 226.179 92.264H228.771C228.939 92.264 229.035 92.192 229.083 92.024L234.315 75.656C234.363 75.488 234.315 75.416 234.147 75.416H231.531C231.363 75.416 231.267 75.488 231.219 75.656L226.011 92.024ZM236.465 92.024C236.417 92.192 236.465 92.264 236.633 92.264H239.225C239.393 92.264 239.489 92.192 239.537 92.024L244.769 75.656C244.817 75.488 244.769 75.416 244.601 75.416H241.985C241.817 75.416 241.721 75.488 241.673 75.656L236.465 92.024ZM247.518 88.928C248.19 91.04 249.918 92.264 252.438 92.264C254.958 92.264 256.686 91.04 257.358 88.928C257.598 88.208 257.718 86.504 257.718 83.84C257.718 81.176 257.598 79.472 257.358 78.752C256.686 76.64 254.958 75.416 252.438 75.416C249.918 75.416 248.19 76.64 247.518 78.752C247.278 79.472 247.158 81.176 247.158 83.84C247.158 86.504 247.278 88.208 247.518 88.928ZM250.782 88.328C250.662 87.944 250.59 86.456 250.59 83.84C250.59 81.224 250.662 79.736 250.782 79.352C251.022 78.608 251.574 78.248 252.438 78.248C253.302 78.248 253.854 78.608 254.094 79.352C254.214 79.736 254.286 81.224 254.286 83.84C254.286 86.456 254.214 87.944 254.094 88.328C253.854 89.072 253.302 89.432 252.438 89.432C251.574 89.432 251.022 89.072 250.782 88.328ZM266.854 92.264C268.726 92.264 270.238 91.712 271.366 90.632C272.518 89.528 273.094 87.992 273.094 86V75.92C273.094 75.752 273.022 75.68 272.854 75.68H269.806C269.638 75.68 269.566 75.752 269.566 75.92V86.096C269.566 88.016 268.51 89.144 266.854 89.144C265.198 89.144 264.118 88.016 264.118 86.096V75.92C264.118 75.752 264.046 75.68 263.878 75.68H260.83C260.662 75.68 260.59 75.752 260.59 75.92V86C260.59 87.992 261.166 89.528 262.294 90.632C263.446 91.712 264.958 92.264 266.854 92.264ZM281.794 92.264C285.898 92.264 288.202 90.2 288.202 87.128C288.202 84.296 286.498 82.64 283.066 82.184L282.202 82.064C280.378 81.8 279.658 81.224 279.658 80.264C279.658 79.208 280.426 78.488 281.842 78.488C283.09 78.488 284.362 78.896 285.634 79.736C285.754 79.808 285.874 79.784 285.97 79.664L287.434 77.48C287.554 77.336 287.53 77.216 287.386 77.12C285.922 75.992 284.074 75.416 281.842 75.416C280.09 75.416 278.674 75.872 277.618 76.784C276.586 77.696 276.058 78.896 276.058 80.408C276.058 83.192 277.786 84.824 281.218 85.304L282.082 85.424C283.93 85.688 284.602 86.216 284.602 87.248C284.602 88.424 283.594 89.192 281.938 89.192C280.498 89.192 279.082 88.64 277.666 87.512C277.522 87.392 277.402 87.416 277.306 87.536L275.482 89.624C275.362 89.768 275.386 89.912 275.506 90.032C276.154 90.68 277.066 91.208 278.218 91.64C279.37 92.048 280.57 92.264 281.794 92.264ZM290.236 88.52C290.692 90.848 292.732 92.264 295.54 92.264C297.1 92.264 298.372 91.808 299.356 90.896C300.364 89.96 300.868 88.76 300.868 87.296C300.868 85.304 299.884 83.888 298.732 83.336V83.288C299.956 82.496 300.556 81.368 300.556 79.928C300.556 77.24 298.66 75.416 295.516 75.416C292.708 75.416 290.788 76.928 290.404 79.16C290.38 79.304 290.428 79.4 290.596 79.424L293.212 79.928C293.356 79.952 293.452 79.904 293.5 79.76C293.764 78.752 294.388 78.248 295.348 78.248C296.5 78.248 297.196 79.016 297.196 80.168C297.196 81.416 296.404 82.208 295.18 82.208H294.532C294.364 82.208 294.292 82.28 294.292 82.448V84.776C294.292 84.944 294.364 85.016 294.532 85.016H295.228C296.644 85.016 297.508 85.88 297.508 87.32C297.508 88.568 296.716 89.432 295.492 89.432C294.412 89.432 293.692 88.928 293.356 87.896C293.308 87.752 293.212 87.68 293.068 87.704L290.428 88.208C290.26 88.256 290.212 88.352 290.236 88.52ZM315.802 92C315.97 92 316.042 91.928 316.042 91.76V78.968C316.042 78.872 316.09 78.824 316.186 78.824H320.314C320.482 78.824 320.554 78.752 320.554 78.584V75.92C320.554 75.752 320.482 75.68 320.314 75.68H308.242C308.074 75.68 308.002 75.752 308.002 75.92V78.584C308.002 78.752 308.074 78.824 308.242 78.824H312.37C312.466 78.824 312.514 78.872 312.514 78.968V91.76C312.514 91.928 312.586 92 312.754 92H315.802ZM322.345 88.52C322.801 90.848 324.841 92.264 327.649 92.264C329.209 92.264 330.481 91.808 331.465 90.896C332.473 89.96 332.977 88.76 332.977 87.296C332.977 85.304 331.993 83.888 330.841 83.336V83.288C332.065 82.496 332.665 81.368 332.665 79.928C332.665 77.24 330.769 75.416 327.625 75.416C324.817 75.416 322.897 76.928 322.513 79.16C322.489 79.304 322.537 79.4 322.705 79.424L325.321 79.928C325.465 79.952 325.561 79.904 325.609 79.76C325.873 78.752 326.497 78.248 327.457 78.248C328.609 78.248 329.305 79.016 329.305 80.168C329.305 81.416 328.513 82.208 327.289 82.208H326.641C326.473 82.208 326.401 82.28 326.401 82.448V84.776C326.401 84.944 326.473 85.016 326.641 85.016H327.337C328.753 85.016 329.617 85.88 329.617 87.32C329.617 88.568 328.825 89.432 327.601 89.432C326.521 89.432 325.801 88.928 325.465 87.896C325.417 87.752 325.321 87.68 325.177 87.704L322.537 88.208C322.369 88.256 322.321 88.352 322.345 88.52ZM335.873 88.256C336.737 90.872 338.801 92.264 341.681 92.264C344.441 92.264 346.433 90.944 347.369 88.64C347.441 88.496 347.417 88.4 347.249 88.352L344.633 87.176C344.489 87.104 344.369 87.128 344.297 87.296C343.769 88.52 342.905 89.144 341.705 89.144C340.457 89.144 339.641 88.544 339.257 87.344C339.089 86.792 338.993 85.64 338.993 83.84C338.993 82.04 339.089 80.888 339.257 80.336C339.641 79.136 340.457 78.536 341.705 78.536C342.905 78.536 343.769 79.16 344.297 80.384C344.369 80.552 344.489 80.576 344.633 80.504L347.249 79.328C347.417 79.28 347.441 79.184 347.369 79.04C346.433 76.736 344.441 75.416 341.681 75.416C338.801 75.416 336.737 76.808 335.873 79.424C335.561 80.312 335.417 81.8 335.417 83.84C335.417 85.88 335.561 87.368 335.873 88.256ZM349.246 92.024C349.198 92.192 349.246 92.264 349.414 92.264H352.006C352.174 92.264 352.27 92.192 352.318 92.024L357.55 75.656C357.598 75.488 357.55 75.416 357.382 75.416H354.766C354.598 75.416 354.502 75.488 354.454 75.656L349.246 92.024ZM359.699 92.024C359.651 92.192 359.699 92.264 359.867 92.264H362.459C362.627 92.264 362.723 92.192 362.771 92.024L368.003 75.656C368.051 75.488 368.003 75.416 367.835 75.416H365.219C365.051 75.416 364.955 75.488 364.907 75.656L359.699 92.024Z" fill="white"/>
<rect x="385.5" y="18.5" width="108" height="202" transform="rotate(90 385.5 18.5)" stroke="#1A1A1A"/>
<path d="M235.131 324.986L235.131 323.314L235.723 323.314L235.723 324.986L235.131 324.986Z" fill="#1A1A1A"/>
<path d="M275.808 322.479L275.808 320.807L276.4 320.807L276.4 322.479L275.808 322.479Z" fill="#1A1A1A"/>
<path d="M304.06 322.479L304.06 320.807L304.652 320.807L304.652 322.479L304.06 322.479Z" fill="#1A1A1A"/>
<path d="M306.723 322.479L306.723 320.807L307.314 320.807L307.314 322.479L306.723 322.479Z" fill="#1A1A1A"/>
<path d="M345.625 324.986L345.625 323.314L346.216 323.314L346.216 324.986L345.625 324.986Z" fill="#1A1A1A"/>
<path d="M339.264 324.986L339.264 323.314L339.856 323.314L339.856 324.986L339.264 324.986Z" fill="#1A1A1A"/>
<path d="M317.964 322.479L317.964 320.807L318.556 320.807L318.556 322.479L317.964 322.479Z" fill="#1A1A1A"/>
<path d="M357.162 322.479L357.162 320.807L357.754 320.807L357.754 322.479L357.162 322.479Z" fill="#1A1A1A"/>
<path d="M373.729 322.479L373.729 320.807L374.321 320.807L374.321 322.479L373.729 322.479Z" fill="#1A1A1A"/>
<path d="M358.937 322.479L358.937 320.807L370.771 320.807L370.771 322.479L358.937 322.479Z" fill="#1A1A1A"/>
<path d="M319.296 324.986L319.296 323.314L322.254 323.314L322.254 324.986L319.296 324.986Z" fill="#1A1A1A"/>
<path d="M287.494 324.986L287.494 323.314L288.085 323.314L288.085 324.986L287.494 324.986Z" fill="#1A1A1A"/>
<path d="M286.31 324.986L286.31 323.314L286.902 323.314L286.902 324.986L286.31 324.986Z" fill="#1A1A1A"/>
<path d="M284.239 324.986L284.239 323.314L284.831 323.314L284.831 324.986L284.239 324.986Z" fill="#1A1A1A"/>
<path d="M273.442 322.479L273.442 320.807L275.217 320.807L275.217 322.479L273.442 322.479Z" fill="#1A1A1A"/>
<path d="M301.694 322.479L301.694 320.807L303.469 320.807L303.469 322.479L301.694 322.479Z" fill="#1A1A1A"/>
<path d="M340.596 324.986L340.596 323.314L342.371 323.314L342.371 324.986L340.596 324.986Z" fill="#1A1A1A"/>
<path d="M233.948 324.986L233.948 323.314L234.54 323.314L234.54 324.986L233.948 324.986Z" fill="#1A1A1A"/>
<path d="M212.352 324.986L212.352 323.314L214.127 323.314L214.127 324.986L212.352 324.986Z" fill="#1A1A1A"/>
<path d="M195.49 324.986L195.49 323.314L197.265 323.314L197.265 324.986L195.49 324.986Z" fill="#1A1A1A"/>
<path d="M194.01 324.986L194.01 323.314L194.898 323.314L194.898 324.986L194.01 324.986Z" fill="#1A1A1A"/>
<path d="M271.667 322.479L271.667 320.807L272.258 320.807L272.258 322.479L271.667 322.479Z" fill="#1A1A1A"/>
<path d="M198.596 324.986L198.596 323.314L210.577 323.314L210.577 324.986L198.596 324.986Z" fill="#1A1A1A"/>
<path d="M263.309 324.986L270.705 324.986L270.705 320.807L265.775 320.807L263.309 324.986Z" fill="#1A1A1A"/>
<path d="M309.385 324.986L316.781 324.986L316.781 320.807L311.851 320.807L309.385 324.986Z" fill="#1A1A1A"/>
<path d="M348.583 324.986L355.979 324.986L353.021 320.807L351.048 320.807L348.583 324.986Z" fill="#1A1A1A"/>
<path d="M191.348 324.986L183.952 324.986L183.952 320.807L188.883 320.807L191.348 324.986Z" fill="#1A1A1A"/>
<path d="M248.74 324.986L249.923 324.986L249.923 322.479L248.74 324.568L248.74 324.986Z" fill="#1A1A1A"/>
<path d="M246.965 324.986L248.148 324.986L248.148 322.479L246.965 324.568L246.965 324.986Z" fill="#1A1A1A"/>
<path fill-rule="evenodd" clip-rule="evenodd" d="M333.2 324.986L177 324.986L177 330L191.348 330L191.348 324.986L203.181 324.986L203.181 330L204.365 330L204.365 328.329L204.956 328.329L204.956 330L205.4 330L205.4 328.329L205.992 328.329L205.992 330L226.404 330L226.404 328.329L226.996 328.329L226.996 330L241.048 330L238.09 324.986L246.965 324.986L246.965 330L260.425 330L261.756 330L261.756 328.329L263.531 328.329L263.531 330L264.123 330L264.123 328.329L265.01 328.329L265.01 330L291.044 330L288.085 324.986L294.002 324.986L294.002 330L295.333 330L295.333 324.986L296.517 324.986L296.517 330L298.292 330L298.292 324.986L299.475 324.986L299.475 330L316.781 330L316.781 324.986L317.964 324.986L317.964 330L320.775 330L320.775 328.329L322.55 328.329L322.55 330L323.141 330L323.141 328.329L323.733 328.329L323.733 330L325.804 330L325.804 328.329L326.396 328.329L326.396 330L347.4 330L347.4 326.657L346.808 326.657L346.808 324.986L348.583 324.986L348.583 330L355.683 330L355.683 328.329L356.275 328.329L356.275 330L361.896 330L361.896 328.329L362.487 328.329L362.487 330L363.079 330L363.079 328.329L363.671 328.329L363.671 330L365.594 330L365.594 324.986L373.729 324.986L373.729 330L390 330L390 324.986L333.2 324.986ZM333.2 324.986L336.158 329.164L338.13 329.164L340.596 324.986L333.2 324.986ZM361.896 328.329L361.896 326.657L358.937 326.657L358.937 328.329L361.896 328.329ZM260.425 330L248.444 330L248.444 328.329L260.425 328.329L260.425 330ZM225.221 326.657L225.221 324.986L226.996 324.986L226.996 326.657L225.221 326.657ZM182.325 324.986L182.325 326.657L182.917 326.657L182.917 324.986L182.325 324.986ZM183.36 326.657L183.36 324.986L183.952 324.986L183.952 326.657L183.36 326.657ZM222.706 326.657L222.706 324.986L223.298 324.986L223.298 326.657L222.706 326.657ZM223.742 324.986L223.742 326.657L224.333 326.657L224.333 324.986L223.742 324.986ZM300.067 326.657L300.067 328.329L300.658 328.329L300.658 326.657L300.067 326.657ZM221.671 324.986L221.671 326.657L222.262 326.657L222.262 324.986L221.671 324.986Z" fill="#1A1A1A"/>
<rect x="177.783" y="100.679" width="211.889" height="228.91" stroke="#1A1A1A" stroke-width="0.655738"/>
<rect x="380" y="97" width="5" height="30" fill="#1A1A1A"/>
<g filter="url(#filter0_d_1565_26290)">
<path d="M228 146.573L228 118.385L200 118.385L192 126.197L192 154.385L220 154.385L228 146.573Z" fill="#3D70B5"/>
<path d="M219.796 153.885L227.5 146.363L227.5 118.885L200.204 118.885L192.5 126.407L192.5 153.885L219.796 153.885Z" stroke="#EFC36E"/>
</g>
<rect width="4" height="4" transform="matrix(-1 0 0 1 212 150.385)" fill="#EFC36E"/>
<rect width="13" height="4" transform="matrix(-1 0 0 1 205 150.385)" fill="#EFC36E"/>
<rect width="4" height="4" transform="matrix(-1 0 0 1 212 118.385)" fill="#EFC36E"/>
<path d="M198.34 143.185C198.3 143.325 198.34 143.385 198.48 143.385H201.1C201.24 143.385 201.32 143.325 201.36 143.185L202.12 140.805H206.88L207.66 143.185C207.7 143.325 207.78 143.385 207.92 143.385H210.52C210.66 143.385 210.7 143.325 210.66 143.185L206.06 129.985C206.02 129.845 205.94 129.785 205.8 129.785H203.28C203.14 129.785 203.06 129.845 203.02 129.985L198.34 143.185ZM204.48 133.545H204.54L206.08 138.305H202.94L204.48 133.545ZM211.605 140.265C212.325 142.445 214.045 143.605 216.445 143.605C218.745 143.605 220.405 142.505 221.185 140.585C221.245 140.465 221.225 140.385 221.085 140.345L218.905 139.365C218.785 139.305 218.685 139.325 218.625 139.465C218.185 140.485 217.465 141.005 216.465 141.005C215.425 141.005 214.745 140.505 214.425 139.505C214.285 139.045 214.205 138.085 214.205 136.585C214.205 135.085 214.285 134.125 214.425 133.665C214.745 132.665 215.425 132.165 216.465 132.165C217.465 132.165 218.185 132.685 218.625 133.705C218.685 133.845 218.785 133.865 218.905 133.805L221.085 132.825C221.225 132.785 221.245 132.705 221.185 132.585C220.405 130.665 218.745 129.565 216.445 129.565C214.045 129.565 212.325 130.725 211.605 132.905C211.345 133.645 211.225 134.885 211.225 136.585C211.225 138.285 211.345 139.525 211.605 140.265Z" fill="#EFC36E"/>
<g filter="url(#filter1_d_1565_26290)">
<path d="M272 146.573L272 118.385L244 118.385L236 126.197L236 154.385L264 154.385L272 146.573Z" fill="#3D70B5"/>
<path d="M263.796 153.885L271.5 146.363L271.5 118.885L244.204 118.885L236.5 126.407L236.5 153.885L263.796 153.885Z" stroke="#EFC36E"/>
</g>
<rect width="4" height="4" transform="matrix(-1 0 0 1 241 149.385)" fill="#EFC36E"/>
<rect width="4" height="4" transform="matrix(-1 0 0 1 241 134.385)" fill="#EFC36E"/>
<rect width="11" height="4" transform="matrix(-1 0 0 1 271 134.385)" fill="#EFC36E"/>
<path d="M248.248 144.433C248.152 144.601 248.176 144.673 248.344 144.673H251.272C251.44 144.673 251.56 144.601 251.656 144.433L261.136 128.017C261.232 127.849 261.208 127.777 261.04 127.777H258.112C257.944 127.777 257.824 127.849 257.728 128.017L248.248 144.433Z" fill="#EFC36E"/>
<path d="M252.172 132.747C252.281 132.747 252.328 132.7 252.328 132.591L252.328 131.005C252.328 130.896 252.281 130.85 252.172 130.85L249.809 130.85C249.746 130.85 249.715 130.819 249.715 130.756L249.715 128.424C249.715 128.315 249.669 128.269 249.56 128.269L248.036 128.269C247.927 128.269 247.881 128.315 247.881 128.424L247.881 130.756C247.881 130.819 247.85 130.85 247.787 130.85L245.424 130.85C245.315 130.85 245.268 130.896 245.268 131.005L245.268 132.591C245.268 132.7 245.315 132.747 245.424 132.747L247.787 132.747C247.85 132.747 247.881 132.778 247.881 132.84L247.881 135.172C247.881 135.281 247.927 135.328 248.036 135.328L249.56 135.328C249.669 135.328 249.715 135.281 249.715 135.172L249.715 132.84C249.715 132.778 249.746 132.747 249.809 132.747L252.172 132.747Z" fill="#EFC36E"/>
<path d="M262.172 142.747C262.281 142.747 262.327 142.7 262.327 142.591L262.327 141.005C262.327 140.896 262.281 140.85 262.172 140.85C259.673 140.85 257.841 140.85 255.424 140.85C255.315 140.85 255.268 140.896 255.268 141.005L255.268 142.591C255.268 142.7 255.315 142.747 255.424 142.747C258.846 142.747 258.368 142.747 262.172 142.747Z" fill="#EFC36E"/>
<g filter="url(#filter2_d_1565_26290)">
<path d="M316 146.573L316 118.385L288 118.385L280 126.197L280 154.385L308 154.385L316 146.573Z" fill="#3D70B5"/>
<path d="M307.796 153.885L315.5 146.363L315.5 118.885L288.204 118.885L280.5 126.407L280.5 153.885L307.796 153.885Z" stroke="#EFC36E"/>
</g>
<rect width="4" height="4" transform="matrix(-1 0 0 1 285 135.385)" fill="#EFC36E"/>
<rect width="13" height="4" transform="matrix(-1 0 0 1 315 119.385)" fill="#EFC36E"/>
<rect width="4" height="4" transform="matrix(-1 0 0 1 315 139.385)" fill="#EFC36E"/>
<rect width="4" height="4" transform="matrix(-1 0 0 1 315 131.385)" fill="#EFC36E"/>
<path d="M291.248 144.433C291.152 144.601 291.176 144.673 291.344 144.673H294.272C294.44 144.673 294.56 144.601 294.656 144.433L304.136 128.017C304.232 127.849 304.208 127.777 304.04 127.777H301.112C300.944 127.777 300.824 127.849 300.728 128.017L291.248 144.433ZM288.728 134.353C289.184 135.769 290.312 136.465 292.16 136.465C294.008 136.465 295.136 135.769 295.592 134.353C295.784 133.777 295.88 133.057 295.88 132.169C295.88 131.281 295.784 130.561 295.592 129.985C295.136 128.569 294.008 127.873 292.16 127.873C290.312 127.873 289.184 128.569 288.728 129.985C288.536 130.561 288.44 131.281 288.44 132.169C288.44 133.057 288.536 133.777 288.728 134.353ZM292.616 133.921C292.496 134.329 291.824 134.329 291.704 133.921C291.656 133.753 291.632 133.177 291.632 132.169C291.632 131.161 291.656 130.585 291.704 130.417C291.824 130.009 292.496 130.009 292.616 130.417C292.664 130.585 292.688 131.161 292.688 132.169C292.688 133.177 292.664 133.753 292.616 133.921ZM299.792 142.465C300.248 143.881 301.376 144.577 303.224 144.577C305.072 144.577 306.2 143.881 306.656 142.465C306.848 141.889 306.944 141.169 306.944 140.281C306.944 139.393 306.848 138.673 306.656 138.097C306.2 136.681 305.072 135.985 303.224 135.985C301.376 135.985 300.248 136.681 299.792 138.097C299.6 138.673 299.504 139.393 299.504 140.281C299.504 141.169 299.6 141.889 299.792 142.465ZM302.768 142.033C302.72 141.865 302.696 141.289 302.696 140.281C302.696 139.297 302.72 138.697 302.768 138.529C302.888 138.121 303.56 138.121 303.68 138.529C303.728 138.697 303.752 139.273 303.752 140.281C303.752 141.289 303.728 141.865 303.68 142.033C303.56 142.441 302.888 142.441 302.768 142.033Z" fill="#EFC36E"/>
<g filter="url(#filter3_d_1565_26290)">
<path d="M360 146.573L360 118.385L332 118.385L324 126.197L324 154.385L352 154.385L360 146.573Z" fill="#3D70B5"/>
<path d="M351.796 153.885L359.5 146.363L359.5 118.885L332.204 118.885L324.5 126.407L324.5 153.885L351.796 153.885Z" stroke="#EFC36E"/>
</g>
<rect width="4" height="4" transform="matrix(-1 0 0 1 329 149.385)" fill="#EFC36E"/>
<rect width="4" height="4" transform="matrix(-1 0 0 1 359 119.385)" fill="#EFC36E"/>
<path d="M332.112 137.701C332.112 137.869 332.184 137.941 332.352 137.941L351.648 137.941C351.816 137.941 351.888 137.869 351.888 137.701L351.888 135.325C351.888 135.157 351.816 135.085 351.648 135.085L332.352 135.085C332.184 135.085 332.112 135.157 332.112 135.325L332.112 137.701Z" fill="#EFC36E"/>
<circle cx="342" cy="131" r="2" fill="#EFC36E"/>
<circle cx="342" cy="142" r="2" fill="#EFC36E"/>
<g filter="url(#filter4_d_1565_26290)">
<path d="M228 192.573L228 164.385L200 164.385L192 172.197L192 200.385L220 200.385L228 192.573Z" fill="#3D70B5"/>
<path d="M219.796 199.885L227.5 192.363L227.5 164.885L200.204 164.885L192.5 172.407L192.5 199.885L219.796 199.885Z" stroke="#EDF0F5"/>
</g>
<rect width="4" height="4" transform="matrix(-1 0 0 1 212 196.385)" fill="#EDF0F5"/>
<rect width="13" height="4" transform="matrix(-1 0 0 1 205 196.385)" fill="#EDF0F5"/>
<rect width="4" height="4" transform="matrix(-1 0 0 1 212 164.385)" fill="#EDF0F5"/>
<path d="M206.192 190.121L211.376 177.065V176.993H207.944C207.848 176.993 207.8 177.041 207.8 177.137V178.841C207.8 179.009 207.728 179.081 207.56 179.081H204.896C204.728 179.081 204.656 179.009 204.656 178.841V174.305C204.656 174.137 204.728 174.065 204.896 174.065H214.664C214.832 174.065 214.904 174.137 214.904 174.305V176.801C214.904 176.897 214.88 176.993 214.856 177.089L209.672 190.169C209.6 190.313 209.504 190.385 209.336 190.385H206.336C206.168 190.385 206.12 190.289 206.192 190.121Z" fill="#EDF0F5"/>
<g filter="url(#filter5_d_1565_26290)">
<path d="M272 192.573L272 164.385L244 164.385L236 172.197L236 200.385L264 200.385L272 192.573Z" fill="#3D70B5"/>
<path d="M263.796 199.885L271.5 192.363L271.5 164.885L244.204 164.885L236.5 172.407L236.5 199.885L263.796 199.885Z" stroke="#EDF0F5"/>
</g>
<rect width="4" height="4" transform="matrix(-1 0 0 1 241 181.385)" fill="#EDF0F5"/>
<rect width="13" height="4" transform="matrix(-1 0 0 1 271 165.385)" fill="#EDF0F5"/>
<rect width="4" height="4" transform="matrix(-1 0 0 1 271 185.385)" fill="#EDF0F5"/>
<rect width="4" height="4" transform="matrix(-1 0 0 1 271 177.385)" fill="#EDF0F5"/>
<path d="M248.152 185.681C248.152 184.025 248.8 182.753 250.096 181.865V181.817C249.232 181.217 248.512 179.993 248.512 178.553C248.512 177.233 248.968 176.105 249.904 175.193C250.84 174.257 252.088 173.801 253.672 173.801C255.256 173.801 256.504 174.257 257.44 175.193C258.376 176.105 258.832 177.233 258.832 178.553C258.832 179.993 258.112 181.217 257.248 181.817V181.865C258.544 182.753 259.192 184.025 259.192 185.681C259.192 187.169 258.664 188.369 257.632 189.281C256.6 190.193 255.28 190.649 253.672 190.649C252.064 190.649 250.744 190.193 249.712 189.281C248.68 188.369 248.152 187.169 248.152 185.681ZM255.544 178.553C255.544 177.473 254.8 176.633 253.672 176.633C252.544 176.633 251.8 177.473 251.8 178.553C251.8 179.609 252.592 180.449 253.672 180.449C254.752 180.449 255.544 179.609 255.544 178.553ZM251.464 185.537C251.464 186.881 252.352 187.817 253.672 187.817C254.992 187.817 255.88 186.881 255.88 185.537C255.88 184.217 254.992 183.281 253.672 183.281C252.352 183.281 251.464 184.217 251.464 185.537Z" fill="#EDF0F5"/>
<g filter="url(#filter6_d_1565_26290)">
<path d="M316 192.573L316 164.385L288 164.385L280 172.197L280 200.385L308 200.385L316 192.573Z" fill="#3D70B5"/>
<path d="M307.796 199.885L315.5 192.363L315.5 164.885L288.204 164.885L280.5 172.407L280.5 199.885L307.796 199.885Z" stroke="#EDF0F5"/>
</g>
<rect width="4" height="4" transform="matrix(-1 0 0 1 285 195.385)" fill="#EDF0F5"/>
<rect width="4" height="4" transform="matrix(-1 0 0 1 285 180.385)" fill="#EDF0F5"/>
<rect width="11" height="4" transform="matrix(-1 0 0 1 315 180.385)" fill="#EDF0F5"/>
<path d="M294.48 190.145L297.936 183.833L297.888 183.785C297.672 183.881 297.336 183.929 296.88 183.929C295.56 183.929 294.456 183.473 293.544 182.585C292.656 181.673 292.2 180.473 292.2 179.009C292.2 177.401 292.704 176.153 293.736 175.217C294.768 174.281 296.088 173.801 297.672 173.801C299.28 173.801 300.576 174.257 301.608 175.193C302.64 176.129 303.144 177.377 303.144 178.937C303.144 180.161 302.736 181.505 301.944 182.969L297.984 190.217C297.936 190.337 297.84 190.385 297.696 190.385H294.648C294.456 190.385 294.408 190.313 294.48 190.145ZM296.088 180.545C296.496 180.953 297.024 181.169 297.672 181.169C298.32 181.169 298.848 180.953 299.232 180.545C299.64 180.113 299.832 179.561 299.832 178.889C299.832 178.217 299.64 177.665 299.232 177.257C298.848 176.849 298.32 176.633 297.672 176.633C297.024 176.633 296.496 176.849 296.088 177.257C295.704 177.665 295.512 178.217 295.512 178.889C295.512 179.561 295.704 180.113 296.088 180.545Z" fill="#EDF0F5"/>
<g filter="url(#filter7_d_1565_26290)">
<path d="M360 192.573L360 164.385L332 164.385L324 172.197L324 200.385L352 200.385L360 192.573Z" fill="#3D70B5"/>
<path d="M351.796 199.885L359.5 192.363L359.5 164.885L332.204 164.885L324.5 172.407L324.5 199.885L351.796 199.885Z" stroke="#EFC36E"/>
</g>
<rect width="4" height="4" transform="matrix(-1 0 0 1 329 195.385)" fill="#EFC36E"/>
<rect width="4" height="4" transform="matrix(-1 0 0 1 359 165.385)" fill="#EFC36E"/>
<path d="M344.681 188.601C344.8 188.719 344.902 188.719 345.021 188.601L346.752 186.87C346.871 186.751 346.871 186.649 346.752 186.53L344.172 183.951C344.104 183.883 344.104 183.815 344.172 183.747L346.718 181.201C346.837 181.083 346.837 180.981 346.718 180.862L345.055 179.199C344.936 179.08 344.834 179.08 344.715 179.199L342.17 181.745C342.102 181.812 342.034 181.812 341.966 181.745L339.386 179.165C339.268 179.046 339.166 179.046 339.047 179.165L337.316 180.896C337.197 181.015 337.197 181.117 337.316 181.235L339.896 183.815C339.963 183.883 339.963 183.951 339.896 184.019L337.35 186.564C337.231 186.683 337.231 186.785 337.35 186.904L339.013 188.567C339.132 188.686 339.234 188.686 339.353 188.567L341.898 186.021C341.966 185.953 342.034 185.953 342.102 186.021L344.681 188.601Z" fill="#EFC36E"/>
<g filter="url(#filter8_d_1565_26290)">
<path d="M228 238.573L228 210.385L200 210.385L192 218.197L192 246.385L220 246.385L228 238.573Z" fill="#3D70B5"/>
<path d="M219.796 245.885L227.5 238.363L227.5 210.885L200.204 210.885L192.5 218.407L192.5 245.885L219.796 245.885Z" stroke="#EDF0F5"/>
</g>
<rect width="4" height="4" transform="matrix(-1 0 0 1 212 242.385)" fill="#EDF0F5"/>
<rect width="13" height="4" transform="matrix(-1 0 0 1 205 242.385)" fill="#EDF0F5"/>
<rect width="4" height="4" transform="matrix(-1 0 0 1 212 210.385)" fill="#EDF0F5"/>
<path d="M210.584 234.009H204.224C204.056 234.009 203.984 233.937 203.984 233.769V231.321C203.984 231.201 204.008 231.105 204.032 231.033L208.928 220.257C209 220.137 209.096 220.065 209.264 220.065H212.312C212.48 220.065 212.528 220.137 212.48 220.305L207.584 231.033V231.105H210.584C210.68 231.105 210.728 231.057 210.728 230.961V227.433C210.728 227.265 210.8 227.193 210.968 227.193H213.752C213.92 227.193 213.992 227.265 213.992 227.433V230.961C213.992 231.057 214.04 231.105 214.136 231.105H215.216C215.384 231.105 215.456 231.177 215.456 231.345V233.769C215.456 233.937 215.384 234.009 215.216 234.009H214.136C214.04 234.009 213.992 234.057 213.992 234.153V236.145C213.992 236.313 213.92 236.385 213.752 236.385H210.968C210.8 236.385 210.728 236.313 210.728 236.145V234.153C210.728 234.057 210.68 234.009 210.584 234.009Z" fill="#EDF0F5"/>
<g filter="url(#filter9_d_1565_26290)">
<path d="M272 238.573L272 210.385L244 210.385L236 218.197L236 246.385L264 246.385L272 238.573Z" fill="#3D70B5"/>
<path d="M263.796 245.885L271.5 238.363L271.5 210.885L244.204 210.885L236.5 218.407L236.5 245.885L263.796 245.885Z" stroke="#EDF0F5"/>
</g>
<rect width="4" height="4" transform="matrix(-1 0 0 1 241 227.385)" fill="#EDF0F5"/>
<rect width="13" height="4" transform="matrix(-1 0 0 1 271 211.385)" fill="#EDF0F5"/>
<rect width="4" height="4" transform="matrix(-1 0 0 1 271 231.385)" fill="#EDF0F5"/>
<rect width="4" height="4" transform="matrix(-1 0 0 1 271 223.385)" fill="#EDF0F5"/>
<path d="M248.752 233.049C248.728 232.905 248.776 232.809 248.944 232.785L251.536 232.281C251.68 232.257 251.776 232.329 251.824 232.473C252.16 233.361 252.784 233.817 253.72 233.817C254.608 233.817 255.184 233.433 255.424 232.665C255.544 232.329 255.616 231.801 255.616 231.081C255.616 230.337 255.544 229.809 255.424 229.473C255.184 228.729 254.608 228.345 253.72 228.345C252.928 228.345 252.376 228.657 252.064 229.281C251.992 229.449 251.896 229.521 251.752 229.521H249.184C249.016 229.521 248.944 229.449 248.944 229.281V220.305C248.944 220.137 249.016 220.065 249.184 220.065H258.304C258.472 220.065 258.544 220.137 258.544 220.305V222.681C258.544 222.849 258.472 222.921 258.304 222.921H252.04C251.944 222.921 251.896 222.969 251.896 223.065V226.281H251.968C252.544 225.777 253.36 225.513 254.416 225.513C256.6 225.513 258.016 226.425 258.616 228.273C258.832 228.969 258.952 229.905 258.952 231.057C258.952 231.993 258.832 232.857 258.592 233.601C257.944 235.545 256.144 236.649 253.768 236.649C252.4 236.649 251.248 236.313 250.336 235.665C249.424 234.993 248.896 234.129 248.752 233.049Z" fill="#EDF0F5"/>
<g filter="url(#filter10_d_1565_26290)">
<path d="M316 238.573L316 210.385L288 210.385L280 218.197L280 246.385L308 246.385L316 238.573Z" fill="#3D70B5"/>
<path d="M307.796 245.885L315.5 238.363L315.5 210.885L288.204 210.885L280.5 218.407L280.5 245.885L307.796 245.885Z" stroke="#EDF0F5"/>
</g>
<rect width="4" height="4" transform="matrix(-1 0 0 1 285 241.385)" fill="#EDF0F5"/>
<rect width="4" height="4" transform="matrix(-1 0 0 1 285 226.385)" fill="#EDF0F5"/>
<rect width="11" height="4" transform="matrix(-1 0 0 1 315 226.385)" fill="#EDF0F5"/>
<path d="M292.2 231.513C292.2 230.289 292.608 228.945 293.4 227.481L297.36 220.233C297.408 220.113 297.504 220.065 297.648 220.065H300.696C300.888 220.065 300.936 220.137 300.864 220.305L297.408 226.617L297.456 226.665C297.672 226.569 298.008 226.521 298.464 226.521C299.784 226.521 300.888 226.977 301.776 227.889C302.688 228.777 303.144 229.977 303.144 231.441C303.144 233.049 302.616 234.321 301.584 235.257C300.552 236.193 299.256 236.649 297.672 236.649C296.064 236.649 294.768 236.193 293.736 235.257C292.704 234.321 292.2 233.073 292.2 231.513ZM296.088 229.929C295.704 230.337 295.512 230.889 295.512 231.561C295.512 232.233 295.704 232.785 296.088 233.193C296.496 233.601 297.024 233.817 297.672 233.817C298.32 233.817 298.848 233.601 299.232 233.193C299.64 232.785 299.832 232.233 299.832 231.561C299.832 230.889 299.64 230.337 299.232 229.929C298.848 229.497 298.32 229.281 297.672 229.281C297.024 229.281 296.496 229.497 296.088 229.929Z" fill="#EDF0F5"/>
<g filter="url(#filter11_d_1565_26290)">
<path d="M360 238.573L360 210.385L332 210.385L324 218.197L324 246.385L352 246.385L360 238.573Z" fill="#3D70B5"/>
<path d="M351.796 245.885L359.5 238.363L359.5 210.885L332.204 210.885L324.5 218.407L324.5 245.885L351.796 245.885Z" stroke="#EFC36E"/>
</g>
<rect width="4" height="4" transform="matrix(-1 0 0 1 329 241.385)" fill="#EFC36E"/>
<rect width="4" height="4" transform="matrix(-1 0 0 1 359 211.385)" fill="#EFC36E"/>
<path d="M345.461 231.489C345.629 231.489 345.701 231.417 345.701 231.249V228.801C345.701 228.633 345.629 228.561 345.461 228.561H338.549C338.381 228.561 338.309 228.633 338.309 228.801V231.249C338.309 231.417 338.381 231.489 338.549 231.489H345.461Z" fill="#EFC36E"/>
<g filter="url(#filter12_d_1565_26290)">
<path d="M228 284.573L228 256.385L200 256.385L192 264.197L192 292.385L220 292.385L228 284.573Z" fill="#3D70B5"/>
<path d="M219.796 291.885L227.5 284.363L227.5 256.885L200.204 256.885L192.5 264.407L192.5 291.885L219.796 291.885Z" stroke="#EDF0F5"/>
</g>
<rect width="4" height="4" transform="matrix(-1 0 0 1 197 287.385)" fill="#EDF0F5"/>
<rect width="13" height="4" transform="matrix(-1 0 0 1 206 272.385)" fill="#EDF0F5"/>
<rect width="4" height="4" transform="matrix(-1 0 0 1 227 272.385)" fill="#EDF0F5"/>
<path d="M208.808 282.145V269.857H208.76L206.168 271.633C206 271.753 205.904 271.705 205.904 271.489V268.513C205.904 268.393 205.952 268.273 206.072 268.177L208.808 266.209C208.928 266.113 209.072 266.065 209.24 266.065H211.928C212.096 266.065 212.168 266.137 212.168 266.305V282.145C212.168 282.313 212.096 282.385 211.928 282.385H209.048C208.88 282.385 208.808 282.313 208.808 282.145Z" fill="#EDF0F5"/>
<g filter="url(#filter13_d_1565_26290)">
<path d="M272 284.573L272 256.385L244 256.385L236 264.197L236 292.385L264 292.385L272 284.573Z" fill="#3D70B5"/>
<path d="M263.796 291.885L271.5 284.363L271.5 256.885L244.204 256.885L236.5 264.407L236.5 291.885L263.796 291.885Z" stroke="#EDF0F5"/>
</g>
<rect width="4" height="4" transform="matrix(-1 0 0 1 256 288.385)" fill="#EDF0F5"/>
<rect width="13" height="4" transform="matrix(-1 0 0 1 249 288.385)" fill="#EDF0F5"/>
<rect width="4" height="4" transform="matrix(-1 0 0 1 256 256.385)" fill="#EDF0F5"/>
<path d="M248.584 282.145V279.913C248.584 279.793 248.632 279.673 248.704 279.577L254.44 272.761C255.088 272.017 255.4 271.273 255.4 270.505C255.4 269.377 254.704 268.633 253.624 268.633C252.496 268.633 251.848 269.281 251.704 270.553C251.704 270.721 251.608 270.769 251.44 270.745L248.8 270.313C248.632 270.289 248.584 270.193 248.608 270.025C248.704 268.849 249.208 267.841 250.12 267.025C251.032 266.209 252.232 265.801 253.744 265.801C255.256 265.801 256.48 266.233 257.392 267.121C258.304 268.009 258.76 269.113 258.76 270.457C258.76 271.825 258.208 273.145 257.104 274.417L252.808 279.481V279.529H258.52C258.688 279.529 258.76 279.601 258.76 279.769V282.145C258.76 282.313 258.688 282.385 258.52 282.385H248.824C248.656 282.385 248.584 282.313 248.584 282.145Z" fill="#EDF0F5"/>
<g filter="url(#filter14_d_1565_26290)">
<path d="M316 284.573L316 256.385L288 256.385L280 264.197L280 292.385L308 292.385L316 284.573Z" fill="#3D70B5"/>
<path d="M307.796 291.885L315.5 284.363L315.5 256.885L288.204 256.885L280.5 264.407L280.5 291.885L307.796 291.885Z" stroke="#EDF0F5"/>
</g>
<rect width="4" height="4" transform="matrix(-1 0 0 1 285 273.385)" fill="#EDF0F5"/>
<rect width="13" height="4" transform="matrix(-1 0 0 1 315 257.385)" fill="#EDF0F5"/>
<rect width="4" height="4" transform="matrix(-1 0 0 1 315 277.385)" fill="#EDF0F5"/>
<rect width="4" height="4" transform="matrix(-1 0 0 1 315 269.385)" fill="#EDF0F5"/>
<path d="M292.392 278.905C292.368 278.737 292.416 278.641 292.584 278.593L295.224 278.089C295.368 278.065 295.464 278.137 295.512 278.281C295.848 279.313 296.568 279.817 297.648 279.817C298.872 279.817 299.664 278.953 299.664 277.705C299.664 276.265 298.8 275.401 297.384 275.401H296.688C296.52 275.401 296.448 275.329 296.448 275.161V272.833C296.448 272.665 296.52 272.593 296.688 272.593H297.336C298.56 272.593 299.352 271.801 299.352 270.553C299.352 269.401 298.656 268.633 297.504 268.633C296.544 268.633 295.92 269.137 295.656 270.145C295.608 270.289 295.512 270.337 295.368 270.313L292.752 269.809C292.584 269.785 292.536 269.689 292.56 269.545C292.944 267.313 294.864 265.801 297.672 265.801C300.816 265.801 302.712 267.625 302.712 270.313C302.712 271.753 302.112 272.881 300.888 273.673V273.721C302.04 274.273 303.024 275.689 303.024 277.681C303.024 279.145 302.52 280.345 301.512 281.281C300.528 282.193 299.256 282.649 297.696 282.649C294.888 282.649 292.848 281.233 292.392 278.905Z" fill="#EDF0F5"/>
<g filter="url(#filter15_d_1565_26290)">
<path d="M360 284.573L360 256.385L332 256.385L324 264.197L324 292.385L352 292.385L360 284.573Z" fill="#3D70B5"/>
<path d="M351.796 291.885L359.5 284.363L359.5 256.885L332.204 256.885L324.5 264.407L324.5 291.885L351.796 291.885Z" stroke="#EFC36E"/>
</g>
<rect width="4" height="4" transform="matrix(-1 0 0 1 329 287.385)" fill="#EFC36E"/>
<rect width="4" height="4" transform="matrix(-1 0 0 1 359 257.385)" fill="#EFC36E"/>
<path d="M340.208 280.969C340.208 281.137 340.28 281.209 340.448 281.209H342.896C343.064 281.209 343.136 281.137 343.136 280.969V277.321C343.136 277.225 343.184 277.177 343.28 277.177H346.88C347.048 277.177 347.12 277.105 347.12 276.937V274.585C347.12 274.417 347.048 274.345 346.88 274.345H343.28C343.184 274.345 343.136 274.297 343.136 274.201V270.553C343.136 270.385 343.064 270.313 342.896 270.313H340.448C340.28 270.313 340.208 270.385 340.208 270.553V274.201C340.208 274.297 340.16 274.345 340.064 274.345H336.464C336.296 274.345 336.224 274.417 336.224 274.585V276.937C336.224 277.105 336.296 277.177 336.464 277.177H340.064C340.16 277.177 340.208 277.225 340.208 277.321V280.969Z" fill="#EFC36E"/>
<g filter="url(#filter16_d_1565_26290)">
<path d="M272 330.573L272 302.385L200 302.385L192 310.197L192 338.385L264 338.385L272 330.573Z" fill="#3D70B5"/>
<path d="M263.796 337.885L271.5 330.363L271.5 302.885L200.204 302.885L192.5 310.407L192.5 337.885L263.796 337.885Z" stroke="#EDF0F5"/>
</g>
<rect width="4" height="4" transform="matrix(-1 0 0 1 212 334.385)" fill="#EDF0F5"/>
<rect width="13" height="4" transform="matrix(-1 0 0 1 205 334.385)" fill="#EDF0F5"/>
<rect width="4" height="4" transform="matrix(-1 0 0 1 212 302.385)" fill="#EDF0F5"/>
<path d="M204.752 325.313C204.512 324.593 204.392 322.889 204.392 320.225C204.392 317.561 204.512 315.857 204.752 315.137C205.424 313.025 207.152 311.801 209.672 311.801C212.192 311.801 213.92 313.025 214.592 315.137C214.832 315.857 214.952 317.561 214.952 320.225C214.952 322.889 214.832 324.593 214.592 325.313C213.92 327.425 212.192 328.649 209.672 328.649C207.152 328.649 205.424 327.425 204.752 325.313ZM208.016 324.713C208.256 325.457 208.808 325.817 209.672 325.817C210.536 325.817 211.088 325.457 211.328 324.713C211.448 324.329 211.52 322.841 211.52 320.225C211.52 317.609 211.448 316.121 211.328 315.737C211.088 314.993 210.536 314.633 209.672 314.633C208.808 314.633 208.256 314.993 208.016 315.737C207.896 316.121 207.824 317.609 207.824 320.225C207.824 322.841 207.896 324.329 208.016 324.713Z" fill="#EDF0F5"/>
<g filter="url(#filter17_d_1565_26290)">
<path d="M316 330.573L316 302.385L288 302.385L280 310.197L280 338.385L308 338.385L316 330.573Z" fill="#3D70B5"/>
<path d="M307.796 337.885L315.5 330.363L315.5 302.885L288.204 302.885L280.5 310.407L280.5 337.885L307.796 337.885Z" stroke="#EDF0F5"/>
</g>
<rect width="4" height="4" transform="matrix(-1 0 0 1 285 319.385)" fill="#EDF0F5"/>
<rect width="13" height="4" transform="matrix(-1 0 0 1 315 303.385)" fill="#EDF0F5"/>
<rect width="4" height="4" transform="matrix(-1 0 0 1 315 323.385)" fill="#EDF0F5"/>
<rect width="4" height="4" transform="matrix(-1 0 0 1 315 315.385)" fill="#EDF0F5"/>
<path d="M292.44 328.145V325.265C292.44 325.097 292.512 325.025 292.68 325.025H295.536C295.704 325.025 295.776 325.097 295.776 325.265V328.145C295.776 328.313 295.704 328.385 295.536 328.385H292.68C292.512 328.385 292.44 328.313 292.44 328.145Z" fill="#EDF0F5"/>
<g filter="url(#filter18_d_1565_26290)">
<path d="M360 330.573L360 302.385L332 302.385L324 310.197L324 338.385L352 338.385L360 330.573Z" fill="#3D70B5"/>
<path d="M351.796 337.885L359.5 330.363L359.5 302.885L332.204 302.885L324.5 310.407L324.5 337.885L351.796 337.885Z" stroke="#EFC36E"/>
</g>
<rect width="4" height="4" transform="matrix(-1 0 0 1 329 333.385)" fill="#EFC36E"/>
<rect width="4" height="4" transform="matrix(-1 0 0 1 359 303.385)" fill="#EFC36E"/>
<path d="M346.88 320.657C347.048 320.657 347.12 320.585 347.12 320.417V318.065C347.12 317.897 347.048 317.825 346.88 317.825H336.464C336.296 317.825 336.224 317.897 336.224 318.065V320.417C336.224 320.585 336.296 320.657 336.464 320.657H346.88ZM346.88 325.697C347.048 325.697 347.12 325.625 347.12 325.457V323.105C347.12 322.937 347.048 322.865 346.88 322.865H336.464C336.296 322.865 336.224 322.937 336.224 323.105V325.457C336.224 325.625 336.296 325.697 336.464 325.697H346.88Z" fill="#EFC36E"/>
<rect x="95" y="127" width="8" height="24" fill="#1A1A1A"/>
<rect x="111" y="127" width="8" height="8" fill="#1A1A1A"/>
<rect x="52" y="19" width="8" height="8" fill="#EFC36E"/>
<rect x="470" y="225" width="8" height="8" fill="#1A1A1A"/>
<rect x="423" y="309" width="4" height="4" fill="#EFC36E"/>
<rect x="32" y="221" width="16" height="4" fill="#EFC36E"/>
<rect x="48" y="227" width="4" height="4" fill="#EFC36E"/>
<rect x="423" y="73" width="2" height="2" fill="#EFC36E"/>
<rect x="431" y="73" width="4" height="4" fill="#EFC36E"/>
<rect x="127" y="127" width="4" height="24" fill="#1A1A1A"/>
<rect x="217" y="206" width="2" height="96" transform="rotate(90 217 206)" fill="#1A1A1A"/>
<rect x="498" y="216" width="2" height="24" transform="rotate(90 498 216)" fill="#1A1A1A"/>
<path d="M121.08 264.168C121.024 264.152 121 264.168 121 264.224L121 265C121 265.056 121.024 265.088 121.08 265.104L122.136 265.464L122.136 267.512L121.08 267.872C121.024 267.888 121 267.92 121 267.976L121 268.76C121 268.816 121.024 268.832 121.08 268.816L126.36 266.976C126.416 266.96 126.44 266.928 126.44 266.872L126.44 266.136C126.44 266.08 126.416 266.048 126.36 266.032L121.08 264.168ZM125.088 266.48L125.088 266.504L122.976 267.224L122.976 265.752L125.088 266.48ZM121.08 270.913C121.024 270.913 121 270.937 121 270.993L121 271.729C121 271.785 121.024 271.809 121.08 271.809L126.36 271.81C126.416 271.81 126.44 271.785 126.44 271.729L126.44 271.049C126.44 270.993 126.424 270.946 126.392 270.905L125.76 270.033C125.728 269.993 125.688 269.977 125.648 269.977L124.832 269.977C124.76 269.977 124.744 270.009 124.784 270.065L125.368 270.897L125.368 270.913L121.08 270.913ZM121.088 274.44C121.032 274.416 121 274.432 121 274.488L121 275.248C121 275.296 121.024 275.328 121.072 275.352L125.592 277.152C125.632 277.168 125.68 277.176 125.736 277.176L126.36 277.176C126.416 277.176 126.44 277.152 126.44 277.096L126.44 274.048C126.44 273.992 126.416 273.968 126.36 273.968L124.968 273.968C124.912 273.968 124.888 273.992 124.888 274.048L124.888 274.736C124.888 274.792 124.912 274.816 124.968 274.816L125.592 274.816C125.624 274.816 125.64 274.832 125.64 274.864L125.64 276.216L125.616 276.216L121.088 274.44ZM121.08 280.209C121.024 280.209 121 280.233 121 280.289L121 282.233C121 283.185 121.4 283.785 122.208 284.049C122.488 284.137 122.992 284.185 123.72 284.185C124.448 284.185 124.952 284.137 125.232 284.049C126.04 283.785 126.44 283.185 126.44 282.233L126.44 280.289C126.44 280.233 126.416 280.209 126.36 280.209L121.08 280.209ZM125.544 281.153C125.576 281.153 125.592 281.169 125.592 281.201L125.592 282.009C125.592 282.609 125.36 282.985 124.904 283.137C124.728 283.201 124.336 283.233 123.72 283.233C123.104 283.233 122.712 283.201 122.536 283.137C122.08 282.985 121.848 282.609 121.848 282.009L121.848 281.201C121.848 281.169 121.864 281.153 121.896 281.153L125.544 281.153ZM121.08 285.201C121.024 285.201 121 285.225 121 285.281L121 288.337C121 288.393 121.024 288.417 121.08 288.417L121.72 288.417C121.776 288.417 121.8 288.393 121.8 288.337L121.8 286.321L121.816 286.321L123.736 287.905C124.144 288.249 124.568 288.417 125.008 288.417C125.448 288.417 125.808 288.273 126.096 287.985C126.384 287.705 126.528 287.313 126.528 286.817C126.528 286.337 126.4 285.953 126.144 285.673C125.888 285.393 125.584 285.241 125.224 285.201C125.168 285.193 125.136 285.209 125.128 285.265L124.984 285.969C124.976 286.017 124.992 286.049 125.048 286.057C125.472 286.113 125.728 286.369 125.728 286.793C125.728 287.241 125.424 287.513 125.008 287.513C124.744 287.513 124.464 287.393 124.176 287.161L121.784 285.241C121.76 285.217 121.72 285.201 121.68 285.201L121.08 285.201ZM122.08 289.504C121.344 289.672 120.912 290.32 120.912 291.184C120.912 291.68 121.064 292.088 121.368 292.408C121.672 292.728 122.072 292.888 122.56 292.888C123.208 292.888 123.72 292.528 123.88 292.168L123.896 292.168C124.16 292.576 124.536 292.776 125.024 292.776C125.92 292.776 126.528 292.168 126.528 291.176C126.528 290.32 126.04 289.704 125.368 289.576C125.312 289.568 125.28 289.584 125.272 289.64L125.112 290.32C125.104 290.368 125.12 290.4 125.168 290.416C125.544 290.52 125.728 290.768 125.728 291.144C125.728 291.592 125.432 291.872 124.992 291.872C124.512 291.872 124.2 291.56 124.2 291.08L124.2 290.864C124.2 290.808 124.176 290.784 124.12 290.784L123.488 290.784C123.432 290.784 123.408 290.808 123.408 290.864L123.408 291.096C123.408 291.64 123.064 291.984 122.52 291.984C122.04 291.984 121.712 291.672 121.712 291.184C121.712 290.768 121.904 290.496 122.288 290.36C122.336 290.344 122.352 290.312 122.344 290.264L122.184 289.568C122.168 289.512 122.136 289.496 122.08 289.504ZM112.08 264.504C111.344 264.672 110.912 265.32 110.912 266.184C110.912 266.68 111.064 267.088 111.368 267.408C111.672 267.728 112.072 267.888 112.56 267.888C113.208 267.888 113.72 267.528 113.88 267.168L113.896 267.168C114.16 267.576 114.536 267.776 115.024 267.776C115.92 267.776 116.528 267.168 116.528 266.176C116.528 265.32 116.04 264.704 115.368 264.576C115.312 264.568 115.28 264.584 115.272 264.64L115.112 265.32C115.104 265.368 115.12 265.4 115.168 265.416C115.544 265.52 115.728 265.768 115.728 266.144C115.728 266.592 115.432 266.872 114.992 266.872C114.512 266.872 114.2 266.56 114.2 266.08L114.2 265.864C114.2 265.808 114.176 265.784 114.12 265.784L113.488 265.784C113.432 265.784 113.408 265.808 113.408 265.864L113.408 266.096C113.408 266.64 113.064 266.984 112.52 266.984C112.04 266.984 111.712 266.672 111.712 266.184C111.712 265.768 111.904 265.496 112.288 265.36C112.336 265.344 112.352 265.312 112.344 265.264L112.184 264.568C112.168 264.512 112.136 264.496 112.08 264.504ZM111.08 268.983C111.024 268.983 111 269.007 111 269.063L111 272.119C111 272.175 111.024 272.199 111.08 272.199L111.72 272.199C111.776 272.199 111.8 272.175 111.8 272.119L111.8 270.103L111.816 270.103L113.736 271.687C114.144 272.031 114.568 272.199 115.008 272.199C115.448 272.199 115.808 272.055 116.096 271.767C116.384 271.487 116.528 271.095 116.528 270.599C116.528 270.119 116.4 269.735 116.144 269.455C115.888 269.175 115.584 269.023 115.224 268.983C115.168 268.975 115.136 268.991 115.128 269.047L114.984 269.751C114.976 269.799 114.992 269.831 115.048 269.839C115.472 269.895 115.728 270.151 115.728 270.575C115.728 271.023 115.424 271.295 115.008 271.295C114.744 271.295 114.464 271.175 114.176 270.943L111.784 269.023C111.76 268.999 111.72 268.983 111.68 268.983L111.08 268.983ZM111.08 273.381C111.024 273.381 111 273.405 111 273.461L111 274.245C111 274.301 111.024 274.325 111.08 274.325L113.272 274.325C113.304 274.325 113.32 274.341 113.32 274.373L113.32 276.445C113.32 276.477 113.304 276.493 113.272 276.493L111.08 276.493C111.024 276.493 111 276.517 111 276.573L111 277.357C111 277.413 111.024 277.437 111.08 277.437L116.36 277.437C116.416 277.437 116.44 277.413 116.44 277.357L116.44 276.573C116.44 276.517 116.416 276.493 116.36 276.493L114.216 276.493C114.184 276.493 114.168 276.477 114.168 276.445L114.168 274.373C114.168 274.341 114.184 274.325 114.216 274.325L116.36 274.325C116.416 274.325 116.44 274.301 116.44 274.245L116.44 273.461C116.44 273.405 116.416 273.381 116.36 273.381L111.08 273.381ZM110.44 283.866L110.44 279.93L109.912 279.93L109.912 283.866L110.44 283.866ZM110.992 284.323C110.936 284.307 110.912 284.323 110.912 284.379L110.912 284.979C110.912 285.035 110.936 285.067 110.992 285.083L116.448 286.859C116.504 286.875 116.528 286.859 116.528 286.803L116.528 286.203C116.528 286.147 116.504 286.115 116.448 286.099L110.992 284.323ZM110.992 287.722C110.936 287.706 110.912 287.722 110.912 287.778L110.912 288.378C110.912 288.434 110.936 288.466 110.992 288.482L116.448 290.258C116.504 290.274 116.528 290.258 116.528 290.202L116.528 289.602C116.528 289.546 116.504 289.514 116.448 289.498L110.992 287.722Z" fill="#EFC36E"/>
<path d="M417.42 20.1C417.476 20.1 417.5 20.124 417.5 20.18L417.5 20.964C417.5 21.02 417.476 21.044 417.42 21.044L415.228 21.044C415.196 21.044 415.18 21.06 415.18 21.092L415.18 23.164C415.18 23.196 415.196 23.212 415.228 23.212L417.42 23.212C417.476 23.212 417.5 23.236 417.5 23.292L417.5 24.076C417.5 24.132 417.476 24.156 417.42 24.156L412.14 24.156C412.084 24.156 412.06 24.132 412.06 24.076L412.06 23.292C412.06 23.236 412.084 23.212 412.14 23.212L414.284 23.212C414.316 23.212 414.332 23.196 414.332 23.164L414.332 21.092C414.332 21.06 414.316 21.044 414.284 21.044L412.14 21.044C412.084 21.044 412.06 21.02 412.06 20.964L412.06 20.18C412.06 20.124 412.084 20.1 412.14 20.1L417.42 20.1ZM417.5 27.3498C417.5 27.4058 417.476 27.4298 417.42 27.4298L412.956 27.4298C412.924 27.4298 412.908 27.4458 412.908 27.4778L412.908 28.9018C412.908 28.9578 412.884 28.9818 412.828 28.9818L412.14 28.9818C412.084 28.9818 412.06 28.9578 412.06 28.9018L412.06 25.0138C412.06 24.9578 412.084 24.9338 412.14 24.9338L412.828 24.9338C412.884 24.9338 412.908 24.9578 412.908 25.0138L412.908 26.4378C412.908 26.4698 412.924 26.4858 412.956 26.4858L417.42 26.4858C417.476 26.4858 417.5 26.5098 417.5 26.5658L417.5 27.3498ZM416.524 29.8042C417.236 30.0282 417.588 30.5402 417.588 31.3482C417.588 32.1482 417.236 32.6682 416.524 32.9002C416.292 32.9722 415.708 33.0122 414.78 33.0122C413.852 33.0123 413.268 32.9723 413.036 32.9003C412.324 32.6683 411.972 32.1483 411.972 31.3483C411.972 30.5402 412.324 30.0282 413.036 29.8042C413.268 29.7322 413.852 29.6922 414.78 29.6922C415.708 29.6922 416.292 29.7322 416.524 29.8042ZM416.356 30.6842C416.212 30.6362 415.684 30.6122 414.78 30.6122C413.876 30.6122 413.348 30.6362 413.204 30.6842C412.916 30.7882 412.772 31.0042 412.772 31.3483C412.772 31.6922 412.916 31.9163 413.204 32.0202C413.348 32.0683 413.876 32.0922 414.78 32.0922C415.684 32.0922 416.212 32.0682 416.356 32.0202C416.644 31.9162 416.788 31.6922 416.788 31.3482C416.788 31.0042 416.644 30.7882 416.356 30.6842ZM417.42 35.5229C417.476 35.5229 417.5 35.5469 417.5 35.6029L417.5 36.3389C417.5 36.3949 417.476 36.4189 417.42 36.4189L412.14 36.4189C412.084 36.4189 412.06 36.3949 412.06 36.3389L412.06 35.6589C412.06 35.6029 412.076 35.5549 412.108 35.5149L412.74 34.6429C412.772 34.6029 412.812 34.5869 412.852 34.5869L413.668 34.5869C413.74 34.5869 413.756 34.6189 413.716 34.6749L413.132 35.5069L413.132 35.5229L417.42 35.5229ZM427.5 20.5C427.5 20.556 427.476 20.588 427.42 20.604L426.364 20.964L426.364 23.012L427.42 23.372C427.476 23.388 427.5 23.42 427.5 23.476L427.5 24.26C427.5 24.316 427.476 24.332 427.42 24.316L422.14 22.476C422.084 22.46 422.06 22.428 422.06 22.372L422.06 21.636C422.06 21.58 422.084 21.548 422.14 21.532L427.42 19.668C427.476 19.652 427.5 19.668 427.5 19.724L427.5 20.5ZM423.412 21.98L423.412 22.004L425.524 22.724L425.524 21.252L423.412 21.98ZM427.5 27.0615C427.5 28.2695 426.964 28.9335 425.9 28.9335C425.284 28.9335 424.836 28.5895 424.684 28.2055L424.652 28.2055C424.428 28.6295 424.044 28.8375 423.508 28.8375C422.612 28.8375 422.06 28.2615 422.06 27.1415L422.06 25.1175C422.06 25.0615 422.084 25.0375 422.14 25.0375L427.42 25.0375C427.476 25.0375 427.5 25.0615 427.5 25.1175L427.5 27.0615ZM426.668 26.0295C426.668 25.9975 426.652 25.9815 426.62 25.9815L425.204 25.9815C425.172 25.9815 425.156 25.9975 425.156 26.0295L425.156 27.1655C425.156 27.6855 425.452 27.9895 425.908 27.9895C426.364 27.9895 426.668 27.6855 426.668 27.1655L426.668 26.0295ZM424.324 26.0295C424.324 25.9975 424.308 25.9815 424.276 25.9815L422.94 25.9815C422.908 25.9815 422.892 25.9975 422.892 26.0295L422.892 27.1175C422.892 27.5975 423.172 27.8935 423.612 27.8935C424.036 27.8935 424.324 27.5975 424.324 27.1175L424.324 26.0295ZM427.5 30.7129C427.5 30.7529 427.484 30.7849 427.444 30.8089L423.676 33.0889L423.676 33.1129L427.42 33.1129C427.476 33.1129 427.5 33.1369 427.5 33.1929L427.5 33.9769C427.5 34.0329 427.476 34.0569 427.42 34.0569L422.132 34.0569C422.084 34.0569 422.06 34.0329 422.06 33.9769L422.06 33.2409C422.06 33.1929 422.076 33.1609 422.108 33.1449L425.868 30.8649L425.868 30.8409L422.132 30.8409C422.084 30.8409 422.06 30.8169 422.06 30.7689L422.06 29.9769C422.06 29.9209 422.084 29.8969 422.132 29.8969L427.42 29.8969C427.476 29.8969 427.5 29.9209 427.5 29.9769L427.5 30.7129ZM427.5 37.2482C427.5 37.3042 427.476 37.3282 427.42 37.3282L422.956 37.3282C422.924 37.3282 422.908 37.3442 422.908 37.3762L422.908 38.8002C422.908 38.8562 422.884 38.8802 422.828 38.8802L422.14 38.8802C422.084 38.8802 422.06 38.8562 422.06 38.8002L422.06 34.9122C422.06 34.8562 422.084 34.8322 422.14 34.8322L422.828 34.8322C422.884 34.8322 422.908 34.8562 422.908 34.9122L422.908 36.3362C422.908 36.3682 422.924 36.3842 422.956 36.3842L427.42 36.3842C427.476 36.3842 427.5 36.4082 427.5 36.4642L427.5 37.2482ZM427.5 40.5187C427.5 40.5747 427.476 40.5987 427.42 40.5987L425.212 40.5987C425.18 40.5987 425.164 40.6147 425.164 40.6467L425.164 41.2307C425.164 41.5667 425.332 41.7987 425.66 41.9347L426.692 42.3427C427.276 42.5747 427.532 42.9107 427.532 43.4547L427.532 43.8467C427.532 43.9027 427.508 43.9267 427.452 43.9267L426.756 43.9267C426.708 43.9267 426.684 43.9027 426.684 43.8467L426.684 43.7267C426.684 43.4147 426.604 43.3267 426.252 43.1987L425.292 42.8227C424.948 42.6867 424.748 42.4947 424.692 42.2467L424.66 42.2467C424.58 42.4467 424.356 42.6227 423.98 42.7667L423.268 43.0467C422.948 43.1747 422.86 43.2787 422.86 43.5747L422.86 43.6787C422.86 43.7347 422.836 43.7587 422.788 43.7587L422.108 43.7587C422.052 43.7587 422.028 43.7347 422.028 43.6787L422.028 43.3507C422.028 42.8147 422.268 42.4867 422.852 42.2547L423.772 41.8867C424.132 41.7427 424.316 41.5107 424.316 41.1827L424.316 40.6467C424.316 40.6147 424.3 40.5987 424.268 40.5987L422.14 40.5987C422.084 40.5987 422.06 40.5747 422.06 40.5187L422.06 39.7347C422.06 39.6787 422.084 39.6547 422.14 39.6547L427.42 39.6547C427.476 39.6547 427.5 39.6787 427.5 39.7347L427.5 40.5187ZM427.5 48.2052C427.5 48.2612 427.476 48.2852 427.42 48.2852L426.732 48.2852C426.676 48.2852 426.652 48.2612 426.652 48.2052L426.652 45.7092C426.652 45.6772 426.636 45.6612 426.604 45.6612L425.228 45.6612C425.196 45.6612 425.18 45.6772 425.18 45.7092L425.18 47.8132C425.18 47.8692 425.156 47.8932 425.1 47.8932L424.412 47.8932C424.356 47.8932 424.332 47.8692 424.332 47.8132L424.332 45.7092C424.332 45.6772 424.316 45.6612 424.284 45.6612L422.956 45.6612C422.924 45.6612 422.908 45.6772 422.908 45.7092L422.908 48.2052C422.908 48.2612 422.884 48.2852 422.828 48.2852L422.14 48.2852C422.084 48.2852 422.06 48.2612 422.06 48.2052L422.06 44.7972C422.06 44.7412 422.084 44.7172 422.14 44.7172L427.42 44.7172C427.476 44.7172 427.5 44.7412 427.5 44.7972L427.5 48.2052ZM427.5 50.1437C427.5 50.1997 427.476 50.2237 427.42 50.2237L425.492 50.2237C425.46 50.2237 425.444 50.2397 425.444 50.2717L425.444 51.3997C425.444 51.9277 425.292 52.3597 424.98 52.6877C424.668 53.0237 424.252 53.1917 423.748 53.1917C423.244 53.1917 422.844 53.0237 422.532 52.6877C422.22 52.3597 422.06 51.9277 422.06 51.3997L422.06 49.3597C422.06 49.3037 422.084 49.2797 422.14 49.2797L427.42 49.2797C427.476 49.2797 427.5 49.3037 427.5 49.3597L427.5 50.1437ZM424.588 50.2717C424.588 50.2397 424.572 50.2237 424.54 50.2237L422.956 50.2237C422.924 50.2237 422.908 50.2397 422.908 50.2717L422.908 51.3437C422.908 51.8957 423.244 52.2477 423.748 52.2477C424.26 52.2477 424.588 51.8957 424.588 51.3437L424.588 50.2717ZM427.5 57.5489C427.5 57.6049 427.476 57.6289 427.42 57.6289L426.732 57.6289C426.676 57.6289 426.652 57.6049 426.652 57.5489L426.652 55.0529C426.652 55.0209 426.636 55.0049 426.604 55.0049L425.228 55.0049C425.196 55.0049 425.18 55.0209 425.18 55.0529L425.18 57.1569C425.18 57.2129 425.156 57.2369 425.1 57.2369L424.412 57.2369C424.356 57.2369 424.332 57.2129 424.332 57.1569L424.332 55.0529C424.332 55.0209 424.316 55.0049 424.284 55.0049L422.956 55.0049C422.924 55.0049 422.908 55.0209 422.908 55.0529L422.908 57.5489C422.908 57.6049 422.884 57.6289 422.828 57.6289L422.14 57.6289C422.084 57.6289 422.06 57.6049 422.06 57.5489L422.06 54.1409C422.06 54.0849 422.084 54.0609 422.14 54.0609L427.42 54.0609C427.476 54.0609 427.5 54.0849 427.5 54.1409L427.5 57.5489ZM428.636 58.9114C428.636 58.9594 428.612 58.9834 428.564 58.9834L427.548 58.9834C427.516 58.9834 427.5 58.9994 427.5 59.0314L427.5 62.3994C427.5 62.4314 427.516 62.4474 427.548 62.4474L428.564 62.4474C428.612 62.4474 428.636 62.4714 428.636 62.5114L428.636 63.2554C428.636 63.3034 428.612 63.3274 428.564 63.3274L426.724 63.3274C426.676 63.3274 426.652 63.3034 426.652 63.2474L426.652 62.7754C426.652 62.7434 426.636 62.7274 426.604 62.7274L422.14 62.7274C422.084 62.7274 422.06 62.7034 422.06 62.6554L422.06 59.3194C422.06 59.2634 422.084 59.2394 422.132 59.2394L422.644 59.2394C423.748 59.2394 424.572 59.1914 425.124 59.0954C425.668 59.0074 426.156 58.8474 426.588 58.6154C426.628 58.5994 426.652 58.5594 426.652 58.4954L426.652 58.1754C426.652 58.1274 426.676 58.1034 426.724 58.1034L428.564 58.1034C428.612 58.1034 428.636 58.1274 428.636 58.1674L428.636 58.9114ZM426.652 59.6394C426.652 59.5834 426.636 59.5754 426.596 59.5994C425.884 59.9754 424.692 60.1594 423.02 60.1594L422.956 60.1594C422.924 60.1594 422.908 60.1754 422.908 60.2074L422.908 61.7354C422.908 61.7674 422.924 61.7834 422.956 61.7834L426.604 61.7834C426.636 61.7834 426.652 61.7674 426.652 61.7354L426.652 59.6394Z" fill="#EFC36E"/>
<rect x="432.5" y="19.5" width="1" height="44" fill="#EFC36E"/>
<rect x="435.5" y="19.5" width="2" height="8" fill="#EFC36E"/>
<defs>
<filter id="filter0_d_1565_26290" x="192" y="118.385" width="38" height="38" filterUnits="userSpaceOnUse" color-interpolation-filters="sRGB">
<feFlood flood-opacity="0" result="BackgroundImageFix"/>
<feColorMatrix in="SourceAlpha" type="matrix" values="0 0 0 0 0 0 0 0 0 0 0 0 0 0 0 0 0 0 127 0" result="hardAlpha"/>
<feOffset dx="2" dy="2"/>
<feComposite in2="hardAlpha" operator="out"/>
<feColorMatrix type="matrix" values="0 0 0 0 0.0980392 0 0 0 0 0.0980392 0 0 0 0 0.0980392 0 0 0 1 0"/>
<feBlend mode="normal" in2="BackgroundImageFix" result="effect1_dropShadow_1565_26290"/>
<feBlend mode="normal" in="SourceGraphic" in2="effect1_dropShadow_1565_26290" result="shape"/>
</filter>
<filter id="filter1_d_1565_26290" x="236" y="118.385" width="38" height="38" filterUnits="userSpaceOnUse" color-interpolation-filters="sRGB">
<feFlood flood-opacity="0" result="BackgroundImageFix"/>
<feColorMatrix in="SourceAlpha" type="matrix" values="0 0 0 0 0 0 0 0 0 0 0 0 0 0 0 0 0 0 127 0" result="hardAlpha"/>
<feOffset dx="2" dy="2"/>
<feComposite in2="hardAlpha" operator="out"/>
<feColorMatrix type="matrix" values="0 0 0 0 0.0980392 0 0 0 0 0.0980392 0 0 0 0 0.0980392 0 0 0 1 0"/>
<feBlend mode="normal" in2="BackgroundImageFix" result="effect1_dropShadow_1565_26290"/>
<feBlend mode="normal" in="SourceGraphic" in2="effect1_dropShadow_1565_26290" result="shape"/>
</filter>
<filter id="filter2_d_1565_26290" x="280" y="118.385" width="38" height="38" filterUnits="userSpaceOnUse" color-interpolation-filters="sRGB">
<feFlood flood-opacity="0" result="BackgroundImageFix"/>
<feColorMatrix in="SourceAlpha" type="matrix" values="0 0 0 0 0 0 0 0 0 0 0 0 0 0 0 0 0 0 127 0" result="hardAlpha"/>
<feOffset dx="2" dy="2"/>
<feComposite in2="hardAlpha" operator="out"/>
<feColorMatrix type="matrix" values="0 0 0 0 0.0980392 0 0 0 0 0.0980392 0 0 0 0 0.0980392 0 0 0 1 0"/>
<feBlend mode="normal" in2="BackgroundImageFix" result="effect1_dropShadow_1565_26290"/>
<feBlend mode="normal" in="SourceGraphic" in2="effect1_dropShadow_1565_26290" result="shape"/>
</filter>
<filter id="filter3_d_1565_26290" x="324" y="118.385" width="38" height="38" filterUnits="userSpaceOnUse" color-interpolation-filters="sRGB">
<feFlood flood-opacity="0" result="BackgroundImageFix"/>
<feColorMatrix in="SourceAlpha" type="matrix" values="0 0 0 0 0 0 0 0 0 0 0 0 0 0 0 0 0 0 127 0" result="hardAlpha"/>
<feOffset dx="2" dy="2"/>
<feComposite in2="hardAlpha" operator="out"/>
<feColorMatrix type="matrix" values="0 0 0 0 0.0980392 0 0 0 0 0.0980392 0 0 0 0 0.0980392 0 0 0 1 0"/>
<feBlend mode="normal" in2="BackgroundImageFix" result="effect1_dropShadow_1565_26290"/>
<feBlend mode="normal" in="SourceGraphic" in2="effect1_dropShadow_1565_26290" result="shape"/>
</filter>
<filter id="filter4_d_1565_26290" x="192" y="164.385" width="38" height="38" filterUnits="userSpaceOnUse" color-interpolation-filters="sRGB">
<feFlood flood-opacity="0" result="BackgroundImageFix"/>
<feColorMatrix in="SourceAlpha" type="matrix" values="0 0 0 0 0 0 0 0 0 0 0 0 0 0 0 0 0 0 127 0" result="hardAlpha"/>
<feOffset dx="2" dy="2"/>
<feComposite in2="hardAlpha" operator="out"/>
<feColorMatrix type="matrix" values="0 0 0 0 0.0980392 0 0 0 0 0.0980392 0 0 0 0 0.0980392 0 0 0 1 0"/>
<feBlend mode="normal" in2="BackgroundImageFix" result="effect1_dropShadow_1565_26290"/>
<feBlend mode="normal" in="SourceGraphic" in2="effect1_dropShadow_1565_26290" result="shape"/>
</filter>
<filter id="filter5_d_1565_26290" x="236" y="164.385" width="38" height="38" filterUnits="userSpaceOnUse" color-interpolation-filters="sRGB">
<feFlood flood-opacity="0" result="BackgroundImageFix"/>
<feColorMatrix in="SourceAlpha" type="matrix" values="0 0 0 0 0 0 0 0 0 0 0 0 0 0 0 0 0 0 127 0" result="hardAlpha"/>
<feOffset dx="2" dy="2"/>
<feComposite in2="hardAlpha" operator="out"/>
<feColorMatrix type="matrix" values="0 0 0 0 0.0980392 0 0 0 0 0.0980392 0 0 0 0 0.0980392 0 0 0 1 0"/>
<feBlend mode="normal" in2="BackgroundImageFix" result="effect1_dropShadow_1565_26290"/>
<feBlend mode="normal" in="SourceGraphic" in2="effect1_dropShadow_1565_26290" result="shape"/>
</filter>
<filter id="filter6_d_1565_26290" x="280" y="164.385" width="38" height="38" filterUnits="userSpaceOnUse" color-interpolation-filters="sRGB">
<feFlood flood-opacity="0" result="BackgroundImageFix"/>
<feColorMatrix in="SourceAlpha" type="matrix" values="0 0 0 0 0 0 0 0 0 0 0 0 0 0 0 0 0 0 127 0" result="hardAlpha"/>
<feOffset dx="2" dy="2"/>
<feComposite in2="hardAlpha" operator="out"/>
<feColorMatrix type="matrix" values="0 0 0 0 0.0980392 0 0 0 0 0.0980392 0 0 0 0 0.0980392 0 0 0 1 0"/>
<feBlend mode="normal" in2="BackgroundImageFix" result="effect1_dropShadow_1565_26290"/>
<feBlend mode="normal" in="SourceGraphic" in2="effect1_dropShadow_1565_26290" result="shape"/>
</filter>
<filter id="filter7_d_1565_26290" x="324" y="164.385" width="38" height="38" filterUnits="userSpaceOnUse" color-interpolation-filters="sRGB">
<feFlood flood-opacity="0" result="BackgroundImageFix"/>
<feColorMatrix in="SourceAlpha" type="matrix" values="0 0 0 0 0 0 0 0 0 0 0 0 0 0 0 0 0 0 127 0" result="hardAlpha"/>
<feOffset dx="2" dy="2"/>
<feComposite in2="hardAlpha" operator="out"/>
<feColorMatrix type="matrix" values="0 0 0 0 0.0980392 0 0 0 0 0.0980392 0 0 0 0 0.0980392 0 0 0 1 0"/>
<feBlend mode="normal" in2="BackgroundImageFix" result="effect1_dropShadow_1565_26290"/>
<feBlend mode="normal" in="SourceGraphic" in2="effect1_dropShadow_1565_26290" result="shape"/>
</filter>
<filter id="filter8_d_1565_26290" x="192" y="210.385" width="38" height="38" filterUnits="userSpaceOnUse" color-interpolation-filters="sRGB">
<feFlood flood-opacity="0" result="BackgroundImageFix"/>
<feColorMatrix in="SourceAlpha" type="matrix" values="0 0 0 0 0 0 0 0 0 0 0 0 0 0 0 0 0 0 127 0" result="hardAlpha"/>
<feOffset dx="2" dy="2"/>
<feComposite in2="hardAlpha" operator="out"/>
<feColorMatrix type="matrix" values="0 0 0 0 0.0980392 0 0 0 0 0.0980392 0 0 0 0 0.0980392 0 0 0 1 0"/>
<feBlend mode="normal" in2="BackgroundImageFix" result="effect1_dropShadow_1565_26290"/>
<feBlend mode="normal" in="SourceGraphic" in2="effect1_dropShadow_1565_26290" result="shape"/>
</filter>
<filter id="filter9_d_1565_26290" x="236" y="210.385" width="38" height="38" filterUnits="userSpaceOnUse" color-interpolation-filters="sRGB">
<feFlood flood-opacity="0" result="BackgroundImageFix"/>
<feColorMatrix in="SourceAlpha" type="matrix" values="0 0 0 0 0 0 0 0 0 0 0 0 0 0 0 0 0 0 127 0" result="hardAlpha"/>
<feOffset dx="2" dy="2"/>
<feComposite in2="hardAlpha" operator="out"/>
<feColorMatrix type="matrix" values="0 0 0 0 0.0980392 0 0 0 0 0.0980392 0 0 0 0 0.0980392 0 0 0 1 0"/>
<feBlend mode="normal" in2="BackgroundImageFix" result="effect1_dropShadow_1565_26290"/>
<feBlend mode="normal" in="SourceGraphic" in2="effect1_dropShadow_1565_26290" result="shape"/>
</filter>
<filter id="filter10_d_1565_26290" x="280" y="210.385" width="38" height="38" filterUnits="userSpaceOnUse" color-interpolation-filters="sRGB">
<feFlood flood-opacity="0" result="BackgroundImageFix"/>
<feColorMatrix in="SourceAlpha" type="matrix" values="0 0 0 0 0 0 0 0 0 0 0 0 0 0 0 0 0 0 127 0" result="hardAlpha"/>
<feOffset dx="2" dy="2"/>
<feComposite in2="hardAlpha" operator="out"/>
<feColorMatrix type="matrix" values="0 0 0 0 0.0980392 0 0 0 0 0.0980392 0 0 0 0 0.0980392 0 0 0 1 0"/>
<feBlend mode="normal" in2="BackgroundImageFix" result="effect1_dropShadow_1565_26290"/>
<feBlend mode="normal" in="SourceGraphic" in2="effect1_dropShadow_1565_26290" result="shape"/>
</filter>
<filter id="filter11_d_1565_26290" x="324" y="210.385" width="38" height="38" filterUnits="userSpaceOnUse" color-interpolation-filters="sRGB">
<feFlood flood-opacity="0" result="BackgroundImageFix"/>
<feColorMatrix in="SourceAlpha" type="matrix" values="0 0 0 0 0 0 0 0 0 0 0 0 0 0 0 0 0 0 127 0" result="hardAlpha"/>
<feOffset dx="2" dy="2"/>
<feComposite in2="hardAlpha" operator="out"/>
<feColorMatrix type="matrix" values="0 0 0 0 0.0980392 0 0 0 0 0.0980392 0 0 0 0 0.0980392 0 0 0 1 0"/>
<feBlend mode="normal" in2="BackgroundImageFix" result="effect1_dropShadow_1565_26290"/>
<feBlend mode="normal" in="SourceGraphic" in2="effect1_dropShadow_1565_26290" result="shape"/>
</filter>
<filter id="filter12_d_1565_26290" x="192" y="256.385" width="38" height="38" filterUnits="userSpaceOnUse" color-interpolation-filters="sRGB">
<feFlood flood-opacity="0" result="BackgroundImageFix"/>
<feColorMatrix in="SourceAlpha" type="matrix" values="0 0 0 0 0 0 0 0 0 0 0 0 0 0 0 0 0 0 127 0" result="hardAlpha"/>
<feOffset dx="2" dy="2"/>
<feComposite in2="hardAlpha" operator="out"/>
<feColorMatrix type="matrix" values="0 0 0 0 0.0980392 0 0 0 0 0.0980392 0 0 0 0 0.0980392 0 0 0 1 0"/>
<feBlend mode="normal" in2="BackgroundImageFix" result="effect1_dropShadow_1565_26290"/>
<feBlend mode="normal" in="SourceGraphic" in2="effect1_dropShadow_1565_26290" result="shape"/>
</filter>
<filter id="filter13_d_1565_26290" x="236" y="256.385" width="38" height="38" filterUnits="userSpaceOnUse" color-interpolation-filters="sRGB">
<feFlood flood-opacity="0" result="BackgroundImageFix"/>
<feColorMatrix in="SourceAlpha" type="matrix" values="0 0 0 0 0 0 0 0 0 0 0 0 0 0 0 0 0 0 127 0" result="hardAlpha"/>
<feOffset dx="2" dy="2"/>
<feComposite in2="hardAlpha" operator="out"/>
<feColorMatrix type="matrix" values="0 0 0 0 0.0980392 0 0 0 0 0.0980392 0 0 0 0 0.0980392 0 0 0 1 0"/>
<feBlend mode="normal" in2="BackgroundImageFix" result="effect1_dropShadow_1565_26290"/>
<feBlend mode="normal" in="SourceGraphic" in2="effect1_dropShadow_1565_26290" result="shape"/>
</filter>
<filter id="filter14_d_1565_26290" x="280" y="256.385" width="38" height="38" filterUnits="userSpaceOnUse" color-interpolation-filters="sRGB">
<feFlood flood-opacity="0" result="BackgroundImageFix"/>
<feColorMatrix in="SourceAlpha" type="matrix" values="0 0 0 0 0 0 0 0 0 0 0 0 0 0 0 0 0 0 127 0" result="hardAlpha"/>
<feOffset dx="2" dy="2"/>
<feComposite in2="hardAlpha" operator="out"/>
<feColorMatrix type="matrix" values="0 0 0 0 0.0980392 0 0 0 0 0.0980392 0 0 0 0 0.0980392 0 0 0 1 0"/>
<feBlend mode="normal" in2="BackgroundImageFix" result="effect1_dropShadow_1565_26290"/>
<feBlend mode="normal" in="SourceGraphic" in2="effect1_dropShadow_1565_26290" result="shape"/>
</filter>
<filter id="filter15_d_1565_26290" x="324" y="256.385" width="38" height="38" filterUnits="userSpaceOnUse" color-interpolation-filters="sRGB">
<feFlood flood-opacity="0" result="BackgroundImageFix"/>
<feColorMatrix in="SourceAlpha" type="matrix" values="0 0 0 0 0 0 0 0 0 0 0 0 0 0 0 0 0 0 127 0" result="hardAlpha"/>
<feOffset dx="2" dy="2"/>
<feComposite in2="hardAlpha" operator="out"/>
<feColorMatrix type="matrix" values="0 0 0 0 0.0980392 0 0 0 0 0.0980392 0 0 0 0 0.0980392 0 0 0 1 0"/>
<feBlend mode="normal" in2="BackgroundImageFix" result="effect1_dropShadow_1565_26290"/>
<feBlend mode="normal" in="SourceGraphic" in2="effect1_dropShadow_1565_26290" result="shape"/>
</filter>
<filter id="filter16_d_1565_26290" x="192" y="302.385" width="82" height="38" filterUnits="userSpaceOnUse" color-interpolation-filters="sRGB">
<feFlood flood-opacity="0" result="BackgroundImageFix"/>
<feColorMatrix in="SourceAlpha" type="matrix" values="0 0 0 0 0 0 0 0 0 0 0 0 0 0 0 0 0 0 127 0" result="hardAlpha"/>
<feOffset dx="2" dy="2"/>
<feComposite in2="hardAlpha" operator="out"/>
<feColorMatrix type="matrix" values="0 0 0 0 0.0980392 0 0 0 0 0.0980392 0 0 0 0 0.0980392 0 0 0 1 0"/>
<feBlend mode="normal" in2="BackgroundImageFix" result="effect1_dropShadow_1565_26290"/>
<feBlend mode="normal" in="SourceGraphic" in2="effect1_dropShadow_1565_26290" result="shape"/>
</filter>
<filter id="filter17_d_1565_26290" x="280" y="302.385" width="38" height="38" filterUnits="userSpaceOnUse" color-interpolation-filters="sRGB">
<feFlood flood-opacity="0" result="BackgroundImageFix"/>
<feColorMatrix in="SourceAlpha" type="matrix" values="0 0 0 0 0 0 0 0 0 0 0 0 0 0 0 0 0 0 127 0" result="hardAlpha"/>
<feOffset dx="2" dy="2"/>
<feComposite in2="hardAlpha" operator="out"/>
<feColorMatrix type="matrix" values="0 0 0 0 0.0980392 0 0 0 0 0.0980392 0 0 0 0 0.0980392 0 0 0 1 0"/>
<feBlend mode="normal" in2="BackgroundImageFix" result="effect1_dropShadow_1565_26290"/>
<feBlend mode="normal" in="SourceGraphic" in2="effect1_dropShadow_1565_26290" result="shape"/>
</filter>
<filter id="filter18_d_1565_26290" x="324" y="302.385" width="38" height="38" filterUnits="userSpaceOnUse" color-interpolation-filters="sRGB">
<feFlood flood-opacity="0" result="BackgroundImageFix"/>
<feColorMatrix in="SourceAlpha" type="matrix" values="0 0 0 0 0 0 0 0 0 0 0 0 0 0 0 0 0 0 127 0" result="hardAlpha"/>
<feOffset dx="2" dy="2"/>
<feComposite in2="hardAlpha" operator="out"/>
<feColorMatrix type="matrix" values="0 0 0 0 0.0980392 0 0 0 0 0.0980392 0 0 0 0 0.0980392 0 0 0 1 0"/>
<feBlend mode="normal" in2="BackgroundImageFix" result="effect1_dropShadow_1565_26290"/>
<feBlend mode="normal" in="SourceGraphic" in2="effect1_dropShadow_1565_26290" result="shape"/>
</filter>
</defs>
</svg>
