<svg width="25" height="24" viewBox="0 0 25 24" fill="none" xmlns="http://www.w3.org/2000/svg">
<path fill-rule="evenodd" clip-rule="evenodd" d="M11.3807 5C6.96246 5 3.38074 8.58172 3.38074 13C3.38074 17.4183 6.96246 21 11.3807 21V23C5.85789 23 1.38074 18.5228 1.38074 13C1.38074 7.47715 5.85789 3 11.3807 3V5Z" fill="#EFC36E"/>
<path d="M11.3807 13V16C9.72388 16 8.38074 14.6569 8.38074 13C8.38074 11.3431 9.72388 10 11.3807 10V13Z" fill="#EFC36E"/>
<rect x="10.3807" y="5" width="1" height="6" fill="#EFC36E"/>
<path fill-rule="evenodd" clip-rule="evenodd" d="M16.109 11.0204C16.109 9.83054 15.3502 8.81826 14.291 8.44309V1C19.3872 1.46024 23.3807 5.75252 23.3807 10.9796C23.3807 16.5137 18.9042 21 13.3821 21L13.3821 13.7533C13.8139 13.7533 14.2223 13.6527 14.5852 13.4736L17.5047 16.3995C17.8597 16.7552 18.4352 16.7552 18.7902 16.3995C19.1452 16.0437 19.1452 15.467 18.7902 15.1112L15.8563 12.1709C16.0184 11.8212 16.109 11.4314 16.109 11.0204Z" fill="#EFC36E"/>
</svg>
