<svg width="13" height="17" viewBox="0 0 13 17" fill="none" xmlns="http://www.w3.org/2000/svg">
<rect y="0.5" width="12.5527" height="16" rx="4" fill="#6CD3FF"/>
<path d="M3 10.5513C3 9.56838 3.38462 8.81339 4.15385 8.28632V8.25783C3.64103 7.90171 3.21368 7.17521 3.21368 6.32051C3.21368 5.53704 3.48433 4.86752 4.03989 4.32621C4.59544 3.77066 5.33618 3.5 6.27635 3.5C7.21652 3.5 7.95726 3.77066 8.51282 4.32621C9.06838 4.86752 9.33903 5.53704 9.33903 6.32051C9.33903 7.17521 8.91168 7.90171 8.39886 8.25783V8.28632C9.16809 8.81339 9.55271 9.56838 9.55271 10.5513C9.55271 11.4345 9.23932 12.1467 8.62678 12.688C8.01424 13.2293 7.23077 13.5 6.27635 13.5C5.32194 13.5 4.53846 13.2293 3.92593 12.688C3.31339 12.1467 3 11.4345 3 10.5513ZM7.38746 6.32051C7.38746 5.67949 6.94587 5.18091 6.27635 5.18091C5.60684 5.18091 5.16524 5.67949 5.16524 6.32051C5.16524 6.94729 5.63533 7.44587 6.27635 7.44587C6.91738 7.44587 7.38746 6.94729 7.38746 6.32051ZM4.96581 10.4658C4.96581 11.2635 5.49288 11.8191 6.27635 11.8191C7.05983 11.8191 7.58689 11.2635 7.58689 10.4658C7.58689 9.68234 7.05983 9.12678 6.27635 9.12678C5.49288 9.12678 4.96581 9.68234 4.96581 10.4658Z" fill="#1A1A1A"/>
</svg>
