<svg width="24" height="24" viewBox="0 0 24 24" fill="none" xmlns="http://www.w3.org/2000/svg">
<path fill-rule="evenodd" clip-rule="evenodd" d="M15.2144 2.5307C13.2358 1.85907 11.0966 1.82407 9.09716 2.4306C7.09769 3.03713 5.33844 4.25473 4.06647 5.91239C2.7945 7.57005 2.07372 9.58449 2.00536 11.6728C1.93699 13.7611 2.52448 15.8184 3.68531 17.5557C4.84613 19.293 6.52199 20.6231 8.4775 21.3591C10.433 22.0951 12.57 22.2 14.5882 21.6593C15.1217 21.5163 15.4382 20.968 15.2953 20.4345C15.1524 19.901 14.604 19.5845 14.0706 19.7274C12.456 20.16 10.7464 20.076 9.182 19.4872C7.61759 18.8984 6.27691 17.8344 5.34825 16.4446C4.41958 15.0547 3.94959 13.4089 4.00429 11.7382C4.05898 10.0676 4.6356 8.45604 5.65318 7.12991C6.67075 5.80378 8.07815 4.8297 9.67773 4.34448C11.2773 3.85925 12.9887 3.88726 14.5715 4.42456C15.3226 4.67953 16.0269 5.04311 16.6637 5.5H19V7.5H18.6144C18.7529 7.70354 18.8815 7.91279 19 8.127V7.5H20.9303C20.6987 7.04042 20.431 6.59736 20.1285 6.17522C19.5305 5.34074 18.8115 4.60859 18 4V4.5H16V2.83484C15.7433 2.72279 15.4812 2.62126 15.2144 2.5307ZM20 12C20 11.8328 19.9948 11.6661 19.9844 11.5H21.9875C21.9958 11.6662 22 11.8329 22 12L22 12.5H20L20 12ZM20 13.5024C19.9987 14.3297 19.3276 15 18.5 15C17.6716 15 17 14.3284 17 13.5V12V9C17 8.44772 16.5523 8 16 8C15.7389 8 15.5011 8.10008 15.323 8.26397C14.4397 7.4777 13.2756 7 12 7C9.23858 7 7 9.23858 7 12C7 14.7614 9.23858 17 12 17C13.4158 17 14.6942 16.4115 15.6038 15.4659C16.2336 16.3918 17.2958 17 18.5 17C19.6894 17 20.7402 16.4067 21.3727 15.5H20V13.5024ZM12 9C13.6569 9 15 10.3431 15 12C15 13.6569 13.6569 15 12 15C10.3431 15 9 13.6569 9 12C9 10.3431 10.3431 9 12 9Z" fill="#EFC36E"/>
<rect x="19" y="8.5" width="2" height="2" fill="#EFC36E"/>
<rect x="21" y="5.5" width="1" height="1" fill="#EFC36E"/>
<rect x="20" y="1.5" width="1" height="2" fill="#EFC36E"/>
<rect x="22" y="7.5" width="2" height="2" fill="#EFC36E"/>
<rect x="20" y="12.5" width="2" height="2" fill="#EFC36E"/>
<rect x="18" y="7.5" width="1" height="1" fill="#EFC36E"/>
<rect x="17" y="2.5" width="2" height="2" fill="#EFC36E"/>
</svg>
