<svg width="1110" height="24" viewBox="0 0 1110 24" fill="none" xmlns="http://www.w3.org/2000/svg">
<g clip-path="url(#clip0_1563_16279)">
<rect width="1110" height="1" fill="#1A1A1A"/>
<rect x="136.475" y="24" width="4" height="4.04372" transform="rotate(-90 136.475 24)" fill="#1A1A1A"/>
<rect x="146.585" y="24" width="4" height="40.4372" transform="rotate(-90 146.585 24)" fill="#1A1A1A"/>
<rect x="544" y="19.9999" width="4" height="40.4372" transform="rotate(-90 544 19.9999)" fill="#1A1A1A"/>
<rect y="24" width="4" height="4.04372" transform="rotate(-90 0 24)" fill="#1A1A1A"/>
<rect x="323.497" y="24" width="8" height="8.08743" transform="rotate(-90 323.497 24)" fill="#1A1A1A"/>
<rect x="483" y="23.9999" width="8" height="24" transform="rotate(-90 483 23.9999)" fill="#1A1A1A"/>
<rect x="761.229" y="20" width="4" height="4.04372" transform="rotate(90 761.229 20)" fill="#1A1A1A"/>
<rect x="751.12" y="20" width="4" height="12.1311" transform="rotate(90 751.12 20)" fill="#1A1A1A"/>
<rect x="1100.9" y="20" width="4" height="4.04372" transform="rotate(90 1100.9 20)" fill="#1A1A1A"/>
<rect x="1110" y="20" width="4" height="4.04372" transform="rotate(90 1110 20)" fill="#1A1A1A"/>
<rect x="1076.64" y="16" width="8" height="8.08743" transform="rotate(90 1076.64 16)" fill="#1A1A1A"/>
</g>
<defs>
<clipPath id="clip0_1563_16279">
<rect width="1110" height="24" fill="white"/>
</clipPath>
</defs>
</svg>
