<svg width="140" height="26" viewBox="0 0 140 26" fill="none" xmlns="http://www.w3.org/2000/svg">
<g clip-path="url(#clip0_2136_1128)">
<path d="M42.5468 5.60522L47.1415 19.2974H44.6144L43.6495 16.2649H38.8711L37.9521 19.2974H35.425L40.0197 5.60522H42.5468ZM39.5603 14.0135H42.9144L41.2143 8.72961L39.5603 14.0135Z" fill="white"/>
<path d="M49.0712 19.2974V5.60522H54.8605C57.2038 5.60522 58.6741 7.07552 58.6741 8.63772V11.5324C58.6741 12.6351 57.9389 13.6919 56.6524 14.1973L58.9497 19.2974H56.2848L54.1253 14.5189H51.5982V19.2974H49.0712ZM51.5982 7.85662V12.2216H54.6767C55.5037 12.2216 56.147 11.7621 56.147 10.9351V9.18908C56.147 8.36203 55.4578 7.90257 54.5388 7.90257H51.5982V7.85662Z" fill="white"/>
<path d="M63.6823 19.2973V7.85657H60.2822V5.65112H69.2878V7.85657H66.2094V19.2973H63.6823Z" fill="white"/>
<path d="M72.3663 15.392V16.265C72.3663 17.4596 73.515 18.3785 74.9393 18.3785H76.5475C78.0637 18.3785 79.2124 17.6434 79.2124 16.4028V15.4379C79.2124 13.3244 71.6771 12.9568 71.6771 9.32701V8.08645C71.6771 6.70805 73.0096 5.51343 74.7556 5.51343H76.5475C78.5232 5.51343 79.9475 6.84589 79.9475 8.31618V9.55675H78.7989V8.54592C78.7989 7.39725 77.7421 6.5702 76.4556 6.5702H74.8934C73.7447 6.5702 72.7798 7.30535 72.7798 8.31618V9.32701C72.7798 12.0379 80.3151 12.3595 80.3151 15.3001V16.6326C80.3151 18.3326 78.707 19.4353 76.5934 19.4353H74.8934C72.7798 19.4353 71.2177 18.0569 71.2177 16.4947V15.4379H72.3663V15.392Z" fill="white"/>
<path d="M86.0124 19.2973V6.66195H82.1989V5.65112H90.7909V6.66195H87.1152V19.2973H86.0124Z" fill="white"/>
<path d="M96.9019 5.55933L101.726 19.2974H100.578L99.0614 14.9325H93.5938L92.0775 19.2974H90.9288L95.7533 5.55933H96.9019ZM93.9154 13.9216H98.6939L96.3506 7.02962L93.9154 13.9216Z" fill="white"/>
<path d="M105.678 19.2973V6.66195H101.864V5.65112H110.456V6.66195H106.826V19.2973H105.678Z" fill="white"/>
<path d="M114.132 5.65112H112.983V19.2973H114.132V5.65112Z" fill="white"/>
<path d="M121.162 19.3893C119.278 19.3893 117.946 18.0109 117.946 16.4487V8.49992C117.946 6.89178 119.324 5.55933 121.162 5.55933H123.873C125.711 5.55933 127.089 6.93773 127.089 8.49992V16.4487C127.089 18.0569 125.757 19.3893 123.873 19.3893H121.162ZM123.781 18.3785C124.975 18.3785 125.94 17.4596 125.94 16.2649V8.68371C125.94 7.48909 124.975 6.57016 123.781 6.57016H121.208C120.013 6.57016 119.048 7.48909 119.048 8.68371V16.2649C119.048 17.4596 120.013 18.3785 121.208 18.3785H123.781Z" fill="white"/>
<path d="M130.857 19.2974V5.65117H132.051L138.897 17.3217V5.60522H140V19.2974H138.851L131.959 7.62689V19.2974H130.857Z" fill="white"/>
<path d="M0 19.2974L2.38924 23.4326C2.89465 24.3515 3.85953 25.0407 4.96226 25.0407H20.9058L17.5976 19.2974H0Z" fill="white"/>
<path d="M28.441 19.3434C28.441 18.792 28.2573 18.2407 27.9816 17.7812L18.6084 1.516C18.149 0.597065 17.1841 -0.000244141 16.0813 -0.000244141H11.165L25.5923 24.9948L27.8897 21.0434C28.3032 20.3083 28.441 19.9866 28.441 19.3434Z" fill="white"/>
<path d="M15.2543 15.2078L8.82177 4.04272L2.34326 15.2078H15.2543Z" fill="white"/>
</g>
<defs>
<clipPath id="clip0_2136_1128">
<rect width="140" height="25.041" fill="white" transform="translate(0 -0.000244141)"/>
</clipPath>
</defs>
</svg>
