<svg width="160" height="48" viewBox="0 0 160 48" fill="none" xmlns="http://www.w3.org/2000/svg">
<path d="M81.8002 27.0571C80 26.9439 78.9873 26.0382 78.9873 24.6797C78.9873 23.4344 80 22.4156 81.8002 22.3024V21.7363H82.4754V22.3024C84.2756 22.4156 85.1758 23.3212 85.1758 24.6797C85.1758 25.925 84.1631 26.9439 82.4754 27.0571V27.6231H81.8002V27.0571ZM81.8002 22.9816C80.45 22.9816 79.7749 23.7741 79.7749 24.6797C79.7749 25.5854 80.45 26.3778 81.8002 26.3778V22.9816ZM82.4754 26.491C83.8256 26.491 84.5007 25.6986 84.5007 24.7929C84.5007 23.8873 83.8256 23.0948 82.4754 23.0948V26.491Z" fill="white"/>
<path d="M89.9015 25.5856V25.8121H86.6385C86.751 26.6045 87.3136 27.1706 88.1012 27.1706C89.0014 27.1706 89.4514 26.6045 89.4514 26.6045H89.5639V27.2838C89.5639 27.2838 89.1139 27.7366 87.9887 27.7366C86.8635 27.7366 85.9634 26.8309 85.9634 25.6989C85.9634 24.5668 86.8635 23.6611 87.9887 23.6611C89.1139 23.5479 89.9015 24.3404 89.9015 25.5856ZM86.751 25.1328H89.2264C89.1139 24.5668 88.6638 24.1139 87.9887 24.1139C87.3136 24.2272 86.8635 24.68 86.751 25.1328Z" fill="white"/>
<path d="M90.1265 27.0565H90.5765C90.5765 27.0565 91.0266 26.6036 91.0266 25.698L91.1391 23.7734H93.8395V27.1697H94.5147V28.8678H93.8395V27.8489H90.8016V28.8678H90.1265V27.0565ZM91.5892 25.698C91.5892 26.6036 91.1391 27.0565 91.1391 27.0565H93.1644V24.3395H91.7017L91.5892 25.698Z" fill="white"/>
<path d="M99.0155 25.5856V25.8121H95.7525C95.865 26.6045 96.4276 27.1706 97.2152 27.1706C98.1154 27.1706 98.5654 26.6045 98.5654 26.6045H98.678V27.2838C98.678 27.2838 98.2279 27.7366 97.1027 27.7366C95.9775 27.7366 95.0774 26.8309 95.0774 25.6989C95.0774 24.5668 95.9775 23.6611 97.1027 23.6611C98.2279 23.5479 99.0155 24.3404 99.0155 25.5856ZM95.7525 25.1328H98.2279C98.1154 24.5668 97.6653 24.1139 96.9902 24.1139C96.4276 24.2272 95.9775 24.68 95.7525 25.1328Z" fill="white"/>
<path d="M102.053 27.7355C101.041 27.7355 100.703 26.943 100.703 26.943V29.2072H100.028V23.5468H100.591V24.226C100.591 24.226 100.928 23.4336 101.941 23.4336C102.954 23.4336 103.854 24.3393 103.854 25.4713C103.854 26.6034 103.066 27.7355 102.053 27.7355ZM101.941 27.1694C102.728 27.1694 103.291 26.6034 103.291 25.6977C103.291 24.7921 102.728 24.226 101.941 24.226C101.153 24.226 100.591 24.7921 100.591 25.6977C100.591 26.4902 101.266 27.1694 101.941 27.1694Z" fill="white"/>
<path d="M108.129 25.1318V27.6223H107.567V26.9431C107.567 26.9431 107.229 27.7356 106.217 27.7356C105.429 27.7356 104.866 27.2827 104.866 26.4903C104.866 25.6978 105.429 25.245 106.217 25.245C107.004 25.245 107.454 25.5846 107.454 25.5846V25.1318C107.454 24.5657 107.117 24.2261 106.442 24.2261C105.542 24.2261 104.979 24.7922 104.979 24.7922H104.866V24.1129C104.866 24.1129 105.542 23.5469 106.442 23.5469C107.567 23.5469 108.129 24.2261 108.129 25.1318ZM107.454 26.1507C107.454 26.1507 107.004 25.811 106.329 25.811C105.767 25.811 105.429 26.0374 105.429 26.4903C105.429 26.8299 105.654 27.0563 106.104 27.0563C107.117 27.1695 107.454 26.1507 107.454 26.1507Z" fill="white"/>
<path d="M110.155 25.9242C110.042 27.0563 109.592 27.6223 108.804 27.6223L108.692 26.9431C109.142 26.8299 109.367 26.6035 109.48 25.811L109.705 23.5469H112.517V27.5091H111.842V24.1129H110.267L110.155 25.9242Z" fill="white"/>
<path d="M113.755 23.6611H114.43V24.9064H115.443C116.343 24.9064 116.906 25.4725 116.906 26.2649C116.906 27.0574 116.343 27.6234 115.443 27.6234H113.755V23.6611ZM115.443 27.0574C116.006 27.0574 116.231 26.8309 116.231 26.3781C116.231 25.9253 116.006 25.6989 115.443 25.6989H114.43V27.1706H115.443V27.0574Z" fill="white"/>
<path d="M118.368 25.9253V27.6234H117.806V23.6611H118.368V25.3592H120.619V23.6611H121.294V27.6234H120.619V25.9253H118.368Z" fill="white"/>
<path d="M125.682 25.1318V27.6223H125.12V26.9431C125.12 26.9431 124.782 27.7356 123.769 27.7356C122.982 27.7356 122.419 27.2827 122.419 26.4903C122.419 25.6978 122.982 25.245 123.769 25.245C124.557 25.245 125.007 25.5846 125.007 25.5846V25.1318C125.007 24.5657 124.67 24.2261 123.994 24.2261C123.094 24.2261 122.532 24.7922 122.532 24.7922H122.419V24.1129C122.419 24.1129 123.094 23.5469 123.994 23.5469C125.007 23.5469 125.682 24.2261 125.682 25.1318ZM125.007 26.1507C125.007 26.1507 124.557 25.811 123.882 25.811C123.319 25.811 122.982 26.0374 122.982 26.4903C122.982 26.8299 123.207 27.0563 123.657 27.0563C124.67 27.1695 125.007 26.1507 125.007 26.1507Z" fill="white"/>
<path d="M126.695 25.0187C126.695 24.2263 127.257 23.7734 128.157 23.7734H129.958V27.7357H129.283V26.3772H128.382L127.145 27.7357H126.357L127.707 26.3772C127.595 26.1508 126.695 25.9244 126.695 25.0187ZM128.157 24.3395C127.595 24.3395 127.37 24.5659 127.37 25.0187C127.37 25.4716 127.595 25.698 128.157 25.698H129.283V24.3395H128.157Z" fill="white"/>
<path d="M135.021 27.1697C135.809 27.1697 136.146 26.7168 136.146 26.7168H136.259V27.3961C136.259 27.3961 135.809 27.8489 134.909 27.8489C133.783 27.8489 132.883 26.9432 132.883 25.8112C132.883 24.6791 133.783 23.7734 134.909 23.7734C135.921 23.7734 136.371 24.3395 136.371 24.3395L136.146 24.9055C136.146 24.9055 135.696 24.4527 135.021 24.4527C134.121 24.4527 133.558 25.0187 133.558 25.9244C133.558 26.4904 134.121 27.1697 135.021 27.1697Z" fill="white"/>
<path d="M138.284 25.9242C138.172 27.0563 137.721 27.6223 136.934 27.6223L136.821 26.9431C137.271 26.8299 137.496 26.6035 137.609 25.811L137.834 23.5469H140.647V27.5091H139.972V24.1129H138.397L138.284 25.9242Z" fill="white"/>
<path d="M143.122 29.3215H142.447L143.122 27.6234L141.322 23.6611H141.997L143.46 26.8309L144.698 23.6611H145.373L143.122 29.3215Z" fill="white"/>
<path d="M148.748 25.6989V27.6234H148.186V25.6989L146.273 27.6234H145.373L147.398 25.5857L145.485 23.6611H146.385L148.186 25.5857V23.6611H148.748V25.5857L150.661 23.6611H151.449L149.536 25.5857L151.561 27.6234H150.661L148.748 25.6989Z" fill="white"/>
<path d="M155.949 25.6986C155.949 26.8307 155.162 27.7363 153.924 27.7363C152.799 27.7363 151.899 26.8307 151.899 25.359C151.899 22.8684 152.799 21.9627 154.262 21.9627C155.049 21.9627 155.612 21.7363 155.612 21.7363V22.4156C155.612 22.4156 155.162 22.642 154.262 22.642C153.249 22.642 152.574 23.3212 152.461 24.5665C152.461 24.5665 152.911 23.7741 153.924 23.7741C155.049 23.6609 155.949 24.5665 155.949 25.6986ZM155.274 25.6986C155.274 24.9061 154.712 24.3401 153.924 24.3401C153.136 24.3401 152.574 24.9061 152.574 25.6986C152.574 26.491 153.136 27.0571 153.924 27.0571C154.712 27.1703 155.274 26.6043 155.274 25.6986Z" fill="white"/>
<path d="M160 25.1318V27.6223H159.437V26.9431C159.437 26.9431 159.1 27.7356 158.087 27.7356C157.3 27.7356 156.737 27.2827 156.737 26.4903C156.737 25.6978 157.3 25.245 158.087 25.245C158.875 25.245 159.325 25.5846 159.325 25.5846V25.1318C159.325 24.5657 158.987 24.2261 158.312 24.2261C157.412 24.2261 156.85 24.7922 156.85 24.7922H156.737V24.1129C156.737 24.1129 157.412 23.5469 158.312 23.5469C159.437 23.5469 160 24.2261 160 25.1318ZM159.437 26.1507C159.437 26.1507 158.987 25.811 158.312 25.811C157.75 25.811 157.412 26.0374 157.412 26.4903C157.412 26.8299 157.637 27.0563 158.087 27.0563C159.1 27.1695 159.437 26.1507 159.437 26.1507Z" fill="white"/>
<path d="M79.8875 34.4147V37.8109H79.2124V33.8486H82.813V37.8109H82.1379V34.4147H79.8875Z" fill="white"/>
<path d="M85.6259 37.9241C84.3882 37.9241 83.6006 37.0184 83.6006 35.8864C83.6006 34.7543 84.5007 33.8486 85.6259 33.8486C86.8636 33.8486 87.6512 34.7543 87.6512 35.8864C87.6512 37.0184 86.8636 37.9241 85.6259 37.9241ZM85.6259 37.2449C86.4135 37.2449 87.0886 36.6788 87.0886 35.7732C87.0886 34.8675 86.526 34.3015 85.6259 34.3015C84.8383 34.3015 84.1632 34.8675 84.1632 35.7732C84.2757 36.6788 84.8383 37.2449 85.6259 37.2449Z" fill="white"/>
<path d="M91.3643 37.8109H90.6892V33.8486H91.3643V36.792L93.7272 33.8486H94.4023V37.8109H93.7272V34.7543L91.3643 37.8109Z" fill="white"/>
<path d="M95.9776 35.9996V37.8109H95.415V33.8486H95.9776V35.4335H98.3405V33.8486H98.9031V37.8109H98.3405V35.9996H95.9776Z" fill="white"/>
<path d="M99.6907 34.4147V33.8486H103.066V34.4147H101.716V37.8109H101.041V34.4147H99.6907Z" fill="white"/>
<path d="M107.229 35.6609V35.8873H103.966C104.079 36.6797 104.641 37.2458 105.429 37.2458C106.329 37.2458 106.779 36.6797 106.779 36.6797H106.892V37.359C106.892 37.359 106.442 37.8118 105.317 37.8118C104.191 37.8118 103.291 36.9061 103.291 35.7741C103.291 34.5288 104.191 33.7363 105.317 33.7363C106.442 33.7363 107.229 34.4156 107.229 35.6609ZM104.079 35.3212H106.554C106.442 34.7552 105.992 34.3024 105.317 34.3024C104.641 34.3024 104.191 34.7552 104.079 35.3212Z" fill="white"/>
<path d="M109.03 36.1137C108.917 37.2458 108.467 37.8118 107.679 37.8118L107.567 37.1326C108.017 37.0193 108.242 36.7929 108.355 36.0005L108.58 33.7363H111.392V37.6986H110.717V34.3024H109.142L109.03 36.1137Z" fill="white"/>
<path d="M113.53 36.1137C113.418 37.2458 112.968 37.8118 112.18 37.8118L112.067 37.1326C112.517 37.0193 112.742 36.7929 112.855 36.0005L113.08 33.7363H115.893V37.6986H115.218V34.3024H113.643L113.53 36.1137Z" fill="white"/>
<path d="M120.844 35.6609V35.8873H117.581C117.693 36.6797 118.256 37.2458 119.044 37.2458C119.944 37.2458 120.394 36.6797 120.394 36.6797H120.506V37.359C120.506 37.359 120.056 37.8118 118.931 37.8118C117.806 37.8118 116.906 36.9061 116.906 35.7741C116.906 34.5288 117.806 33.7363 118.931 33.7363C120.056 33.7363 120.844 34.4156 120.844 35.6609ZM117.693 35.3212H120.169C120.056 34.7552 119.606 34.3024 118.931 34.3024C118.256 34.3024 117.806 34.7552 117.693 35.3212Z" fill="white"/>
<path d="M122.307 35.7732V37.8109H121.632V33.8486H122.307V35.7732L124.332 33.8486H125.12L123.094 35.7732L125.232 37.8109H124.332L122.307 35.7732Z" fill="white"/>
<path d="M125.232 34.4147V33.8486H128.72V34.4147H127.257V37.8109H126.582V34.4147H125.232Z" fill="white"/>
<path d="M130.745 39.3958H130.07L130.745 37.6977L128.945 33.8486H129.62L131.083 36.9052L132.321 33.8486H132.996L130.745 39.3958Z" fill="white"/>
<path d="M136.709 35.208V37.6985H136.146V37.0193C136.146 37.0193 135.809 37.8117 134.796 37.8117C134.008 37.8117 133.446 37.3589 133.446 36.5664C133.446 35.774 134.008 35.3212 134.796 35.3212C135.584 35.3212 136.034 35.6608 136.034 35.6608V35.208C136.034 34.6419 135.696 34.3023 135.021 34.3023C134.121 34.3023 133.558 34.8683 133.558 34.8683H133.446V34.1891C133.446 34.1891 134.121 33.623 135.021 33.623C136.146 33.7363 136.709 34.3023 136.709 35.208ZM136.146 36.34C136.146 36.34 135.696 36.0004 135.021 36.0004C134.458 36.0004 134.121 36.2268 134.121 36.6797C134.121 37.0193 134.346 37.2457 134.796 37.2457C135.809 37.2457 136.146 36.34 136.146 36.34Z" fill="white"/>
<path d="M138.847 36.1137C138.734 37.2458 138.284 37.8118 137.497 37.8118L137.384 37.1326C137.834 37.0193 138.059 36.7929 138.172 36.0005L138.397 33.7363H141.21V37.6986H140.647V34.3024H139.072L138.847 36.1137Z" fill="white"/>
<path d="M142.447 33.8486H143.122V35.0939H144.135C145.035 35.0939 145.598 35.66 145.598 36.4524C145.598 37.2449 145.035 37.8109 144.135 37.8109H142.447V33.8486ZM144.135 37.1317C144.698 37.1317 144.923 36.9052 144.923 36.4524C144.923 35.9996 144.698 35.7732 144.135 35.7732H143.122V37.2449H144.135V37.1317Z" fill="white"/>
<path d="M147.06 35.9996V37.8109H146.498V33.8486H147.06V35.4335H149.311V33.8486H149.986V37.8109H149.311V35.9996H147.06Z" fill="white"/>
<path d="M152.686 37.9241C151.449 37.9241 150.661 37.0184 150.661 35.8864C150.661 34.7543 151.561 33.8486 152.686 33.8486C153.924 33.8486 154.712 34.7543 154.712 35.8864C154.712 37.0184 153.924 37.9241 152.686 37.9241ZM152.686 37.2449C153.474 37.2449 154.149 36.6788 154.149 35.7732C154.149 34.8675 153.587 34.3015 152.686 34.3015C151.899 34.3015 151.224 34.8675 151.224 35.7732C151.336 36.6788 151.899 37.2449 152.686 37.2449Z" fill="white"/>
<path d="M156.287 37.8117H155.724V33.8495H156.399V36.9061L158.762 33.8495H159.325V37.8117H158.65V34.7551L156.287 37.8117ZM156.512 32.8306V32.1514C156.512 32.1514 156.85 32.6042 157.525 32.6042C158.087 32.6042 158.537 32.1514 158.537 32.1514V32.8306C158.537 32.8306 158.2 33.1702 157.525 33.1702C156.85 33.1702 156.512 32.8306 156.512 32.8306Z" fill="white"/>
<path d="M81.1251 47.4342C81.9128 47.4342 82.2503 46.9814 82.2503 46.9814H82.3628V47.5474C82.3628 47.5474 81.9128 48.0003 81.0126 48.0003C79.8874 48.0003 78.9873 47.0946 78.9873 45.9625C78.9873 44.7173 79.8874 43.9248 81.0126 43.9248C82.0253 43.9248 82.4754 44.4908 82.4754 44.4908L82.2503 45.0569C82.2503 45.0569 81.8002 44.6041 81.1251 44.6041C80.225 44.6041 79.6624 45.1701 79.6624 46.0757C79.6624 46.755 80.225 47.4342 81.1251 47.4342Z" fill="white"/>
<path d="M85.1757 48.0003C83.938 48.0003 83.1504 47.0946 83.1504 45.9625C83.1504 44.7173 84.0505 43.9248 85.1757 43.9248C86.4134 43.9248 87.201 44.8305 87.201 45.9625C87.3135 47.0946 86.4134 48.0003 85.1757 48.0003ZM85.1757 47.4342C85.9633 47.4342 86.6384 46.8682 86.6384 45.9625C86.6384 45.0569 86.0758 44.4908 85.1757 44.4908C84.3881 44.4908 83.713 45.0569 83.713 45.9625C83.713 46.755 84.3881 47.4342 85.1757 47.4342Z" fill="white"/>
<path d="M92.1519 45.9623C92.1519 47.0943 91.3643 48 90.1266 48C89.0015 48 88.1013 47.0943 88.1013 45.6226C88.1013 43.1321 89.0015 42.2264 90.4642 42.2264C91.2518 42.2264 91.8144 42 91.8144 42V42.6792C91.8144 42.6792 91.3643 42.9057 90.4642 42.9057C89.4515 42.9057 88.7764 43.5849 88.6639 44.8302C88.6639 44.8302 89.114 44.0377 90.1266 44.0377C91.2518 43.9245 92.1519 44.8302 92.1519 45.9623ZM91.4768 45.9623C91.4768 45.1698 90.9143 44.6038 90.1266 44.6038C89.339 44.6038 88.7764 45.1698 88.7764 45.9623C88.7764 46.7547 89.339 47.3208 90.1266 47.3208C90.9143 47.3208 91.4768 46.8679 91.4768 45.9623Z" fill="white"/>
<path d="M94.8524 47.4342C95.6401 47.4342 95.9776 46.9814 95.9776 46.9814H96.0901V47.5474C96.0901 47.5474 95.6401 48.0003 94.7399 48.0003C93.6147 48.0003 92.7146 47.0946 92.7146 45.9625C92.7146 44.7173 93.6147 43.9248 94.7399 43.9248C95.7526 43.9248 96.2026 44.4908 96.2026 44.4908L95.9776 45.0569C95.9776 45.0569 95.5275 44.6041 94.8524 44.6041C93.9523 44.6041 93.3897 45.1701 93.3897 46.0757C93.3897 46.755 93.9523 47.4342 94.8524 47.4342Z" fill="white"/>
<path d="M96.6526 44.4908V43.9248H100.028V44.4908H98.6779V47.8871H98.0028V44.4908H96.6526Z" fill="white"/>
<path d="M100.816 43.9248H102.503C103.404 43.9248 103.854 44.3776 103.854 44.9437C103.854 45.6229 103.404 45.7361 103.404 45.7361C103.404 45.7361 104.191 45.8493 104.191 46.6418C104.191 47.321 103.741 47.7739 102.841 47.7739H100.928V43.9248H100.816ZM101.491 44.4908V45.5097H102.503C102.954 45.5097 103.179 45.2833 103.179 45.0569C103.179 44.7173 102.954 44.6041 102.503 44.6041H101.491V44.4908ZM102.728 46.189H101.491V47.321H102.728C103.179 47.321 103.404 47.0946 103.404 46.755C103.404 46.4154 103.179 46.189 102.728 46.189Z" fill="white"/>
<path d="M108.692 45.8493V46.0757H105.429C105.542 46.8682 106.104 47.4342 106.892 47.4342C107.792 47.4342 108.242 46.8682 108.242 46.8682H108.354V47.5474C108.354 47.5474 107.904 48.0003 106.779 48.0003C105.654 48.0003 104.754 47.0946 104.754 45.9625C104.754 44.8304 105.654 43.9248 106.779 43.9248C107.904 43.8116 108.692 44.604 108.692 45.8493ZM105.542 45.3965H108.017C107.904 44.8304 107.454 44.3776 106.779 44.3776C106.104 44.3776 105.654 44.8304 105.542 45.3965Z" fill="white"/>
<path d="M110.38 46.189V47.8871H109.705V43.9248H110.38V45.6229H112.63V43.9248H113.305V47.8871H112.63V46.189H110.38Z" fill="white"/>
<path d="M115.106 46.189V47.8871H114.43V43.9248H115.106V45.6229H117.356V43.9248H118.031V47.8871H117.356V46.189H115.106Z" fill="white"/>
<path d="M121.069 48.0003C119.831 48.0003 119.044 47.0946 119.044 45.9625C119.044 44.7173 119.944 43.9248 121.069 43.9248C122.307 43.9248 123.094 44.8305 123.094 45.9625C123.207 47.0946 122.307 48.0003 121.069 48.0003ZM121.069 47.4342C121.857 47.4342 122.532 46.8682 122.532 45.9625C122.532 45.0569 121.969 44.4908 121.069 44.4908C120.281 44.4908 119.606 45.0569 119.606 45.9625C119.606 46.755 120.281 47.4342 121.069 47.4342Z" fill="white"/>
<path d="M126.02 47.4342C126.807 47.4342 127.145 46.9814 127.145 46.9814H127.257V47.5474C127.257 47.5474 126.807 48.0003 125.907 48.0003C124.782 48.0003 123.882 47.0946 123.882 45.9625C123.882 44.7173 124.782 43.9248 125.907 43.9248C126.92 43.9248 127.37 44.4908 127.37 44.4908L127.145 45.0569C127.145 45.0569 126.695 44.6041 126.02 44.6041C125.12 44.6041 124.557 45.1701 124.557 46.0757C124.557 46.755 125.12 47.4342 126.02 47.4342Z" fill="white"/>
<path d="M127.82 44.4908V43.9248H131.196V44.4908H129.845V47.8871H129.17V44.4908H127.82Z" fill="white"/>
<path d="M132.546 47.8871H131.983V43.9248H132.658V46.9814L135.021 43.9248H135.584V47.8871H134.909V44.8305L132.546 47.8871Z" fill="white"/>
<path d="M83.3756 0.566406C85.6259 0.566406 87.0887 2.0381 87.0887 4.07584C87.0887 6.11358 85.6259 7.58527 83.3756 7.58527H81.1252V11.774H80.2251V0.566406H83.3756ZM83.3756 6.79282C85.1759 6.79282 86.1885 5.77395 86.1885 4.18905C86.1885 2.60414 85.1759 1.58527 83.3756 1.58527H81.1252V6.79282H83.3756Z" fill="white"/>
<path d="M88.4387 7.81173C88.4387 5.32116 90.239 3.62305 92.6019 3.62305C94.9647 3.62305 96.765 5.43437 96.765 7.81173C96.765 10.3023 94.9647 12.0004 92.6019 12.0004C90.239 12.0004 88.4387 10.3023 88.4387 7.81173ZM95.7524 7.81173C95.7524 5.77399 94.5147 4.52871 92.6019 4.52871C90.6891 4.52871 89.4514 5.8872 89.4514 7.81173C89.4514 9.84946 90.8016 11.0947 92.6019 11.0947C94.5147 11.0947 95.7524 9.84946 95.7524 7.81173Z" fill="white"/>
<path d="M105.316 10.9815C105.316 10.9815 104.304 12.0004 102.504 12.0004C100.253 12.0004 98.4529 10.1891 98.4529 7.81173C98.4529 5.32116 100.253 3.62305 102.504 3.62305C104.529 3.62305 105.541 4.86833 105.541 4.86833L105.204 5.66078C105.204 5.66078 104.191 4.64191 102.616 4.64191C100.703 4.64191 99.4655 6.00041 99.4655 7.92493C99.4655 9.84946 100.816 11.208 102.616 11.208C104.191 11.208 105.091 10.1891 105.091 10.1891H105.316V10.9815Z" fill="white"/>
<path d="M113.418 4.75429H108.354V11.7732H107.454V3.84863H114.318V11.7732H113.418V4.75429Z" fill="white"/>
<path d="M123.094 6.79286V11.774H122.307L122.194 10.3023H122.082C122.082 10.3023 121.294 12.0004 119.381 12.0004C117.806 12.0004 116.681 10.9815 116.681 9.50984C116.681 8.03814 117.693 7.01927 119.606 7.01927C121.181 7.01927 122.194 7.81173 122.194 7.81173V6.79286C122.194 5.20795 121.406 4.52871 119.944 4.52871C118.256 4.52871 117.018 5.66078 117.018 5.66078H116.906V4.64191C116.906 4.64191 118.143 3.62305 120.056 3.62305C121.856 3.62305 123.094 4.86833 123.094 6.79286ZM122.194 8.9438C122.194 8.9438 121.294 7.92493 119.719 7.92493C118.256 7.92493 117.693 8.49097 117.693 9.50984C117.693 10.4155 118.256 11.0947 119.494 11.0947C121.294 11.0947 122.194 8.9438 122.194 8.9438Z" fill="white"/>
<path d="M124.557 4.75429V3.84863H131.195V4.75429H128.382V11.7732H127.482V4.75429H124.557Z" fill="white"/>
<path d="M139.184 10.075H139.409V11.0938C139.409 11.0938 138.397 12.1127 136.371 12.1127C134.121 12.1127 132.321 10.3014 132.321 7.92403C132.321 5.43346 134.121 3.73535 136.259 3.73535C138.397 3.73535 139.859 5.32026 139.859 7.69762V7.92403H133.108C133.221 9.84856 134.346 11.0938 136.259 11.0938C138.172 11.0938 139.184 10.075 139.184 10.075ZM138.959 7.01837C138.847 5.54667 137.834 4.5278 136.259 4.5278C134.684 4.5278 133.558 5.54667 133.333 7.01837H138.959Z" fill="white"/>
<path d="M147.961 8.15052H143.01V11.7732H142.11V3.84863H143.01V7.24486H147.961V3.84863H148.973V11.7732H147.961V8.15052Z" fill="white"/>
<path d="M150.549 4.75429V3.84863H157.3V4.75429H154.374V11.7732H153.474V4.75429H150.549Z" fill="white"/>
<path d="M42.7566 27.3968V15.8496H22.7285V27.3968C22.7285 27.9628 22.7285 28.7553 22.841 29.5477L27.5668 26.4911L32.6301 23.2081L37.8059 26.4911L42.5316 29.5477L42.7566 27.3968Z" fill="white"/>
<path d="M22.7286 3.84828C22.2785 3.05583 21.7159 2.48979 21.1534 2.15017C20.5908 1.81055 20.0282 1.81055 19.6906 1.81055H19.5781C19.4656 1.81055 18.903 1.92375 18.5654 2.37658C18.4529 2.603 18.3404 2.82941 18.3404 3.05583C18.3404 3.50866 18.7905 3.96149 19.3531 4.18791C19.8031 4.41432 20.2532 4.64074 20.4782 4.98036C20.7033 5.20677 20.8158 5.43319 20.8158 5.6596C20.8158 5.77281 20.8158 5.88602 20.8158 5.88602C20.8158 5.99923 20.7033 6.11243 20.5908 6.11243C20.3657 6.22564 20.2532 6.33885 20.0282 6.33885H19.9157H19.8031C19.6906 6.33885 19.4656 6.33885 19.3531 6.22564C19.0155 6.11243 18.5654 5.88602 18.1154 5.5464C18.0029 5.43319 17.8903 5.20677 17.6653 4.98036C17.5528 4.86715 17.4403 4.64074 17.2152 4.41432C16.9902 4.18791 16.8777 3.96149 16.6526 3.73508C16.6526 3.73508 16.6526 3.73508 16.6526 3.62187C16.3151 3.16904 15.9775 2.82941 15.64 2.603C14.8524 2.26338 14.2898 2.15017 13.6147 2.26338H13.5022C13.3896 2.26338 13.1646 2.37658 13.0521 2.48979C12.8271 2.603 12.7145 2.71621 12.602 2.82941C12.4895 2.82941 12.377 2.94262 12.377 3.05583C12.2645 3.16904 12.2645 3.39545 12.2645 3.50866C12.2645 3.84828 12.602 4.18791 12.8271 4.30111C13.0521 4.52753 13.3896 4.64074 13.5022 4.75394C14.0647 5.09357 14.1773 5.43319 14.1773 5.5464C14.1773 5.77281 14.1773 5.88602 14.0647 5.99923C13.9522 6.11243 13.7272 6.22564 13.5022 6.22564H13.3896C13.2771 6.22564 13.1646 6.22564 13.1646 6.22564C13.0521 6.22564 12.8271 6.22564 12.7145 6.11243C12.4895 6.11243 12.377 5.99923 12.1519 5.88602C11.8144 5.6596 11.4768 5.31998 11.0268 4.75394C10.8017 4.75394 10.5767 4.52753 10.3517 4.18791C9.67656 3.50866 8.88894 3.16904 8.21383 3.28225H8.10131C7.98879 3.28225 7.76376 3.39545 7.65124 3.39545C7.53872 3.50866 7.31369 3.62187 7.31369 3.73508C7.31369 3.84828 7.20117 3.84828 7.20117 3.96149C7.31369 4.0747 7.53872 4.0747 7.65124 4.18791C7.65124 4.0747 7.65124 4.0747 7.76376 3.96149C7.87628 3.73508 8.10131 3.73508 8.21383 3.73508H8.32635C8.88894 3.73508 9.45152 3.96149 10.0141 4.52753C10.1266 4.75394 10.3517 4.98036 10.5767 5.20677C11.1393 5.77281 11.5894 6.22564 11.9269 6.56526C12.1519 6.67847 12.4895 6.79168 12.7145 6.79168C12.9396 6.79168 13.1646 6.79168 13.5022 6.79168H13.6147C13.9522 6.67847 14.2898 6.56526 14.5148 6.33885C14.7398 6.11243 14.8524 5.77281 14.7399 5.5464C14.7399 5.09357 14.4023 4.64074 13.8397 4.41432C13.6147 4.30111 13.3896 4.18791 13.1646 3.96149C12.9396 3.73508 12.8271 3.62187 12.8271 3.39545C12.8271 3.28224 12.8271 3.28224 12.8271 3.16904C12.9396 3.05583 12.9396 2.94262 13.0521 2.82941C13.1646 2.71621 13.3896 2.71621 13.5022 2.603H13.6147C14.0647 2.48979 14.7398 2.71621 15.1899 3.05583C15.3024 3.16904 15.5275 3.28224 15.7525 3.62187C15.865 3.73508 16.0901 3.96149 16.3151 4.30111C16.5401 4.52753 16.7652 4.75394 16.8777 4.98036C17.2152 5.43319 17.5528 5.77281 17.7778 5.99923C18.1154 6.33885 18.4529 6.56526 18.7905 6.67847C19.0155 6.79168 19.128 6.90489 19.3531 6.90489C19.4656 6.90489 19.5781 6.90489 19.8031 6.90489C19.9157 6.90489 19.9157 6.90489 20.0282 6.90489H20.1407C20.3657 6.90489 20.7033 6.79168 20.9283 6.56526C21.1534 6.45206 21.2659 6.33885 21.3784 6.11243C21.3784 5.99923 21.3784 5.88602 21.3784 5.6596C21.3784 5.31998 21.1534 5.09357 20.9283 4.75394C20.5908 4.41432 20.2532 4.18791 19.6906 3.96149C19.0155 3.62187 18.903 3.28224 18.903 3.16904C18.903 2.94262 19.0155 2.82941 19.128 2.71621C19.2406 2.71621 19.3531 2.603 19.5781 2.48979H19.6906C20.0282 2.48979 20.4782 2.603 20.8158 2.71621C21.3784 2.94262 21.8285 3.39545 22.2785 4.0747L22.7286 3.84828Z" fill="white"/>
<path d="M42.5317 3.84828C42.9818 3.05583 43.5444 2.48979 44.107 2.15017C44.6696 1.81055 45.2322 1.81055 45.5697 1.81055H45.6822C45.7947 1.81055 46.3573 1.92375 46.6949 2.37658C46.8074 2.603 46.9199 2.82941 46.9199 3.05583C46.9199 3.50866 46.4699 3.96149 45.9073 4.18791C45.4572 4.41432 45.0071 4.64074 44.7821 4.98036C44.5571 5.20677 44.4445 5.43319 44.4445 5.6596C44.4445 5.77281 44.4445 5.88602 44.4445 5.88602C44.4445 5.99923 44.5571 6.11243 44.6696 6.11243C44.8946 6.22564 45.0071 6.33885 45.2322 6.33885H45.3447H45.4572C45.5697 6.33885 45.7947 6.33885 45.9073 6.22564C46.2448 6.11243 46.6949 5.88602 47.145 5.5464C47.2575 5.43319 47.37 5.20677 47.595 4.98036C47.7075 4.86715 47.8201 4.64074 48.0451 4.41432C48.2701 4.18791 48.3827 3.96149 48.6077 3.73508C48.6077 3.73508 48.6077 3.73508 48.7202 3.62187C49.0578 3.16904 49.3953 2.82941 49.7329 2.603C50.408 2.26338 50.9706 2.15017 51.6457 2.26338H51.7582C51.8707 2.26338 52.0957 2.37658 52.2083 2.48979C52.4333 2.603 52.5458 2.71621 52.6583 2.82941C52.7708 2.82941 52.8834 2.94262 52.8834 3.05583C52.9959 3.16904 52.9959 3.39545 52.9959 3.50866C52.9959 3.84828 52.6583 4.18791 52.4333 4.30111C52.2082 4.52753 51.9832 4.64074 51.7582 4.75394C51.1956 5.09357 51.0831 5.43319 51.0831 5.5464C51.0831 5.77281 51.0831 5.88602 51.1956 5.99923C51.3081 6.11243 51.5331 6.22564 51.7582 6.22564H51.8707C51.9832 6.22564 52.0957 6.22564 52.0957 6.22564C52.2083 6.22564 52.4333 6.22564 52.5458 6.11243C52.7708 6.11243 52.8834 5.99923 53.1084 5.88602C53.4459 5.6596 53.7835 5.31998 54.2336 4.75394C54.4586 4.52753 54.6836 4.30111 54.9087 3.96149C55.5838 3.28224 56.3714 2.94262 57.0465 3.05583H57.159C57.3841 3.28224 57.4966 3.39545 57.6091 3.39545C57.7216 3.50866 57.9466 3.62187 58.0592 3.73508C58.0592 3.84828 58.1717 3.84828 58.1717 3.96149C58.0592 4.0747 57.8341 4.0747 57.7216 4.18791C57.7216 4.0747 57.7216 4.0747 57.6091 3.96149C57.3841 3.73508 57.2715 3.73508 57.159 3.73508H57.0465C56.4839 3.73508 55.9213 3.96149 55.3587 4.52753C55.1337 4.75394 54.9087 4.98036 54.6836 5.20677C54.121 5.77281 53.671 6.22564 53.3334 6.56526C53.1084 6.67847 52.7708 6.79168 52.5458 6.79168C52.3208 6.79168 52.0957 6.79168 51.7582 6.79168H51.6457C51.3081 6.67847 50.9706 6.56526 50.7455 6.33885C50.5205 6.11243 50.408 5.77281 50.5205 5.5464C50.5205 5.09357 50.858 4.64074 51.4206 4.41432C51.6457 4.30111 51.8707 4.18791 52.0957 3.96149C52.3208 3.73508 52.4333 3.62187 52.4333 3.39545C52.4333 3.28224 52.4333 3.28224 52.4333 3.16904C52.3208 3.05583 52.3208 2.94262 52.2083 2.82941C52.0957 2.71621 51.8707 2.71621 51.7582 2.603H51.6457C51.1956 2.48979 50.5205 2.71621 50.0704 3.05583C49.9579 3.16904 49.7329 3.28224 49.5078 3.62187C49.3953 3.73508 49.1703 3.96149 48.9452 4.30111C48.7202 4.52753 48.4952 4.75394 48.3827 4.98036C48.0451 5.43319 47.7075 5.77281 47.4825 5.99923C47.145 6.33885 46.8074 6.56526 46.4699 6.67847C46.2448 6.79168 46.1323 6.90489 45.9073 6.90489C45.7947 6.90489 45.6822 6.90489 45.4572 6.90489C45.3447 6.90489 45.3447 6.90489 45.2322 6.90489H45.1196C44.8946 6.90489 44.5571 6.79168 44.332 6.56526C44.107 6.45206 43.9945 6.33885 43.882 6.11243C43.9945 5.99923 43.882 5.88602 43.882 5.6596C43.882 5.31998 44.107 5.09357 44.332 4.75394C44.6696 4.41432 45.0071 4.18791 45.5697 3.96149C46.2448 3.62187 46.3573 3.28224 46.3573 3.16904C46.3573 2.94262 46.2448 2.82941 46.1323 2.71621C46.0198 2.71621 45.9073 2.603 45.6822 2.48979H45.5697C45.2322 2.48979 44.7821 2.603 44.4445 2.71621C43.882 2.94262 43.4319 3.39545 42.9818 4.0747L42.5317 3.84828Z" fill="white"/>
<path d="M37.9185 26.491L32.7426 23.208L27.6794 26.491L22.9536 29.5476C23.0661 30.3401 23.1786 31.1325 23.5162 32.0382C23.6287 32.3778 23.7412 32.7174 23.8538 33.0571L32.8552 27.2835L41.8566 33.0571C41.9691 32.7174 42.1941 32.3778 42.3066 31.925C42.5317 31.0193 42.7567 30.2269 42.7567 29.5476L37.9185 26.491Z" fill="#1A1A1A"/>
<path d="M13.7271 13.1318C13.7271 13.0186 13.7271 12.7921 13.6146 12.6789C8.21378 12.4525 4.95077 10.6412 3.03797 8.37704C1.23769 6.2261 0.562588 3.73554 0.45007 1.81101C3.26301 4.86761 6.97609 7.92421 13.6146 9.39591H13.7271H13.9522H14.1772L15.1899 9.62233H15.3024C16.9902 9.96195 18.6779 10.0752 19.8031 10.528C20.3657 10.7544 20.8158 11.094 21.1533 11.5469C21.4909 11.9997 21.6034 12.7921 21.6034 13.811H22.0534C22.0534 12.7921 21.8284 11.9997 21.4909 11.3204C21.2658 10.8676 20.8158 10.528 20.3657 10.3016C19.0155 9.62233 17.2152 9.50912 15.3024 9.1695L14.0647 8.94308H13.8397C6.97609 7.47138 3.26301 4.18837 0.45007 1.01855L0 1.13176V1.24497C0 3.39591 0.675106 6.2261 2.70042 8.71667C4.72574 11.094 8.21378 13.0186 13.7271 13.1318Z" fill="white"/>
<path d="M51.7582 8.83078H51.5332L50.1829 9.05719C48.4952 9.39681 46.8074 9.51002 45.5697 9.96285C44.8946 10.1893 44.4445 10.6421 43.9945 11.2081C43.6569 11.7742 43.4319 12.5666 43.4319 13.6987H43.882C43.882 12.6798 44.107 12.0006 44.332 11.4346C44.5571 11.0949 44.8946 10.7553 45.2322 10.5289C46.3573 9.84964 48.1576 9.84964 50.1829 9.39681L51.1956 9.1704L51.5332 9.05719H51.7582H51.8707C58.5092 7.58549 62.2223 4.52889 64.9227 1.47229C64.8102 3.39682 64.1351 6.00059 62.3348 8.03832C60.422 10.3025 57.159 12.1138 51.8707 12.3402C51.8707 12.4534 51.8707 12.6798 51.7582 12.793C57.2715 12.5666 60.6471 10.7553 62.6724 8.37795C64.6977 5.88738 65.3728 3.05719 65.3728 0.90625V1.13267L64.9227 1.01946C62.2223 4.18927 58.6218 7.35908 51.7582 8.83078Z" fill="white"/>
<path d="M18.3402 21.6231L18.1152 21.5099C16.765 23.6608 14.9647 24.34 13.277 24.34C12.4893 24.34 11.7017 24.2268 11.1391 24.0004C12.3768 23.774 13.502 23.208 14.5147 22.6419C15.6398 21.9627 16.54 21.2834 17.1026 20.491C16.99 20.3778 16.8775 20.2646 16.765 20.1514C16.2024 20.9438 15.3023 21.6231 14.2896 22.3023C13.1644 22.9816 11.7017 23.5476 10.239 23.774L10.1265 24.2268C10.9141 24.5665 12.0393 24.9061 13.277 24.9061C14.9647 24.9061 16.99 24.2268 18.4528 21.9627C18.4528 21.7363 18.3402 21.7363 18.3402 21.6231Z" fill="white"/>
<path d="M20.3658 23.2072C19.9157 24.3393 19.5782 25.811 19.5782 27.2827C19.5782 27.6223 19.5782 28.0751 19.6907 28.4147C19.0156 27.6223 18.453 26.377 18.453 25.0185C18.453 24.2261 18.678 23.3204 19.2406 22.3015C19.1281 22.1883 19.0156 22.0751 18.9031 21.9619C18.228 22.9808 18.0029 23.9997 18.0029 24.9053C18.0029 26.8298 19.1281 28.4147 19.9157 29.2072L20.3658 28.9808C20.2533 28.3015 20.1408 27.7355 20.1408 27.0563C20.1408 25.6978 20.3658 24.3393 20.8159 23.3204C20.5908 23.4336 20.4783 23.3204 20.3658 23.2072Z" fill="white"/>
<path d="M16.6526 19.8108C16.5401 19.6976 16.4275 19.5844 16.315 19.4712C14.2897 20.8297 12.3769 21.2825 10.8017 21.2825C8.21375 21.2825 6.07592 20.0372 4.95074 18.6787C6.41347 18.9051 7.76368 19.1316 9.00137 19.1316C11.9268 19.1316 13.8396 18.4523 15.3024 17.6599C15.1898 17.5467 15.1898 17.3202 15.0773 17.207C13.6146 17.9995 11.8143 18.6787 9.00137 18.6787C7.76368 18.6787 6.18843 18.5655 4.50067 18.1127L4.27563 18.4523C5.40081 20.0372 7.76368 21.7353 10.9142 21.7353C12.4894 21.7353 14.5147 21.1693 16.6526 19.8108Z" fill="white"/>
<path d="M14.8522 16.8679C14.7397 16.7547 14.7397 16.5282 14.6272 16.415C13.1644 16.7547 11.8142 16.8679 10.5765 16.8679C7.65108 16.8679 5.40072 16.0754 3.938 14.8301C2.58779 13.8113 1.68764 12.566 1.12506 11.2075C4.83814 13.2452 8.32618 14.0377 11.9267 14.0377C12.6019 14.0377 13.1644 14.0377 13.8395 13.9245C13.8395 13.8113 13.727 13.5849 13.727 13.4716C13.1644 13.4716 12.4893 13.5849 11.9267 13.5849C8.21367 13.5849 4.6131 12.6792 0.787504 10.415L0.449951 10.7547C1.01254 12.3396 2.0252 13.9245 3.60044 15.1698C5.28821 16.415 7.53856 17.3207 10.5765 17.3207C11.8142 17.3207 13.277 17.0943 14.8522 16.8679Z" fill="white"/>
<path d="M51.1954 22.189C50.1827 21.623 49.2826 20.8305 48.72 20.0381C48.6075 20.1513 48.495 20.2645 48.3824 20.3777C48.945 21.1702 49.8452 21.8494 50.9703 22.5287C51.983 23.0947 53.1082 23.5475 54.3459 23.8871C53.6708 24.1136 52.9957 24.2268 52.208 24.2268C50.6328 24.2268 48.8325 23.6607 47.3698 21.5098C47.2573 21.623 47.1447 21.7362 47.0322 21.8494C48.495 24.1136 50.4078 24.7928 52.208 24.7928C53.4457 24.7928 54.5709 24.4532 55.3585 24.1136L55.246 23.6607C53.7833 23.4343 52.3206 22.8683 51.1954 22.189Z" fill="white"/>
<path d="M46.2447 22.4149C46.8073 23.3206 47.0323 24.2262 47.0323 25.0187C47.0323 26.3772 46.4697 27.6224 45.7946 28.4149C45.7946 28.0753 45.9071 27.6224 45.9071 27.2828C45.9071 25.8111 45.5696 24.4526 45.1195 23.3206C45.007 23.4338 44.8945 23.547 44.6694 23.547C45.1195 24.5658 45.3445 25.9243 45.3445 27.2828C45.3445 27.9621 45.3445 28.5281 45.1195 29.2073L45.5696 29.4338C46.3572 28.6413 47.4824 27.0564 47.4824 25.1319C47.4824 24.2262 47.2573 23.2073 46.5822 22.1885C46.5822 22.3017 46.4697 22.3017 46.2447 22.4149Z" fill="white"/>
<path d="M56.5963 18.5664C53.7833 18.5664 51.983 17.8872 50.6328 17.0947C50.5203 17.2079 50.5203 17.4343 50.4078 17.5476C51.8705 18.34 53.7833 19.0193 56.5963 19.0193C57.7214 19.0193 59.0717 18.906 60.6469 18.5664C59.5217 19.9249 57.3839 21.1702 54.796 21.1702C53.1082 21.1702 51.3079 20.7174 49.2826 19.3589C49.1701 19.4721 49.0576 19.5853 48.9451 19.6985C50.9704 21.057 52.9957 21.623 54.6835 21.623C57.834 21.623 60.1968 19.9249 61.322 18.34L61.097 18.1136C59.2967 18.4532 57.834 18.5664 56.5963 18.5664Z" fill="white"/>
<path d="M53.4458 13.5849C52.8832 13.5849 52.3206 13.5849 51.758 13.4716C51.758 13.5849 51.6455 13.8113 51.6455 13.9245C52.2081 13.9245 52.8832 14.0377 53.4458 14.0377C57.0463 14.0377 60.5344 13.2452 64.2474 11.2075C63.6849 12.4528 62.7847 13.8113 61.4345 14.8301C59.8593 15.9622 57.7214 16.8679 54.796 16.8679C53.6708 16.8679 52.3206 16.7547 50.8578 16.415C50.7453 16.5282 50.7453 16.7547 50.6328 16.8679C52.0955 17.2075 53.5583 17.3207 54.796 17.3207C57.8339 17.3207 60.0843 16.415 61.7721 15.1698C63.4598 13.9245 64.36 12.2264 64.9225 10.7547L64.585 10.415C60.7594 12.7924 57.1588 13.5849 53.4458 13.5849Z" fill="white"/>
<path d="M37.3559 40.5292C37.806 41.0952 38.031 41.7744 38.031 42.5669C38.031 43.5858 37.5809 44.7178 36.5683 45.3971C36.5683 45.0575 36.5683 44.831 36.5683 44.4914C36.5683 42.7933 36.0057 41.6612 35.7806 41.3216C35.6681 41.4348 35.4431 41.4348 35.3306 41.548C35.4431 41.6612 36.1182 42.6801 36.1182 44.4914C36.1182 44.831 36.1182 45.2839 36.0057 45.7367L36.3432 45.9631C37.806 45.2839 38.4811 43.9254 38.4811 42.5669C38.4811 41.7744 38.256 40.8688 37.6934 40.3027L37.3559 40.5292Z" fill="white"/>
<path d="M40.1687 38.3767C40.7313 38.9428 41.0688 39.7352 41.0688 40.6409C41.0688 41.4333 40.7313 42.339 39.9437 43.0182C39.9437 42.905 39.9437 42.905 39.9437 42.7918C39.9437 41.6598 39.4936 40.3013 38.706 39.5088C38.5934 39.622 38.5934 39.622 38.4809 39.7352L38.3684 39.8484C39.0435 40.5277 39.4936 41.8862 39.4936 42.905C39.4936 43.1315 39.4936 43.3579 39.3811 43.5843L39.7186 43.8107C40.9563 43.0182 41.5189 41.773 41.5189 40.6409C41.5189 39.622 41.0688 38.7164 40.5062 38.0371C40.3937 38.1503 40.2812 38.2635 40.1687 38.3767Z" fill="white"/>
<path d="M42.5316 35.6599C42.9816 36.226 43.0942 36.9052 43.0942 37.6977C43.0942 38.3769 42.9816 38.943 42.6441 39.6222C42.3065 38.2637 41.744 37.4713 41.4064 37.1316C41.2939 37.2448 41.1814 37.358 41.0688 37.4713C41.4064 37.8109 42.0815 38.6033 42.3065 40.4147L42.7566 40.5279C43.3192 39.6222 43.6568 38.7165 43.6568 37.8109C43.6568 36.9052 43.4317 36.1128 42.8691 35.3203C42.6441 35.4335 42.6441 35.5467 42.5316 35.6599Z" fill="white"/>
<path d="M33.1926 7.81152C33.1926 7.92473 33.1926 8.15115 33.1926 8.26435C33.1926 8.9436 33.5302 9.62284 33.9803 9.96247L34.3178 9.62284C33.9803 9.28322 33.7552 8.83039 33.7552 8.26435C33.7552 8.15115 33.7552 7.92473 33.7552 7.81152C33.5302 7.81152 33.4177 7.81152 33.1926 7.81152Z" fill="white"/>
<path d="M24.4162 6.90538C24.0787 6.56576 23.9662 6.33935 23.9662 5.99972V5.88652C23.9662 5.32048 24.4162 4.75444 25.3164 4.52803C25.2038 4.75444 25.0913 5.20727 25.0913 5.6601C25.0913 5.99972 25.2038 6.33935 25.3164 6.67897C25.5414 6.67897 25.6539 6.67897 25.879 6.67897C25.6539 6.33935 25.5414 5.99972 25.5414 5.6601C25.5414 5.43369 25.6539 5.09406 25.6539 4.86765C25.6539 4.75444 25.7664 4.64123 25.7664 4.64123C25.7664 4.64123 25.7664 4.64123 25.7664 4.52803L25.5414 4.30161L25.4289 4.1884L25.3164 4.0752C24.1912 4.1884 23.5161 4.98086 23.4036 5.88652V5.99972C23.4036 6.45255 23.6286 6.90538 23.9662 7.24501C24.0787 7.1318 24.1912 7.01859 24.4162 6.90538Z" fill="white"/>
<path d="M27.0042 4.64243L26.7791 4.86885C26.8917 5.09526 26.8917 5.32168 26.8917 5.54809C26.8917 6.00092 26.7791 6.34054 26.2166 6.79337C26.4416 6.79337 26.5541 6.90658 26.7791 6.90658C27.2292 6.45375 27.3417 6.00092 27.3417 5.54809C27.3417 5.32168 27.3417 5.09526 27.2292 4.86885C27.5668 4.98205 27.7918 5.20847 27.9043 5.32168C28.1294 5.54809 28.2419 5.88771 28.2419 6.22734V6.34054C28.2419 6.68017 28.0168 7.01979 27.5668 7.2462C27.6793 7.35941 27.9043 7.35941 28.0168 7.47262C28.3544 7.133 28.5794 6.79337 28.6919 6.34054V6.22734C28.6919 5.77451 28.5794 5.43488 28.2419 5.09526C28.0168 4.75564 27.6793 4.52922 27.2292 4.41602L27.0042 4.64243Z" fill="white"/>
<path d="M26.3291 3.39597C26.4416 3.39597 26.4416 3.28276 26.3291 3.39597L26.4416 3.28276C26.5542 3.28276 26.5542 3.50918 26.5542 3.73559V3.8488H27.0042C27.0042 3.73559 27.0042 3.73559 27.0042 3.62238C27.0042 3.50918 27.0042 3.39597 27.0042 3.28276C27.0042 3.16955 27.0042 3.05635 26.8917 2.94314C26.8917 2.82993 26.7792 2.71672 26.6667 2.71672C26.5542 2.60352 26.4416 2.60352 26.3291 2.60352H26.2166C26.1041 2.60352 26.1041 2.60352 25.9916 2.71672C25.8791 2.82993 25.7665 2.94314 25.654 3.05635C25.5415 3.16955 25.5415 3.39597 25.5415 3.62238H25.9916C26.2166 3.62238 26.3291 3.50918 26.3291 3.39597Z" fill="white"/>
<path d="M34.6554 41.7734C34.5429 41.8866 34.4303 41.8866 34.2053 41.9998C34.3178 42.4527 34.4303 42.9055 34.4303 43.4716C34.4303 44.1508 34.3178 44.9432 33.9803 45.7357C33.7552 46.4149 33.3052 46.981 32.6301 47.4338C32.0675 46.981 31.6174 46.5282 31.3924 45.8489C31.1673 45.1697 31.0548 44.4904 31.0548 43.8112C31.0548 43.1319 31.1673 42.5659 31.2798 42.1131C31.1673 41.9999 30.9423 41.9999 30.8298 41.8866C30.7173 42.3395 30.6047 43.0187 30.6047 43.8112C30.6047 44.6036 30.7173 45.3961 31.0548 46.0753C31.3924 46.7546 31.8424 47.4338 32.6301 47.9999H32.8551C33.6427 47.547 34.2053 46.7546 34.5429 45.9621C34.8804 45.1697 34.9929 44.3772 34.9929 43.5848C34.8804 42.7923 34.8804 42.2263 34.6554 41.7734Z" fill="white"/>
<path d="M29.0295 44.3772C29.0295 44.6036 29.0295 44.9432 29.0295 45.2828C28.0168 44.6036 27.5667 43.5847 27.5667 42.4526C27.5667 41.7734 27.7918 40.9809 28.2418 40.4149C28.1293 40.3017 28.0168 40.3017 27.7918 40.1885C27.3417 40.8677 27.0042 41.6602 27.0042 42.4526C27.0042 43.8111 27.6793 45.1696 29.142 45.8489L29.4795 45.6224C29.367 45.1696 29.367 44.7168 29.367 44.3772C29.367 43.3583 29.5921 42.679 29.8171 42.113C29.9296 41.8866 30.0421 41.6602 30.0421 41.547C30.0421 41.547 30.0421 41.4338 30.1546 41.4338C30.0421 41.3206 29.8171 41.3206 29.7046 41.2073C29.5921 41.6602 29.0295 42.7923 29.0295 44.3772Z" fill="white"/>
<path d="M27.2291 39.7352C27.1166 39.622 27.0041 39.5088 26.8916 39.5088C26.2165 40.3013 25.7664 41.6598 25.7664 42.7918C25.7664 42.905 25.7664 42.905 25.7664 43.0182C24.9788 42.339 24.6412 41.4333 24.6412 40.6409C24.6412 39.8484 24.9788 38.9428 25.5414 38.3767C25.4289 38.2635 25.3163 38.1503 25.2038 38.0371C24.6412 38.7164 24.1912 39.622 24.1912 40.5277C24.1912 41.6598 24.7538 42.905 25.9914 43.6975L26.329 43.4711C26.329 43.2447 26.2165 43.0182 26.2165 42.7918C26.104 41.773 26.554 40.4145 27.2291 39.7352Z" fill="white"/>
<path d="M24.5289 37.5845C24.4163 37.4713 24.3038 37.358 24.1913 37.2448C23.8537 37.5845 23.2912 38.3769 22.9536 39.6222C22.6161 39.0562 22.5035 38.3769 22.5035 37.6977C22.5035 37.0184 22.7286 36.3392 23.0661 35.7731C22.9536 35.6599 22.8411 35.4335 22.7286 35.3203C22.2785 35.9996 22.0535 36.792 22.0535 37.6977C22.0535 38.6033 22.391 39.6222 22.9536 40.4147L23.4037 40.3014C23.5162 39.1694 23.8537 38.4901 24.1913 37.9241C24.1913 37.8109 24.4163 37.6977 24.5289 37.5845Z" fill="white"/>
<path d="M26.3292 8.60307C26.3292 8.71628 26.2167 8.71628 26.1041 8.71628C25.9916 8.71628 25.8791 8.60307 25.8791 8.48987C25.9916 8.60307 26.2167 8.60307 26.3292 8.60307ZM25.429 8.60307C25.5416 8.9427 25.7666 9.16911 26.1041 9.16911C26.4417 9.16911 26.6667 8.9427 26.7793 8.71628C27.1168 8.82949 27.4544 9.0559 27.7919 9.16911L28.0169 8.71628C27.6794 8.60307 27.3418 8.37666 27.0043 8.26345C26.6667 8.15024 26.2167 7.92383 25.8791 7.92383C25.6541 7.92383 25.429 7.92383 25.3165 8.03704C25.0915 8.15024 24.979 8.26345 24.8665 8.48987L25.3165 8.71628C25.204 8.71628 25.3165 8.71628 25.429 8.60307Z" fill="white"/>
<path d="M24.8664 11.3209C24.979 11.3209 25.204 11.3209 25.3165 11.4341L25.5415 10.9813C25.3165 10.8681 25.0915 10.7549 24.8664 10.7549C24.4164 10.7549 24.0788 10.9813 23.8538 11.0945C23.5162 11.2077 23.2912 11.3209 22.9536 11.3209C22.8411 11.3209 22.6161 11.3209 22.391 11.2077L22.166 11.6605C22.3911 11.7738 22.6161 11.887 22.8411 11.887C23.2912 11.887 23.6287 11.6605 23.8538 11.5473C24.4164 11.4341 24.6414 11.3209 24.8664 11.3209Z" fill="white"/>
<path d="M32.5176 0.679245C32.6301 0.566038 32.6301 0.566038 32.6301 0.566038C32.6301 0.566038 32.7426 0.792453 32.8552 0.90566C32.8552 1.13208 32.9677 1.24528 32.9677 1.4717H33.4177C33.4177 1.13208 33.3052 0.792453 33.1927 0.45283C33.0802 0.339623 33.0802 0.226415 32.9677 0.113208C32.9677 0.113208 32.8552 0 32.7426 0C32.6301 0 32.4051 0.113208 32.4051 0.113208C32.2926 0.226415 32.1801 0.45283 32.0675 0.679245C31.955 0.90566 31.955 1.13208 31.955 1.4717H32.4051C32.4051 1.13208 32.5176 0.90566 32.5176 0.679245Z" fill="white"/>
<path d="M31.6174 9.96247C32.0674 9.50964 32.405 8.9436 32.405 8.26435C32.405 8.15115 32.405 7.92473 32.405 7.81152C32.2925 7.81152 32.0674 7.81152 31.9549 7.81152C31.9549 7.92473 31.9549 8.03794 31.9549 8.26435C31.9549 8.83039 31.7299 9.28322 31.3923 9.62284L31.6174 9.96247Z" fill="white"/>
<path d="M21.9409 8.71772C21.8284 8.83093 21.8284 9.05734 21.8284 9.28376C21.8284 9.73659 22.0534 10.3026 22.7285 10.7555L23.0661 10.6422C23.4036 10.1894 23.8537 9.963 24.3038 9.963C24.6413 9.963 25.0914 10.0762 25.4289 10.3026C25.7665 10.4158 25.9915 10.6422 26.104 10.8687C25.9915 11.3215 25.654 11.7743 25.3164 12.0007C24.8663 12.2272 24.4163 12.4536 23.7412 12.4536L23.6287 12.7932C23.9662 13.246 24.5288 13.5856 25.0914 13.5856C25.3164 13.5856 25.654 13.4724 25.879 13.3592C25.9915 13.246 26.104 13.246 26.2166 13.1328C26.4416 13.0196 26.5541 12.7932 26.7791 12.5668C27.0042 12.4536 27.1167 12.3404 27.3417 12.2272C27.4542 12.2272 27.4542 12.2272 27.5668 12.2272C27.7918 12.2272 27.9043 12.3404 28.0168 12.4536C28.1294 12.5668 28.2419 12.7932 28.2419 13.0196V13.1328C28.2419 13.246 28.2419 13.3592 28.1294 13.4724C28.1294 13.5856 28.0168 13.6988 27.9043 13.8121H28.4669C28.4669 13.6988 28.5794 13.6988 28.5794 13.5856C28.6919 13.3592 28.6919 13.1328 28.6919 13.1328V13.0196C28.6919 12.68 28.5794 12.3404 28.3544 12.1139C28.1294 11.8875 27.7918 11.7743 27.5668 11.7743C27.4542 11.7743 27.3417 11.7743 27.3417 11.7743C27.0042 11.8875 26.6666 12.1139 26.4416 12.3404C26.3291 12.4536 26.2166 12.5668 26.104 12.68C25.9915 12.7932 25.879 12.9064 25.879 12.9064C25.7665 13.0196 25.5415 13.0196 25.4289 13.0196C25.2039 13.0196 24.8663 12.9064 24.6413 12.7932C25.0914 12.68 25.5414 12.5668 25.879 12.3404C26.3291 12.0007 26.7791 11.5479 26.8917 10.8687V10.7555C26.7791 10.4158 26.4416 10.0762 25.9915 9.84979C25.5415 9.62338 25.0914 9.51017 24.6413 9.51017C24.0787 9.51017 23.5161 9.73659 23.1786 10.1894C22.7285 9.84979 22.616 9.51017 22.616 9.17055C22.616 9.05734 22.616 8.83093 22.7285 8.71772C22.5035 8.71772 22.5035 8.60451 22.5035 8.60451C22.7285 8.26489 23.0661 8.26489 23.2911 8.26489C23.5161 8.26489 23.7412 8.26489 23.8537 8.3781C23.9662 8.3781 23.9662 8.3781 24.0787 8.4913L24.4163 8.26489C24.5288 8.03847 24.5288 7.92527 24.7538 7.92527C24.8663 7.81206 25.2039 7.81206 25.5415 7.81206C26.2166 7.81206 27.2292 8.03847 28.2419 8.60451C28.8045 8.94413 29.367 8.94413 29.9296 8.94413C30.0422 8.94413 30.0422 8.94413 30.1547 8.94413H30.2672C30.2672 9.05734 30.1547 9.05734 30.0422 9.17055L29.9296 9.28376C29.8171 9.28376 29.8171 9.39696 29.7046 9.39696C29.9296 9.73659 30.1547 9.963 30.3797 10.1894C31.1673 11.2083 31.7299 12.5668 31.955 13.8121H32.405C32.0675 12.4536 31.6174 10.9819 30.7173 9.84979C30.6047 9.62338 30.3797 9.51017 30.2672 9.39696C30.2672 9.39696 30.2672 9.39696 30.3797 9.39696C30.8298 9.17055 31.0548 8.71772 31.0548 8.71772L30.8298 8.3781C30.7173 8.3781 30.3797 8.4913 30.0422 8.4913C29.5921 8.4913 29.0295 8.3781 28.5794 8.15168C28.5794 8.15168 28.5794 8.15168 28.4669 8.15168C28.1294 7.92526 27.9043 7.92527 27.7918 7.81206C27.7918 7.81206 27.7918 7.81206 27.6793 7.81206C27.5668 7.69885 27.3417 7.69885 27.2292 7.58564C27.1167 7.58564 27.1167 7.58564 27.0042 7.47243C26.8917 7.47243 26.7791 7.47243 26.7791 7.35923H26.6666C26.5541 7.35923 26.4416 7.35923 26.2166 7.24602C25.9915 7.24602 25.7665 7.13281 25.5415 7.13281C25.2039 7.13281 24.8663 7.24602 24.5288 7.35923L24.4163 7.47243C24.3038 7.58564 24.1912 7.69885 24.1912 7.81206C23.9662 7.81206 23.7412 7.69885 23.5161 7.69885C23.1786 7.69885 22.616 7.81206 22.2784 8.26489C22.0534 8.3781 22.0534 8.4913 21.9409 8.71772Z" fill="white"/>
<path d="M39.7187 4.64123C39.8312 4.86765 39.9438 5.20727 39.9438 5.6601C39.9438 5.99972 39.8312 6.33935 39.6062 6.67897C39.8312 6.67897 40.0563 6.67897 40.1688 6.67897C40.3938 6.33935 40.5063 5.99972 40.5063 5.6601C40.5063 5.32048 40.3938 4.98086 40.3938 4.75444C40.3938 4.64123 40.3938 4.64123 40.2813 4.52803C41.0689 4.64123 41.519 5.32048 41.6315 5.88652V5.99972C41.6315 6.33935 41.519 6.67897 41.1814 6.90538C41.294 7.01859 41.4065 7.1318 41.519 7.24501C41.8566 6.90538 42.0816 6.45255 42.0816 5.99972V5.88652C41.9691 4.98086 41.294 4.30161 40.1688 4.0752L40.0563 4.1884L39.9438 4.30161L39.7187 4.64123Z" fill="white"/>
<path d="M36.6807 6.22629C36.6807 6.67912 36.9057 7.13195 37.3558 7.35836C37.4683 7.24515 37.6933 7.24515 37.8058 7.13195C37.3558 6.90553 37.1307 6.56591 37.1307 6.22629V6.11308C37.1307 5.77346 37.2433 5.54704 37.4683 5.20742C37.5808 4.981 37.9184 4.8678 38.1434 4.75459C38.0309 4.981 38.0309 5.20742 38.0309 5.43383C38.0309 5.88666 38.1434 6.33949 38.5935 6.79232C38.8185 6.79232 38.931 6.67912 39.1561 6.67912C38.706 6.22629 38.4809 5.88666 38.4809 5.43383C38.4809 5.20742 38.4809 4.981 38.5935 4.75459L38.3684 4.52817L38.1434 4.30176C37.6933 4.41497 37.3558 4.64138 37.1307 4.981C36.7932 5.32063 36.6807 5.77346 36.6807 6.11308V6.22629Z" fill="white"/>
<path d="M38.8184 3.96215V3.84895C38.8184 3.62253 38.8184 3.50932 38.931 3.39612L39.0435 3.28291C39.156 3.28291 39.2685 3.50932 39.2685 3.84895H39.7186C39.7186 3.62253 39.6061 3.50932 39.6061 3.28291C39.6061 3.28291 39.6061 3.1697 39.4936 3.1697C39.381 3.05649 39.381 2.94329 39.2685 2.94329C39.156 2.94329 39.156 2.83008 39.0435 2.83008H38.931C38.8184 2.83008 38.7059 2.94329 38.5934 2.94329C38.4809 3.05649 38.3684 3.28291 38.2559 3.50932C38.2559 3.62253 38.2559 3.73574 38.2559 3.84895C38.2559 3.96215 38.2559 3.96215 38.2559 4.07536L38.8184 3.96215Z" fill="white"/>
<path d="M39.6062 8.49106C39.6062 8.60427 39.4936 8.71748 39.3811 8.71748C39.2686 8.71748 39.2686 8.71748 39.1561 8.60427C39.2686 8.60427 39.4936 8.60427 39.6062 8.49106ZM39.3811 9.28352C39.7187 9.28352 40.0562 9.0571 40.0562 8.71748C40.1687 8.71748 40.2813 8.83069 40.3938 9.0571L40.8439 8.83069C40.7313 8.60427 40.5063 8.49106 40.3938 8.37786C40.1687 8.26465 40.0562 8.26465 39.8312 8.26465C39.4936 8.26465 39.0436 8.37786 38.706 8.60427C38.3685 8.71748 38.0309 8.94389 37.6934 9.0571L37.9184 9.50993C38.2559 9.39672 38.5935 9.17031 38.9311 9.0571C38.8185 9.0571 39.0436 9.28352 39.3811 9.28352Z" fill="white"/>
<path d="M42.4192 11.4342C42.1942 11.4342 41.8566 11.321 41.6316 11.2078C41.2941 11.0946 40.9565 10.8682 40.619 10.8682C40.3939 10.8682 40.1689 10.9814 39.9438 11.0946L40.1689 11.5474C40.2814 11.321 40.3939 11.321 40.5064 11.321C40.7315 11.321 41.069 11.4342 41.2941 11.5474C41.6316 11.6606 41.9692 11.887 42.3067 11.887C42.5318 11.887 42.7568 11.887 42.9818 11.6606V11.321C42.7568 11.4342 42.6443 11.4342 42.4192 11.4342Z" fill="white"/>
<path d="M41.0688 7.58474L40.9563 7.47153C40.7313 7.35832 40.3937 7.24512 39.9437 7.24512C39.7186 7.24512 39.4936 7.24512 39.2685 7.35832C39.156 7.35832 39.0435 7.35832 38.8185 7.47153H38.706C38.5934 7.47153 38.4809 7.47153 38.4809 7.58474C38.3684 7.58474 38.3684 7.58474 38.2559 7.69795C38.1434 7.69795 37.9183 7.81115 37.8058 7.92436C37.8058 7.92436 37.8058 7.92436 37.6933 7.92436C37.4683 7.92436 37.3557 7.92436 37.1307 8.03757C37.1307 8.03757 37.1307 8.03757 37.0182 8.03757C36.5681 8.26398 36.0055 8.37719 35.5555 8.37719C35.1054 8.37719 34.7678 8.26399 34.7678 8.26399L34.4303 8.60361C34.4303 8.60361 34.5428 8.83002 34.7678 9.05644C34.8804 9.16965 34.9929 9.28285 35.1054 9.39606C35.1054 9.39606 35.1054 9.39606 35.2179 9.39606C35.1054 9.50927 34.8804 9.73568 34.7678 9.84889C33.8677 10.981 33.3051 12.4527 33.0801 13.8112H33.5301C33.7552 12.5659 34.3178 11.3206 35.1054 10.1885C35.3304 9.9621 35.5555 9.62248 35.7805 9.39606C35.668 9.39606 35.668 9.28285 35.5555 9.28285L35.4429 9.16965C35.3304 9.05644 35.3304 8.94323 35.2179 8.94323H35.3304C35.4429 8.94323 35.4429 8.94323 35.5555 8.94323C36.0055 8.94323 36.6806 8.83002 37.2432 8.60361C38.2559 8.03757 39.2685 7.81115 39.9437 7.81115C40.2812 7.81115 40.5062 7.92436 40.7313 7.92436C40.9563 8.03757 40.9563 8.15078 40.9563 8.26399L41.2939 8.4904C41.4064 8.4904 41.7439 8.37719 42.0815 8.37719C42.419 8.37719 42.6441 8.4904 42.8691 8.71681C42.8691 8.71681 42.9816 8.83002 42.9816 8.94323C42.9816 9.05644 43.0941 9.16965 43.0941 9.39606C43.0941 9.73568 42.9816 10.0753 42.5316 10.4149C42.0815 9.9621 41.5189 9.73568 40.9563 9.73568C40.5062 9.73568 40.0562 9.84889 39.6061 10.0753C39.3811 10.1885 39.0435 10.4149 38.8185 10.8678V10.981C38.931 11.6602 39.3811 12.113 39.8311 12.4527C40.1687 12.6791 40.6188 12.7923 41.0688 12.9055C40.8438 13.0187 40.6188 13.1319 40.2812 13.1319C40.0562 13.1319 39.9437 13.1319 39.8311 13.0187C39.8311 13.0187 39.7186 12.9055 39.6061 12.7923C39.3811 12.6791 39.2685 12.4527 39.0435 12.2262C38.8185 11.9998 38.5934 11.8866 38.3684 11.7734C38.2559 11.7734 38.1434 11.7734 38.1434 11.7734C37.8058 11.7734 37.5808 11.8866 37.3557 12.113C37.1307 12.3395 37.0182 12.6791 37.0182 13.0187V13.1319C37.0182 13.1319 37.0182 13.3583 37.1307 13.5847C37.1307 13.6979 37.2432 13.6979 37.2432 13.8112H37.8058C37.6933 13.6979 37.5808 13.5847 37.5808 13.4715C37.5808 13.2451 37.5808 13.1319 37.4683 13.1319V13.0187C37.4683 12.7923 37.5808 12.5659 37.6933 12.4527C37.8058 12.3395 38.0309 12.2262 38.1434 12.2262C38.2559 12.2262 38.2559 12.2262 38.3684 12.2262C38.5934 12.2262 38.8185 12.4527 39.0435 12.6791C39.156 12.7923 39.2685 12.9055 39.3811 13.0187C39.4936 13.1319 39.6061 13.2451 39.7186 13.2451C39.9437 13.3583 40.1687 13.4715 40.5062 13.4715C41.0688 13.4715 41.6314 13.1319 41.969 12.6791L41.6314 12.4527C41.0688 12.4527 40.5062 12.3395 40.0562 11.9998C39.7186 11.7734 39.3811 11.4338 39.2685 10.8678C39.3811 10.6413 39.6061 10.4149 39.9437 10.3017C40.2812 10.0753 40.7313 9.9621 41.0688 9.9621C41.5189 9.9621 41.969 10.1885 42.3065 10.6413L42.6441 10.7546C43.3192 10.3017 43.5442 9.73568 43.5442 9.28285C43.5442 9.05644 43.5442 8.83002 43.4317 8.71681C43.3192 8.60361 43.3192 8.37719 43.2067 8.37719C42.8691 7.92436 42.419 7.81115 41.969 7.81115C41.6314 7.81115 41.4064 7.92436 41.2939 7.92436C41.2939 7.69795 41.1813 7.69795 41.0688 7.58474Z" fill="white"/>
<path d="M21.491 14.6035V23.9997V27.396C21.491 28.9809 21.491 31.5846 22.8412 34.1884C22.9537 34.4148 23.0662 34.6413 23.1787 34.7545C23.2912 34.8677 23.4038 34.9809 23.4038 35.2073C24.979 37.5846 27.6794 39.8488 32.5177 41.7733H32.6302H32.7427C37.6935 39.8488 40.3939 37.4714 41.9692 35.0941C42.0817 34.9809 42.0817 34.8677 42.1942 34.7545C42.3067 34.528 42.4192 34.4148 42.5318 34.1884C43.882 31.4714 43.882 28.9809 43.882 27.396V24.1129V14.6035H21.491ZM43.5444 24.3394V27.396C43.5444 28.9809 43.5444 31.4714 42.1942 33.962C40.844 36.4526 38.1436 39.1696 32.7427 41.3205C27.3419 39.1696 24.6415 36.4526 23.2912 33.962C21.941 31.3582 21.941 28.9809 21.941 27.396V24.3394V15.1696H43.4319L43.5444 24.3394Z" fill="white"/>
<path d="M34.4303 7.35803C34.5428 7.35803 34.5428 7.35803 34.4303 7.35803C34.7679 7.47124 34.9929 7.47124 35.2179 7.58444L35.5555 7.24482C35.3304 7.13161 35.1054 7.01841 34.7679 7.01841C34.3178 6.9052 33.8677 6.79199 33.4176 6.79199C33.1926 6.79199 32.8551 6.79199 32.5175 6.79199C32.1799 6.79199 31.8424 6.79199 31.5048 6.9052C31.0548 6.9052 30.6047 7.01841 30.2671 7.13161C30.0421 7.24482 29.8171 7.24482 29.592 7.35803L29.9296 7.69765C30.7172 7.35803 31.5048 7.24482 32.5175 7.24482C33.3051 7.13161 33.9802 7.24482 34.4303 7.35803Z" fill="white"/>
<path d="M35.6682 2.151C35.3306 1.81138 34.768 1.58496 34.2054 1.58496C33.9804 1.58496 33.8679 1.58496 33.6428 1.69817L33.4178 2.03779C33.5303 2.37741 33.5303 2.71704 33.5303 3.05666C33.5303 3.7359 33.3053 4.30194 33.0803 4.75477C32.9677 4.86798 32.8552 4.98119 32.8552 5.09439L33.3053 5.32081C33.4178 5.2076 33.5303 4.98119 33.7554 4.75477C33.9804 4.30194 34.2054 3.7359 34.2054 2.94345C34.2054 2.71704 34.2054 2.37741 34.0929 2.151C34.2054 2.151 34.2054 2.151 34.318 2.151C34.768 2.151 35.1056 2.26421 35.4431 2.60383C35.6682 2.83024 35.8932 3.28307 35.8932 3.6227C35.8932 4.18873 35.6682 4.64156 35.4431 5.09439C35.2181 5.54722 34.8805 5.88685 34.6555 6.22647C34.768 6.22647 34.8805 6.22647 34.9931 6.33968C35.1056 6.33968 35.1056 6.33968 35.2181 6.45288C35.4431 6.11326 35.6682 5.77364 35.8932 5.43402C36.1182 4.98119 36.3433 4.41515 36.3433 3.7359C36.3433 3.05666 36.1182 2.49062 35.6682 2.151Z" fill="white"/>
<path d="M30.4923 6.33953C30.6048 6.33953 30.7173 6.33953 30.8298 6.22632C30.6048 5.8867 30.2672 5.43387 30.0422 5.09425C29.8172 4.64142 29.5921 4.18859 29.5921 3.62255C29.5921 3.16972 29.8172 2.8301 30.0422 2.49047C30.2672 2.26406 30.7173 2.03764 31.1674 2.03764C31.2799 2.03764 31.2799 2.03764 31.3924 2.03764C31.2799 2.37727 31.2799 2.60368 31.2799 2.8301C31.2799 3.62255 31.5049 4.30179 31.8425 4.75462C31.955 4.86783 32.0675 4.98104 32.18 5.09425L32.5176 4.86783C32.18 4.52821 31.73 3.73576 31.73 2.8301C31.73 2.49047 31.73 2.15085 31.8425 1.81123L31.6174 1.47161C31.3924 1.47161 31.2799 1.3584 31.0549 1.3584C30.4923 1.3584 29.9297 1.58481 29.5921 1.92444C29.2546 2.26406 29.0295 2.8301 29.0295 3.39613C29.0295 4.07538 29.2546 4.52821 29.4796 5.09425C29.7046 5.54708 29.9297 5.8867 30.2672 6.22632C30.2672 6.33953 30.3798 6.33953 30.4923 6.33953Z" fill="white"/>
<path fill-rule="evenodd" clip-rule="evenodd" d="M28.2419 22.7543L26.7791 22.4147L27.5667 21.1694L26.3291 21.9619L25.879 20.377L25.5414 21.8487L24.3037 21.0562L25.0914 22.3015L23.5161 22.6411V22.7543L24.9788 23.0939L24.1912 24.3392L25.4289 23.5468L25.7665 25.0185H25.879L26.2165 23.5468L27.4542 24.3392L26.6666 23.0939L28.2419 22.7543Z" fill="#1A1A1A"/>
<path fill-rule="evenodd" clip-rule="evenodd" d="M35.1054 19.1313L33.6426 18.7917L34.4303 17.5464L33.1926 18.3389L32.855 16.8672H32.7425L32.405 18.3389L31.1673 17.5464L31.9549 18.7917L30.3796 19.1313V19.2445L31.8424 19.5842L31.0547 20.8295L32.2924 20.037L32.63 21.5087H32.7425L33.0801 20.037L34.3178 20.8295L33.5301 19.5842L35.1054 19.1313Z" fill="#1A1A1A"/>
<path fill-rule="evenodd" clip-rule="evenodd" d="M41.9691 22.7543L40.5064 22.3015L41.294 21.0562L40.0563 21.8487L39.6063 20.377H39.4938L39.1562 21.8487L37.9185 21.0562L38.7061 22.3015L37.2434 22.6411V22.7543L38.7061 23.0939L37.9185 24.3392L39.1562 23.5468L39.4938 25.0185H39.6063L39.9438 23.5468L41.1815 24.3392L40.5064 23.0939L41.9691 22.7543Z" fill="#1A1A1A"/>
<path d="M32.7426 27.2832L23.7412 33.0568C24.8664 35.5474 27.3418 38.2643 32.7426 40.4153C38.1435 38.3775 40.6188 35.6606 41.744 33.17L32.7426 27.2832ZM35.8931 34.4153L33.9803 34.8681L34.993 36.5662C34.993 36.5662 34.993 36.5662 34.8805 36.5662L33.1927 35.5474L32.7426 37.4719H32.6301L32.18 35.5474L30.4923 36.5662C30.4923 36.5662 30.4923 36.5662 30.4923 36.453L31.5049 34.7549L29.5921 34.3021V34.1889L31.5049 33.736L30.4923 32.0379C30.4923 32.0379 30.4923 32.0379 30.6048 32.0379L32.2925 33.0568L32.7426 31.1323H32.8551L33.3052 33.0568L34.993 32.0379C34.993 32.0379 34.993 32.0379 34.993 32.1511L33.9803 33.8492L35.8931 34.4153Z" fill="#CCCCCC"/>
</svg>
