<svg width="24" height="24" viewBox="0 0 24 24" fill="none" xmlns="http://www.w3.org/2000/svg">
<path d="M20 1.5H21V3.5H20V1.5Z" fill="#EFC36E"/>
<path d="M22 5.5H21V6.5H22V5.5Z" fill="#EFC36E"/>
<path d="M19 8.5V10.5H21V8.5H19Z" fill="#EFC36E"/>
<path fill-rule="evenodd" clip-rule="evenodd" d="M18 7.5V8.5H19V7.5H20.9326C20.3555 6.35673 19.5654 5.33934 18.6144 4.5H19V2.5H17V4.5H16V2.83214C15.2451 2.50231 14.4416 2.26297 13.6033 2.12786C13.4041 2.09575 13.2029 2.06953 12.9999 2.04938C12.671 2.01672 12.3374 2 11.9999 2C11.6624 2 11.3288 2.01672 10.9999 2.04938C10.7622 2.07297 10.527 2.10489 10.2945 2.14483C5.90578 2.8989 2.49473 6.51324 2.04925 11C2.0166 11.3289 1.99988 11.6625 1.99988 12C1.99988 12.3375 2.0166 12.6711 2.04925 13C2.49473 17.4868 5.90578 21.1011 10.2945 21.8552C10.527 21.8951 10.7622 21.927 10.9999 21.9506C11.3288 21.9833 11.6624 22 11.9999 22C12.3374 22 12.671 21.9833 12.9999 21.9506C13.2029 21.9305 13.4041 21.9042 13.6033 21.8721C17.1861 21.2947 20.132 18.8138 21.3703 15.5H20V14.5H22V12.5H21.9876C21.9958 12.3344 21.9999 12.1677 21.9999 12C21.9999 11.8323 21.9958 11.6656 21.9876 11.5H19V11H17.9575C17.8498 9.7289 17.5446 8.55632 17.1337 7.5H16V5.5H16.171C16.0712 5.32686 15.9698 5.1586 15.8675 4.99534C16.1436 5.14812 16.4097 5.31675 16.6646 5.5H19V7.5H18ZM4.06177 11C4.37463 8.49104 5.84931 6.34289 7.93043 5.1109C7.00979 6.63927 6.21443 8.61173 6.03683 11H4.06177ZM4.06177 13H6.03683C6.21443 15.3883 7.00979 17.3607 7.93043 18.8891C5.8493 17.6571 4.37463 15.509 4.06177 13ZM10.3034 18.8423C10.539 19.1602 10.7744 19.447 10.9999 19.7019V13H8.04345C8.26288 15.4983 9.27687 17.4564 10.3034 18.8423ZM8.04345 11H10.9999V4.29812C10.7744 4.55304 10.539 4.83978 10.3034 5.15773C9.27687 6.54359 8.26288 8.50169 8.04345 11ZM12.9999 19.5579V13H15.9488C15.7154 15.2837 14.718 17.2241 13.6861 18.6688C13.4544 18.9932 13.2226 19.2903 12.9999 19.5579ZM12.9999 11H15.9488C15.7154 8.71626 14.718 6.77587 13.6861 5.33124C13.4544 5.00679 13.2226 4.70975 12.9999 4.44206V11ZM15.8675 19.0047C16.855 17.4296 17.7551 15.3888 17.9575 13H19.938C19.6151 15.5893 18.0548 17.7944 15.8675 19.0047Z" fill="#EFC36E"/>
<path d="M24 7.5H22V9.5H24V7.5Z" fill="#EFC36E"/>
</svg>
