<svg width="70" height="48" viewBox="0 0 70 48" fill="none" xmlns="http://www.w3.org/2000/svg">
<g clip-path="url(#clip0_1955_974)">
<path d="M47.8265 33.8313H45.5711V36.0867H47.8265V33.8313ZM48 29.3783H46.959V30.4193H48V29.3783ZM49.8506 22.5542H48V24.4048H49.8506V22.5542ZM49.9663 29.147H49.2145V29.8988H49.9663V29.147ZM46.9012 12.0867H45.6868V13.3012H46.9012V12.0867ZM52.5108 13.4169H51.6434V14.2843H52.5108V13.4169ZM54.1301 18.3325H51.9325V20.5301H54.1301V18.3325ZM52.2795 28.6843H51.1807V29.7831H52.2795V28.6843ZM52.6265 23.2482H50.8916V24.9831H52.6265V23.2482ZM50.1398 32.0386H48.6362V33.5422H50.1398V32.0386ZM50.5446 25.5036H49.7349V26.3133H50.5446V25.5036ZM51.5277 16.5398H50.1976V17.8699H51.5277V16.5398ZM48.9253 11.2193H47.4795V12.6651H48.9253V11.2193ZM47.1904 21.6289V21.2241H49.041V20.9349H48.8675V19.2578H48.9831V14.4578H48.4627V14.6313H46.8434V14.4578H45.9759V15.3253H45.3976V16.5976H43.4892V14.6892H43.9518V13.3012H44.0096V10.6988H42.9687V9.02169H44.6458V10.641H45.6868V9.42651H46.3229C45.9181 9.07952 45.5133 8.79036 45.1084 8.44337H42.853V8.79036H41.2337V7.17108V5.20482C40.3663 4.45301 39.441 3.7012 38.5735 3.00723V4.97349H36.5494V2.9494H38.5157C38.4578 2.89157 38.3422 2.83373 38.2843 2.7759H37.2434V1.90843C36.6651 1.38795 36.0289 0.925301 35.4506 0.404819C34.7566 -0.115663 33.8313 -0.115663 33.1952 0.404819L25.2145 6.99759V6.41928C25.2145 5.78313 24.694 5.26265 24.0578 5.26265H21.2241C20.588 5.26265 20.0675 5.78313 20.0675 6.41928V11.2771L14.4578 15.9036C13.8795 16.3663 13.6482 17.1759 13.9374 17.8699C14.2265 18.5639 14.8627 19.0265 15.6145 19.0265H19.7205C19.7205 23.653 19.7205 30.2458 19.7205 34.8723C19.7205 35.8554 20.5301 36.6651 21.5133 36.6651H37.8217V36.2602H39.6723V36.6651H41.1759V35.6241H42.7952V36.6651H43.547V32.9639H46.2651V32.0386H45.8024V31.3446H45.6289V31.4602H43.6048V29.494H45.5711V27.5277H45.6868V26.7759H47.5374V27.5277H49.041V25.7349H47.4217V26.1398H45.7446V24.4626H47.1325V23.8843H45.8602V21.6289H47.1904ZM36.2024 23.1904H33.7157V20.7036H36.2024V23.1904ZM47.0169 15.788H48.8675V17.6386H47.0169V15.788ZM44.2988 19.0265V20.7614H42.5639V19.0265H44.2988ZM44.8771 24.1157V25.6771H43.3735V24.1157H44.8771ZM43.0265 16.1928V17.8699H41.3494V16.1928H43.0265ZM41.6386 19.0265V20.9349H39.7301V19.0265H41.6386ZM39.8458 13.9373V12.4337H41.3494V13.9373H39.8458ZM39.8458 9.19518H41.9855V11.3349H39.8458V9.19518ZM37.359 6.70843H39.6723V9.02169H37.359V6.70843ZM39.094 24.5205V26.1398H37.4747V24.5205H39.094ZM37.706 22.4386V21.2241H38.9205V22.4386H37.706ZM37.3012 19.9518V18.159H39.094V19.9518H37.3012ZM38.3422 14.4V13.1855H39.5566V14.4H38.3422ZM37.9374 11.0458V9.36868H39.6145V11.0458H37.9374ZM37.0699 15.1518H38.2843V16.3663H37.0699V15.1518ZM36.8964 28.1639V26.4867H38.5735V28.1639H36.8964ZM37.8217 31.0554H39.2096V32.4434H37.8217V31.0554ZM40.4241 35.1614H38.1108V32.8482H40.4241V35.1614ZM42.6217 30.8819V32.3855H41.1181V30.8819H42.6217ZM41.5229 29.0313V27.8169H42.7374V29.0313H41.5229ZM42.7952 35.5084H41.4072V34.1205H42.7952V35.5084ZM43.0843 25.4458H40.9446V23.4217H40.3084V21.4554H42.2169V23.306H42.6795V22.3807H44.1831V23.8843H43.0843V25.4458ZM44.9928 28.0482H43.3157V26.3711H44.9928V28.0482ZM45.3976 20.8193V18.6795H47.5374V20.8193H45.3976Z" fill="white"/>
<path d="M5.60964 48C5.37831 48 5.26265 47.8843 5.26265 47.653V41.3494C5.26265 41.2337 5.26265 41.1759 5.08916 41.1759C5.03133 41.1759 4.97349 41.1759 4.97349 41.2337C4.97349 41.2337 4.91566 41.2916 4.91566 41.3494V43.2C4.91566 43.7783 4.62651 44.0675 4.04819 44.0675H1.90843C1.33012 44.0675 1.04096 43.7783 1.04096 43.2V41.3494C1.04096 41.2916 1.04096 41.2337 0.983133 41.2337C0.983133 41.2337 0.925301 41.1759 0.86747 41.1759C0.693976 41.1759 0.693976 41.2337 0.693976 41.3494V47.1325C0.693976 47.2482 0.693976 47.306 0.86747 47.306C0.925301 47.306 0.983133 47.306 0.983133 47.2482C0.983133 47.2482 1.04096 47.1904 1.04096 47.1325V45.2819C1.04096 44.7036 1.33012 44.4145 1.90843 44.4145H4.04819C4.27952 44.4145 4.39518 44.5301 4.39518 44.7614C4.39518 44.9928 4.27952 45.1084 4.04819 45.1084H1.90843C1.79277 45.1084 1.73494 45.1663 1.73494 45.2819V47.1325C1.73494 47.7108 1.44578 48 0.86747 48C0.289157 48 0 47.7108 0 47.1325V41.3494C0 40.7711 0.289157 40.4819 0.86747 40.4819C1.44578 40.4819 1.73494 40.7711 1.73494 41.3494V43.2C1.73494 43.3157 1.79277 43.3735 1.90843 43.3735H4.04819C4.16386 43.3735 4.22169 43.3157 4.22169 43.2V41.3494C4.22169 40.7711 4.51084 40.4819 5.08916 40.4819C5.66747 40.4819 5.95663 40.7711 5.95663 41.3494V47.653C5.95663 47.8843 5.84096 48 5.60964 48Z" fill="white"/>
<path d="M9.83132 48C8.55903 48 7.92288 47.3639 7.92288 46.0916V42.3904C7.92288 41.1181 8.55903 40.4819 9.83132 40.4819H11.9132C13.1855 40.4819 13.8217 41.1181 13.8217 42.3904V45.0506C13.8217 45.2819 13.706 45.3976 13.4747 45.3976C13.2434 45.3976 13.1277 45.2819 13.1277 45.0506V42.4482C13.1277 42.0434 13.012 41.7542 12.8385 41.5229C12.6651 41.3494 12.3181 41.2337 11.9132 41.2337H9.83132C9.02168 41.2337 8.61686 41.6386 8.61686 42.4482V46.1494C8.61686 46.959 9.02168 47.3639 9.83132 47.3639H13.012C13.1277 47.3639 13.1855 47.306 13.1855 47.1904C13.1855 47.0169 13.1277 47.0169 13.012 47.0169H9.83132C9.253 47.0169 8.96385 46.7277 8.96385 46.1494V42.4482C8.96385 42.2169 9.07951 42.1012 9.31083 42.1012C9.54216 42.1012 9.65782 42.2169 9.65782 42.4482V46.1494C9.65782 46.3229 9.71565 46.3229 9.83132 46.3229H13.012C13.5904 46.3229 13.8795 46.612 13.8795 47.1904C13.8795 47.7687 13.5904 48.0578 13.012 48.0578H9.83132V48Z" fill="white"/>
<path d="M17.6964 48C16.4241 48 15.788 47.3639 15.788 46.0916V41.3494C15.788 40.7711 16.0771 40.4819 16.6554 40.4819C17.2337 40.4819 17.5229 40.7711 17.5229 41.3494V46.0916C17.5229 46.3229 17.4072 46.4386 17.1759 46.4386C16.9446 46.4386 16.8289 46.3229 16.8289 46.0916V41.3494C16.8289 41.2916 16.8289 41.2337 16.7711 41.2337C16.7711 41.2337 16.7133 41.1759 16.6554 41.1759C16.4819 41.1759 16.4819 41.2337 16.4819 41.3494V46.0916C16.4819 46.9012 16.8868 47.306 17.6964 47.306H19.8362C20.241 47.306 20.588 47.1904 20.7615 47.0169C20.935 46.8434 21.0506 46.4964 21.0506 46.0916V40.8289C21.0506 40.5976 21.1663 40.4819 21.3976 40.4819C21.6289 40.4819 21.7446 40.5976 21.7446 40.8289V46.0916C21.7446 47.3639 21.1084 48 19.8362 48H17.6964Z" fill="white"/>
<path d="M25.041 48C24.4626 48 24.1735 47.7108 24.1735 47.1325C24.1735 46.5542 24.4626 46.2651 25.041 46.2651H28.2217C28.453 46.2651 28.5687 46.3807 28.5687 46.6121C28.5687 46.8434 28.453 46.959 28.2217 46.959H25.041C24.9253 46.959 24.8675 47.0169 24.8675 47.1325C24.8675 47.306 24.9253 47.306 25.041 47.306H28.2217C29.0313 47.306 29.4361 46.9012 29.4361 46.0916V45.8024C29.4361 44.9928 29.0313 44.588 28.2217 44.588H26.0819C24.8096 44.588 24.1735 43.9518 24.1735 42.6795V42.4482C24.1735 41.1759 24.8096 40.5398 26.0819 40.5398H29.2626C29.841 40.5398 30.1301 40.8289 30.1301 41.4072C30.1301 41.9855 29.841 42.2747 29.2626 42.2747H26.0819C25.8506 42.2747 25.7349 42.159 25.7349 41.9277C25.7349 41.6964 25.8506 41.5807 26.0819 41.5807H29.2626C29.3783 41.5807 29.4361 41.5229 29.4361 41.4072C29.4361 41.2337 29.3783 41.2337 29.2626 41.2337H26.0819C25.2723 41.2337 24.8675 41.6386 24.8675 42.4482V42.6795C24.8675 43.4892 25.2723 43.894 26.0819 43.894H28.2217C29.494 43.894 30.1301 44.5301 30.1301 45.8024V46.0916C30.1301 47.3639 29.494 48 28.2217 48H25.041Z" fill="white"/>
<path d="M32.9638 48C32.3855 48 32.0964 47.7108 32.0964 47.1325V41.3494C32.0964 40.7711 32.3855 40.4819 32.9638 40.4819H37.706C37.9373 40.4819 38.053 40.5976 38.053 40.8289C38.053 41.0602 37.9373 41.1759 37.706 41.1759H32.9638C32.8482 41.1759 32.7904 41.2337 32.7904 41.3494V47.1325C32.7904 47.2482 32.7904 47.306 32.9638 47.306H37.1855C37.3012 47.306 37.359 47.2482 37.359 47.1325C37.359 46.959 37.3012 46.959 37.1855 46.959H34.0048C33.4265 46.959 33.1373 46.6699 33.1373 46.0916V45.2819C33.1373 44.7036 33.4265 44.4145 34.0048 44.4145H35.5663C35.6819 44.4145 35.7397 44.3566 35.7397 44.241C35.7397 44.0675 35.6819 44.0675 35.5663 44.0675H34.0048C33.4265 44.0675 33.1373 43.7783 33.1373 43.2V42.4482C33.1373 42.2169 33.253 42.1012 33.4843 42.1012C33.7157 42.1012 33.8313 42.2169 33.8313 42.4482V43.2578C33.8313 43.4313 33.8891 43.4313 34.0048 43.4313H35.5663C36.1446 43.4313 36.4337 43.7205 36.4337 44.2988C36.4337 44.8771 36.1446 45.1663 35.5663 45.1663H34.0048C33.8891 45.1663 33.8313 45.2241 33.8313 45.3398V46.1494C33.8313 46.3229 33.8891 46.3229 34.0048 46.3229H37.1855C37.7638 46.3229 38.053 46.612 38.053 47.1904C38.053 47.7687 37.7638 48.0578 37.1855 48.0578H32.9638V48Z" fill="white"/>
<path d="M42.9109 48C42.3325 48 42.0434 47.7108 42.0434 47.1325V42.3904C42.0434 42.2747 41.9856 42.2169 41.8699 42.2169H40.8289C40.2506 42.2169 39.9615 41.9277 39.9615 41.3494C39.9615 40.7711 40.2506 40.4819 40.8289 40.4819H45.5711C45.8024 40.4819 45.9181 40.5976 45.9181 40.8289C45.9181 41.0602 45.8024 41.1759 45.5711 41.1759H40.8289C40.7133 41.1759 40.6554 41.2337 40.6554 41.3494C40.6554 41.4651 40.7133 41.5229 40.8289 41.5229H41.8699C42.4482 41.5229 42.7374 41.812 42.7374 42.3904V47.1325C42.7374 47.2482 42.7374 47.306 42.9109 47.306C42.9687 47.306 43.0265 47.306 43.0265 47.2482C43.0265 47.2482 43.0843 47.1904 43.0843 47.1325V41.8699C43.0843 41.6386 43.2 41.5229 43.4313 41.5229C43.6627 41.5229 43.7783 41.6386 43.7783 41.8699V47.1325C43.7783 47.7108 43.4892 48 42.9109 48Z" fill="white"/>
<path d="M48.694 48C48.1157 48 47.8265 47.7108 47.8265 47.1325V41.3494C47.8265 40.7711 48.1157 40.4819 48.694 40.4819H53.4361C53.6675 40.4819 53.7831 40.5976 53.7831 40.8289C53.7831 41.0602 53.6675 41.1759 53.4361 41.1759H48.694C48.5783 41.1759 48.5205 41.2337 48.5205 41.3494V47.1325C48.5205 47.2482 48.5205 47.306 48.694 47.306H52.9157C53.0313 47.306 53.0892 47.2482 53.0892 47.1325C53.0892 46.959 53.0313 46.959 52.9157 46.959H49.7349C49.1566 46.959 48.8675 46.6699 48.8675 46.0916V45.2819C48.8675 44.7036 49.1566 44.4145 49.7349 44.4145H51.2964C51.412 44.4145 51.4699 44.3566 51.4699 44.241C51.4699 44.0675 51.412 44.0675 51.2964 44.0675H49.7349C49.1566 44.0675 48.8675 43.7783 48.8675 43.2V42.4482C48.8675 42.2169 48.9831 42.1012 49.2145 42.1012C49.4458 42.1012 49.5614 42.2169 49.5614 42.4482V43.2578C49.5614 43.4313 49.6193 43.4313 49.7349 43.4313H51.2964C51.8747 43.4313 52.1639 43.7205 52.1639 44.2988C52.1639 44.8771 51.8747 45.1663 51.2964 45.1663H49.7349C49.6193 45.1663 49.5614 45.2241 49.5614 45.3398V46.1494C49.5614 46.3229 49.6193 46.3229 49.7349 46.3229H52.9157C53.494 46.3229 53.7831 46.612 53.7831 47.1904C53.7831 47.7687 53.494 48.0578 52.9157 48.0578H48.694V48Z" fill="white"/>
<path d="M57.6578 48C56.3855 48 55.7494 47.3639 55.7494 46.0916V42.3904C55.7494 41.1181 56.3855 40.4819 57.6578 40.4819H61.359C61.5904 40.4819 61.706 40.5976 61.706 40.8289C61.706 41.0602 61.5904 41.1759 61.359 41.1759H57.6578C56.8482 41.1759 56.4434 41.5807 56.4434 42.3904V46.0916C56.4434 46.9012 56.8482 47.306 57.6578 47.306H60.8385C60.9542 47.306 61.012 47.2482 61.012 47.1325C61.012 46.959 60.9542 46.959 60.8385 46.959H57.6578C57.0795 46.959 56.7904 46.6699 56.7904 46.0916V42.3904C56.7904 42.159 56.906 42.0434 57.1373 42.0434C57.3687 42.0434 57.4843 42.159 57.4843 42.3904V46.0916C57.4843 46.2651 57.5422 46.2651 57.6578 46.2651H60.8385C61.4169 46.2651 61.706 46.5542 61.706 47.1325C61.706 47.7108 61.4169 48 60.8385 48H57.6578Z" fill="white"/>
<path d="M69.2241 48C68.9928 48 68.8771 47.8843 68.8771 47.653V41.3494C68.8771 41.2337 68.8771 41.1759 68.7036 41.1759C68.6458 41.1759 68.588 41.1759 68.588 41.2337C68.588 41.2337 68.5301 41.2916 68.5301 41.3494V43.2C68.5301 43.7783 68.241 44.0675 67.6627 44.0675H65.5229C64.9446 44.0675 64.6554 43.7783 64.6554 43.2V41.3494C64.6554 41.2916 64.6554 41.2337 64.5976 41.2337C64.5976 41.2337 64.5398 41.1759 64.4819 41.1759C64.3084 41.1759 64.3084 41.2337 64.3084 41.3494V47.1325C64.3084 47.2482 64.3084 47.306 64.4819 47.306C64.5398 47.306 64.5976 47.306 64.5976 47.2482C64.5976 47.2482 64.6554 47.1904 64.6554 47.1325V45.2819C64.6554 44.7036 64.9446 44.4145 65.5229 44.4145H67.6627C67.894 44.4145 68.0097 44.5301 68.0097 44.7614C68.0097 44.9928 67.894 45.1084 67.6627 45.1084H65.5807C65.4651 45.1084 65.4072 45.1663 65.4072 45.2819V47.1325C65.4072 47.7108 65.1181 48 64.5398 48C63.9615 48 63.6723 47.7108 63.6723 47.1325V41.3494C63.6723 40.7711 63.9615 40.4819 64.5398 40.4819C65.1181 40.4819 65.4072 40.7711 65.4072 41.3494V43.2C65.4072 43.3157 65.4651 43.3735 65.5807 43.3735H67.7205C67.8362 43.3735 67.894 43.3157 67.894 43.2V41.3494C67.894 40.7711 68.1831 40.4819 68.7615 40.4819C69.3398 40.4819 69.6289 40.7711 69.6289 41.3494V47.653C69.5711 47.8843 69.4554 48 69.2241 48Z" fill="white"/>
</g>
<defs>
<clipPath id="clip0_1955_974">
<rect width="69.5711" height="48" fill="white"/>
</clipPath>
</defs>
</svg>
