<svg width="25" height="24" viewBox="0 0 25 24" fill="none" xmlns="http://www.w3.org/2000/svg">
<path d="M2.11063 3.75019L5.45755 0.340732C5.90353 -0.113577 6.6266 -0.113578 7.07257 0.340731L10.0255 3.34886C10.4715 3.80316 10.4715 4.53974 10.0255 4.99405L8.83277 6.20909C8.01827 7.0388 7.93774 8.3565 8.64492 9.28272C10.2283 11.3566 9.51351 14.7764 7.21598 13.5396C6.78439 13.3073 6.39191 12.9795 6.07023 12.5582L1.90568 7.10368C1.13411 6.09313 1.22198 4.65545 2.11063 3.75019Z" fill="#EFC36E"/>
<path d="M17.4485 13.719L18.827 12.3148L19.5365 13.0376L18.158 14.4418L17.4485 13.719Z" fill="#EFC36E"/>
<path d="M18.8628 18.9175L19.6345 18.1314L20.3764 18.8872L19.6047 19.6733L18.8628 18.9175Z" fill="#EFC36E"/>
<path d="M18.827 21.2442L19.5987 20.4581L20.3406 21.2139L19.5689 22L18.827 21.2442Z" fill="#EFC36E"/>
<path d="M21.111 13.1009L21.8827 12.3148L22.6246 13.0706L21.8529 13.8567L21.111 13.1009Z" fill="#EFC36E"/>
<path d="M15.401 21.2442L16.1727 20.4581L16.9146 21.2139L16.1429 22L15.401 21.2442Z" fill="#EFC36E"/>
<path d="M20.7251 18.5245L22.2529 16.9681L23.3807 18.1169L21.8529 19.6733L20.7251 18.5245Z" fill="#EFC36E"/>
<path d="M18.827 14.8824L20.2055 13.4781L22.3988 15.7124L21.0203 17.1166L18.827 14.8824Z" fill="#EFC36E"/>
<path d="M14.259 16.9681L17.114 14.0598L19.969 16.9681L17.114 19.8764L14.259 16.9681Z" fill="#EFC36E"/>
<path d="M10.833 17.1488L12.1524 15.8048L15.4185 19.1319L14.0991 20.4759L10.833 17.1488Z" fill="#EFC36E"/>
<path d="M11.3153 14.1501L12.5871 12.8545L14.8711 15.1812L13.5993 16.4768L11.3153 14.1501Z" fill="#EFC36E"/>
<path d="M8.54905 16.8904L9.61481 15.8048L10.5281 16.7351L9.46235 17.8208L8.54905 16.8904Z" fill="#EFC36E"/>
<path d="M6.26506 12.8576L9.12003 9.9881L11.404 12.8576L8.54904 15.2231L6.26506 12.8576Z" fill="#EFC36E"/>
</svg>
