<svg width="266" height="192" viewBox="0 0 266 192" fill="none" xmlns="http://www.w3.org/2000/svg">
<path d="M240.56 54.464L241.632 54.464C241.712 54.464 241.76 54.416 241.76 54.32L241.76 50.816C241.76 50.72 241.712 50.672 241.616 50.672L240.944 50.672C240.832 50.672 240.752 50.624 240.72 50.544C240.24 49.68 239.904 48.656 239.712 47.488C239.504 46.32 239.408 44.448 239.408 41.888L239.408 41.264C239.408 41.168 239.36 41.12 239.248 41.12L232.992 41.12C232.896 41.12 232.848 41.168 232.848 41.28L232.848 50.576C232.848 50.64 232.816 50.672 232.752 50.672L231.776 50.672C231.664 50.672 231.616 50.72 231.616 50.816L231.616 54.32C231.616 54.416 231.664 54.464 231.76 54.464L232.832 54.464C232.912 54.464 232.96 54.416 232.96 54.32L232.96 52.096C232.96 52.032 232.992 52 233.056 52L240.32 52C240.384 52 240.416 52.032 240.416 52.096L240.416 54.32C240.416 54.416 240.464 54.464 240.56 54.464ZM239.136 50.672L234.368 50.672C234.304 50.672 234.272 50.64 234.272 50.576L234.272 42.544C234.272 42.48 234.304 42.448 234.368 42.448L237.92 42.448C237.984 42.448 238.016 42.48 238.016 42.544L238.016 42.64C238.016 44.816 238.112 46.496 238.304 47.68C238.496 48.848 238.8 49.808 239.2 50.56C239.248 50.64 239.232 50.672 239.136 50.672ZM227.058 52L228.146 52C228.258 52 228.306 51.952 228.306 51.84L228.306 41.264C228.306 41.168 228.258 41.12 228.146 41.12L227.026 41.12C226.93 41.12 226.882 41.168 226.882 41.264L226.882 49.488L226.834 49.488L221.682 41.2C221.65 41.152 221.602 41.12 221.522 41.12L220.434 41.12C220.322 41.12 220.274 41.168 220.274 41.264L220.274 51.84C220.274 51.952 220.322 52 220.434 52L221.538 52C221.65 52 221.698 51.952 221.698 51.84L221.698 43.616L221.746 43.616L226.914 51.904C226.962 51.968 227.01 52 227.058 52ZM214.723 52L215.827 52C215.939 52 215.987 51.952 215.987 51.84L215.987 41.28C215.987 41.168 215.939 41.12 215.827 41.12L211.955 41.12C210.915 41.12 210.067 41.424 209.443 42.016C208.819 42.608 208.499 43.392 208.499 44.368C208.499 45.344 208.819 46.144 209.443 46.736C210.067 47.328 210.915 47.616 211.955 47.616L214.467 47.616C214.531 47.616 214.563 47.648 214.563 47.712L214.563 51.84C214.563 51.952 214.611 52 214.723 52ZM214.467 46.288L212.035 46.288C210.691 46.288 209.907 45.568 209.907 44.368C209.907 43.168 210.691 42.448 212.035 42.448L214.467 42.448C214.531 42.448 214.563 42.48 214.563 42.544L214.563 46.192C214.563 46.256 214.531 46.288 214.467 46.288ZM198.214 52L204.758 52C204.87 52 204.918 51.952 204.918 51.84L204.919 41.28C204.919 41.168 204.871 41.12 204.759 41.12L198.214 41.12C198.102 41.12 198.055 41.168 198.055 41.28L198.054 42.288C198.054 42.4 198.102 42.448 198.214 42.448L203.398 42.448C203.462 42.448 203.494 42.48 203.494 42.544L203.494 45.744C203.494 45.808 203.462 45.84 203.398 45.84L198.998 45.84C198.886 45.84 198.838 45.888 198.838 46L198.838 47.008C198.838 47.12 198.886 47.168 198.998 47.168L203.398 47.168C203.462 47.168 203.494 47.2 203.494 47.264L203.494 50.576C203.494 50.64 203.462 50.672 203.398 50.672L198.214 50.672C198.102 50.672 198.054 50.72 198.054 50.832L198.054 51.84C198.054 51.952 198.102 52 198.214 52ZM193.039 52L194.143 52C194.255 52 194.303 51.952 194.303 51.84L194.303 41.28C194.303 41.168 194.255 41.12 194.143 41.12L193.039 41.12C192.927 41.12 192.879 41.168 192.879 41.28L192.879 45.744C192.879 45.808 192.847 45.84 192.783 45.84L191.471 45.84C190.799 45.84 190.287 45.424 189.951 44.592L189.151 42.608C188.703 41.504 188.127 41.072 187.103 41.072L186.639 41.072C186.527 41.072 186.479 41.12 186.479 41.232L186.479 42.256C186.479 42.352 186.527 42.4 186.639 42.4L186.783 42.4C187.487 42.4 187.695 42.56 187.951 43.264L188.543 44.784C188.895 45.68 189.327 46.192 189.823 46.336L189.823 46.4C189.247 46.496 188.799 46.928 188.479 47.68L187.615 49.776C187.455 50.176 187.311 50.432 187.183 50.544C187.039 50.656 186.799 50.72 186.447 50.72L186.207 50.72C186.095 50.72 186.047 50.768 186.047 50.864L186.047 51.888C186.047 52 186.095 52.048 186.207 52.048L186.831 52.048C187.871 52.048 188.463 51.568 188.927 50.464L189.887 48.144C190.143 47.488 190.607 47.168 191.263 47.168L192.783 47.168C192.847 47.168 192.879 47.2 192.879 47.264L192.879 51.84C192.879 51.952 192.927 52 193.039 52ZM179.339 52L180.443 52C180.555 52 180.603 51.952 180.603 51.84L180.603 42.544C180.603 42.48 180.635 42.448 180.699 42.448L183.675 42.448C183.787 42.448 183.835 42.4 183.835 42.288L183.835 41.28C183.835 41.168 183.787 41.12 183.675 41.12L176.107 41.12C175.995 41.12 175.947 41.168 175.947 41.28L175.947 42.288C175.947 42.4 175.995 42.448 176.107 42.448L179.083 42.448C179.147 42.448 179.179 42.48 179.179 42.544L179.179 51.84C179.179 51.952 179.227 52 179.339 52ZM171.402 52L172.49 52C172.602 52 172.65 51.952 172.65 51.84L172.65 41.264C172.65 41.168 172.602 41.12 172.49 41.12L171.37 41.12C171.274 41.12 171.226 41.168 171.226 41.264L171.226 49.488L171.178 49.488L166.026 41.2C165.994 41.152 165.946 41.12 165.866 41.12L164.778 41.12C164.666 41.12 164.618 41.168 164.618 41.264L164.618 51.84C164.618 51.952 164.666 52 164.778 52L165.882 52C165.994 52 166.042 51.952 166.042 51.84L166.042 43.616L166.09 43.616L171.258 51.904C171.306 51.968 171.354 52 171.402 52ZM156.395 52L160.171 52C160.283 52 160.331 51.952 160.331 51.84L160.331 41.28C160.331 41.168 160.283 41.12 160.171 41.12L156.315 41.12C154.155 41.12 153.035 42.192 153.035 43.984C153.035 45.168 153.515 45.952 154.491 46.336L154.491 46.4C153.643 46.64 152.843 47.552 152.843 48.896C152.843 50.928 154.107 52 156.395 52ZM158.811 50.704L156.267 50.704C154.987 50.704 154.267 50.016 154.267 48.912C154.267 47.824 154.987 47.12 156.267 47.12L158.811 47.12C158.875 47.12 158.907 47.152 158.907 47.216L158.907 50.608C158.907 50.672 158.875 50.704 158.811 50.704ZM158.811 45.824L156.347 45.824C155.179 45.824 154.443 45.152 154.443 44.128C154.443 43.088 155.147 42.416 156.347 42.416L158.811 42.416C158.875 42.416 158.907 42.448 158.907 42.512L158.907 45.728C158.907 45.792 158.875 45.824 158.811 45.824ZM148.911 52L150.031 52C150.143 52 150.175 51.952 150.143 51.84L146.367 41.28C146.335 41.168 146.271 41.12 146.175 41.12L145.135 41.12C145.023 41.12 144.959 41.168 144.927 41.28L141.199 51.84C141.167 51.952 141.199 52 141.311 52L142.431 52C142.543 52 142.607 51.952 142.639 51.84L143.471 49.472L147.871 49.472L148.703 51.84C148.751 51.952 148.815 52 148.911 52ZM145.679 43.216L147.407 48.16L143.935 48.16L145.647 43.216L145.679 43.216ZM132.468 51.84L132.468 41.28C132.468 41.168 132.42 41.12 132.308 41.12L131.204 41.12C131.092 41.12 131.044 41.168 131.044 41.28L131.044 45.744C131.044 45.808 131.012 45.84 130.948 45.84L126.228 45.84C126.164 45.84 126.132 45.808 126.132 45.744L126.132 41.28C126.132 41.168 126.084 41.12 125.972 41.12L124.868 41.12C124.756 41.12 124.708 41.168 124.708 41.28L124.708 51.84C124.708 51.952 124.756 52 124.868 52L125.972 52C126.084 52 126.132 51.952 126.132 51.84L126.132 47.264C126.132 47.2 126.164 47.168 126.228 47.168L130.948 47.168C131.012 47.168 131.044 47.2 131.044 47.264L131.044 51.84C131.044 51.952 131.092 52 131.204 52L132.308 52C132.42 52 132.468 51.952 132.468 51.84ZM116.911 52L118.015 52C118.127 52 118.175 51.952 118.175 51.84L118.175 42.544C118.175 42.48 118.207 42.448 118.271 42.448L121.247 42.448C121.359 42.448 121.407 42.4 121.407 42.288L121.407 41.28C121.407 41.168 121.359 41.12 121.247 41.12L113.679 41.12C113.567 41.12 113.519 41.168 113.519 41.28L113.519 42.288C113.519 42.4 113.567 42.448 113.679 42.448L116.655 42.448C116.719 42.448 116.751 42.48 116.751 42.544L116.751 51.84C116.751 51.952 116.799 52 116.911 52ZM239.408 71L240.496 71C240.608 71 240.656 70.952 240.656 70.84L240.656 60.264C240.656 60.168 240.608 60.12 240.496 60.12L239.376 60.12C239.28 60.12 239.232 60.168 239.232 60.264L239.232 68.488L239.184 68.488L234.032 60.2C234 60.152 233.952 60.12 233.872 60.12L232.784 60.12C232.672 60.12 232.624 60.168 232.624 60.264L232.624 70.84C232.624 70.952 232.672 71 232.784 71L233.888 71C234 71 234.048 70.952 234.048 70.84L234.048 62.616L234.096 62.616L239.264 70.904C239.312 70.968 239.36 71 239.408 71ZM227.073 71L228.177 71C228.289 71 228.337 70.952 228.337 70.84L228.337 60.28C228.337 60.168 228.289 60.12 228.177 60.12L227.073 60.12C226.961 60.12 226.913 60.168 226.913 60.28L226.913 64.744C226.913 64.808 226.881 64.84 226.817 64.84L222.097 64.84C222.033 64.84 222.001 64.808 222.001 64.744L222.001 60.28C222.001 60.168 221.953 60.12 221.841 60.12L220.737 60.12C220.625 60.12 220.577 60.168 220.577 60.28L220.577 70.84C220.577 70.952 220.625 71 220.737 71L221.841 71C221.953 71 222.001 70.952 222.001 70.84L222.001 66.264C222.001 66.2 222.033 66.168 222.097 66.168L226.817 66.168C226.881 66.168 226.913 66.2 226.913 66.264L226.913 70.84C226.913 70.952 226.961 71 227.073 71ZM216.188 73.464L217.26 73.464C217.34 73.464 217.388 73.416 217.388 73.32L217.388 69.816C217.388 69.72 217.34 69.672 217.244 69.672L216.572 69.672C216.46 69.672 216.38 69.624 216.348 69.544C215.868 68.68 215.532 67.656 215.34 66.488C215.132 65.32 215.036 63.448 215.036 60.888L215.036 60.264C215.036 60.168 214.988 60.12 214.876 60.12L208.62 60.12C208.524 60.12 208.476 60.168 208.476 60.28L208.476 69.576C208.476 69.64 208.444 69.672 208.38 69.672L207.404 69.672C207.292 69.672 207.244 69.72 207.244 69.816L207.244 73.32C207.244 73.416 207.292 73.464 207.388 73.464L208.46 73.464C208.54 73.464 208.588 73.416 208.588 73.32L208.588 71.096C208.588 71.032 208.62 71 208.684 71L215.948 71C216.012 71 216.044 71.032 216.044 71.096L216.044 73.32C216.044 73.416 216.092 73.464 216.188 73.464ZM214.764 69.672L209.996 69.672C209.932 69.672 209.9 69.64 209.9 69.576L209.9 61.544C209.9 61.48 209.932 61.448 209.996 61.448L213.548 61.448C213.612 61.448 213.644 61.48 213.644 61.544L213.644 61.64C213.644 63.816 213.74 65.496 213.932 66.68C214.124 67.848 214.428 68.808 214.828 69.56C214.876 69.64 214.86 69.672 214.764 69.672ZM198.554 70.84L198.554 70.008C198.554 69.928 198.522 69.848 198.474 69.784L194.554 64.792C194.042 64.136 193.786 63.512 193.786 62.904C193.786 61.896 194.458 61.192 195.498 61.192C196.506 61.192 197.098 61.72 197.274 62.792C197.29 62.904 197.354 62.936 197.45 62.92L198.426 62.712C198.522 62.68 198.57 62.616 198.554 62.52C198.474 61.816 198.17 61.208 197.642 60.712C197.098 60.2 196.378 59.944 195.466 59.944C194.538 59.944 193.802 60.216 193.242 60.776C192.682 61.336 192.41 62.04 192.41 62.904C192.41 63.752 192.762 64.616 193.466 65.512L196.826 69.736L196.826 69.752L192.57 69.752C192.458 69.752 192.41 69.8 192.41 69.912L192.41 70.84C192.41 70.952 192.458 71 192.57 71L198.394 71C198.506 71 198.554 70.952 198.554 70.84ZM188.282 70.84L188.282 70.008C188.282 69.928 188.25 69.848 188.202 69.784L184.282 64.792C183.77 64.136 183.514 63.512 183.514 62.904C183.514 61.896 184.186 61.192 185.226 61.192C186.234 61.192 186.826 61.72 187.002 62.792C187.018 62.904 187.082 62.936 187.178 62.92L188.154 62.712C188.25 62.68 188.298 62.616 188.282 62.52C188.202 61.816 187.898 61.208 187.37 60.712C186.826 60.2 186.106 59.944 185.194 59.944C184.266 59.944 183.53 60.216 182.97 60.776C182.41 61.336 182.138 62.04 182.138 62.904C182.138 63.752 182.49 64.616 183.194 65.512L186.554 69.736L186.554 69.752L182.298 69.752C182.186 69.752 182.138 69.8 182.138 69.912L182.138 70.84C182.138 70.952 182.186 71 182.298 71L188.122 71C188.234 71 188.282 70.952 188.282 70.84ZM168.679 67.368L172.935 67.368C173.047 67.368 173.095 67.32 173.095 67.208L173.095 66.28C173.095 66.168 173.047 66.12 172.935 66.12L168.679 66.12C168.567 66.12 168.519 66.168 168.519 66.28L168.519 67.208C168.519 67.32 168.567 67.368 168.679 67.368ZM158.117 71L159.221 71C159.333 71 159.381 70.952 159.381 70.84L159.381 60.28C159.381 60.168 159.333 60.12 159.221 60.12L155.349 60.12C154.309 60.12 153.461 60.424 152.837 61.016C152.213 61.608 151.893 62.392 151.893 63.368C151.893 64.344 152.213 65.144 152.837 65.736C153.461 66.328 154.309 66.616 155.349 66.616L157.861 66.616C157.925 66.616 157.957 66.648 157.957 66.712L157.957 70.84C157.957 70.952 158.005 71 158.117 71ZM157.861 65.288L155.429 65.288C154.085 65.288 153.301 64.568 153.301 63.368C153.301 62.168 154.085 61.448 155.429 61.448L157.861 61.448C157.925 61.448 157.957 61.48 157.957 61.544L157.957 65.192C157.957 65.256 157.925 65.288 157.861 65.288ZM145.752 70.84L145.752 61.816L145.784 61.816L147.592 63.08C147.704 63.16 147.768 63.128 147.768 62.984L147.768 61.8C147.768 61.72 147.736 61.64 147.656 61.576L145.784 60.216C145.704 60.152 145.608 60.12 145.528 60.12L144.568 60.12C144.456 60.12 144.408 60.168 144.408 60.28L144.408 70.84C144.408 70.952 144.456 71 144.568 71L145.592 71C145.704 71 145.752 70.952 145.752 70.84ZM128.773 67.368L133.029 67.368C133.141 67.368 133.189 67.32 133.189 67.208L133.189 66.28C133.189 66.168 133.141 66.12 133.029 66.12L128.773 66.12C128.661 66.12 128.613 66.168 128.613 66.28L128.613 67.208C128.613 67.32 128.661 67.368 128.773 67.368ZM119.459 69.112C119.619 68.584 119.699 67.4 119.699 65.56C119.699 63.72 119.619 62.536 119.459 62.008C119.011 60.632 118.019 59.944 116.483 59.944C114.947 59.944 113.955 60.632 113.507 62.008C113.347 62.536 113.267 63.72 113.267 65.56C113.267 67.4 113.347 68.584 113.507 69.112C113.955 70.488 114.947 71.176 116.483 71.176C118.019 71.176 119.011 70.488 119.459 69.112ZM118.131 68.84C117.875 69.56 117.331 69.928 116.483 69.928C115.635 69.928 115.091 69.56 114.835 68.84C114.723 68.488 114.659 67.4 114.659 65.56C114.659 63.72 114.723 62.632 114.835 62.28C115.091 61.56 115.635 61.192 116.483 61.192C117.331 61.192 117.875 61.56 118.131 62.28C118.243 62.632 118.307 63.72 118.307 65.56C118.307 67.4 118.243 68.488 118.131 68.84ZM109.187 69.112C109.347 68.584 109.427 67.4 109.427 65.56C109.427 63.72 109.347 62.536 109.187 62.008C108.739 60.632 107.747 59.944 106.211 59.944C104.675 59.944 103.683 60.632 103.235 62.008C103.075 62.536 102.995 63.72 102.995 65.56C102.995 67.4 103.075 68.584 103.235 69.112C103.683 70.488 104.675 71.176 106.211 71.176C107.747 71.176 108.739 70.488 109.187 69.112ZM107.859 68.84C107.603 69.56 107.059 69.928 106.211 69.928C105.363 69.928 104.819 69.56 104.563 68.84C104.451 68.488 104.387 67.4 104.387 65.56C104.387 63.72 104.451 62.632 104.563 62.28C104.819 61.56 105.363 61.192 106.211 61.192C107.059 61.192 107.603 61.56 107.859 62.28C107.971 62.632 108.035 63.72 108.035 65.56C108.035 67.4 107.971 68.488 107.859 68.84ZM96.371 70.84L96.371 61.816L96.403 61.816L98.211 63.08C98.323 63.16 98.387 63.128 98.387 62.984L98.387 61.8C98.387 61.72 98.355 61.64 98.275 61.576L96.403 60.216C96.323 60.152 96.227 60.12 96.147 60.12L95.187 60.12C95.075 60.12 95.027 60.168 95.027 60.28L95.027 70.84C95.027 70.952 95.075 71 95.187 71L96.211 71C96.323 71 96.371 70.952 96.371 70.84ZM88.5951 68.904C88.6111 68.792 88.5791 68.728 88.4671 68.712L87.5231 68.472C87.4111 68.456 87.3471 68.504 87.3151 68.6C87.1231 69.416 86.5151 69.928 85.5391 69.928C84.7231 69.928 84.1791 69.576 83.9391 68.856C83.8431 68.6 83.7951 68.152 83.7951 67.496C83.7951 66.872 83.8431 66.408 83.9551 66.12C84.1951 65.416 84.7231 65.064 85.5391 65.064C86.3551 65.064 86.9471 65.512 87.1391 66.072C87.1871 66.184 87.2511 66.232 87.3311 66.232L88.2751 66.232C88.3871 66.232 88.4351 66.184 88.4351 66.072L88.4351 60.28C88.4351 60.168 88.3871 60.12 88.2751 60.12L82.8031 60.12C82.6911 60.12 82.6431 60.168 82.6431 60.28L82.6431 61.208C82.6431 61.32 82.6911 61.368 82.8031 61.368L87.0911 61.368C87.1551 61.368 87.1871 61.4 87.1871 61.464L87.1871 64.52L87.1391 64.52C86.7711 64.056 86.1791 63.816 85.3471 63.816C84.0031 63.816 83.0431 64.456 82.6591 65.608C82.4991 66.12 82.4191 66.744 82.4191 67.496C82.4191 68.216 82.4991 68.808 82.6431 69.256C83.0271 70.472 84.1471 71.176 85.5391 71.176C87.2031 71.176 88.3871 70.248 88.5951 68.904Z" fill="#3D70B5"/>
<rect x="242" y="84.0001" width="4" height="240" transform="rotate(90 242 84.0001)" fill="#3D70B5"/>
<rect x="242" y="96.0001" width="8" height="8" transform="rotate(90 242 96.0001)" fill="#3D70B5"/>
</svg>
