<svg width="3330" height="8" viewBox="0 0 3330 8" fill="none" xmlns="http://www.w3.org/2000/svg">
<g clip-path="url(#clip0_2124_1630)">
<rect x="136.475" y="8" width="4" height="4.04372" transform="rotate(-90 136.475 8)" fill="#1A1A1A"/>
<rect x="146.585" y="8" width="4" height="40.4372" transform="rotate(-90 146.585 8)" fill="#1A1A1A"/>
<rect x="544" y="4" width="4" height="40.4372" transform="rotate(-90 544 4)" fill="#1A1A1A"/>
<rect y="8" width="4" height="4.04372" transform="rotate(-90 0 8)" fill="#1A1A1A"/>
<rect x="323.497" y="8.00012" width="8" height="8.08743" transform="rotate(-90 323.497 8.00012)" fill="#1A1A1A"/>
<rect x="483" y="8" width="8" height="24" transform="rotate(-90 483 8)" fill="#1A1A1A"/>
<rect x="761.229" y="4" width="4" height="4.04372" transform="rotate(90 761.229 4)" fill="#1A1A1A"/>
<rect x="751.12" y="4" width="4" height="12.1311" transform="rotate(90 751.12 4)" fill="#1A1A1A"/>
<rect x="1100.9" y="4" width="4" height="4.04372" transform="rotate(90 1100.9 4)" fill="#1A1A1A"/>
<rect x="1110" y="4" width="4" height="4.04372" transform="rotate(90 1110 4)" fill="#1A1A1A"/>
<rect x="1076.64" width="8" height="8.08743" transform="rotate(90 1076.64 0)" fill="#1A1A1A"/>
</g>
<g clip-path="url(#clip1_2124_1630)">
<rect x="2187.42" width="4" height="4.51679" transform="rotate(90 2187.42 0)" fill="#1A1A1A"/>
<rect x="2210" width="4" height="4.51679" transform="rotate(90 2210 0)" fill="#1A1A1A"/>
<rect x="2176.12" width="4.00002" height="135.504" transform="rotate(90 2176.12 0)" fill="#1A1A1A"/>
<rect x="1489.57" y="4" width="4" height="4.51679" transform="rotate(-90 1489.57 4)" fill="#1A1A1A"/>
<rect x="1500.86" y="4" width="4" height="13.5504" transform="rotate(-90 1500.86 4)" fill="#1A1A1A"/>
<rect x="1220.16" y="4" width="4" height="4.51679" transform="rotate(-90 1220.16 4)" fill="#1A1A1A"/>
<rect x="1364" y="8" width="4" height="4.51679" transform="rotate(-90 1364 8)" fill="#1A1A1A"/>
<rect x="1394" y="8" width="4" height="4.51679" transform="rotate(-90 1394 8)" fill="#1A1A1A"/>
<rect x="1175" y="4" width="4" height="40" transform="rotate(-90 1175 4)" fill="#1A1A1A"/>
<rect x="1247.26" y="8" width="8" height="9.03357" transform="rotate(-90 1247.26 8)" fill="#1A1A1A"/>
<rect x="1699.04" y="8" width="8" height="9.03357" transform="rotate(-90 1699.04 8)" fill="#1A1A1A"/>
<path d="M1730.66 6.82051C1730.66 6.88034 1730.69 6.90598 1730.75 6.90598L1732 6.90598C1732.06 6.90598 1732.09 6.88034 1732.09 6.82051L1732.09 4.5812C1732.09 4.54701 1732.11 4.52991 1732.15 4.52991L1734.32 4.52991C1734.36 4.52991 1734.38 4.54701 1734.38 4.5812L1734.38 6.82051C1734.38 6.88034 1734.41 6.90598 1734.48 6.90598L1735.72 6.90598C1735.79 6.90598 1735.82 6.88034 1735.82 6.82051L1735.82 1.17949C1735.82 1.11966 1735.79 1.09402 1735.72 1.09402L1734.48 1.09402C1734.41 1.09402 1734.38 1.11966 1734.38 1.17949L1734.38 3.35897C1734.38 3.39316 1734.36 3.41026 1734.32 3.41026L1732.15 3.41026C1732.11 3.41026 1732.09 3.39316 1732.09 3.35897L1732.09 1.17949C1732.09 1.11966 1732.06 1.09402 1732 1.09402L1730.75 1.09402C1730.69 1.09402 1730.66 1.11966 1730.66 1.17949L1730.66 6.82051Z" fill="#1A1A1A"/>
<path d="M1737.1 5.58974C1737.45 6.51282 1738.35 7 1739.53 7C1740.71 7 1741.61 6.51282 1741.95 5.58974C1742.08 5.24786 1742.14 4.71795 1742.14 4C1742.14 3.28205 1742.08 2.75214 1741.95 2.41026C1741.61 1.48718 1740.71 1 1739.53 1C1738.35 1 1737.45 1.48718 1737.1 2.41026C1736.98 2.75214 1736.92 3.28205 1736.92 4C1736.92 4.71795 1736.98 5.24786 1737.1 5.58974ZM1740.58 5.24786C1740.42 5.67521 1740.07 5.88889 1739.53 5.88889C1738.99 5.88889 1738.64 5.67521 1738.48 5.24786C1738.41 5.05983 1738.38 4.64102 1738.38 4C1738.38 3.35897 1738.41 2.94017 1738.48 2.75214C1738.64 2.32479 1738.99 2.11111 1739.53 2.11111C1740.07 2.11111 1740.42 2.32479 1740.58 2.75214C1740.64 2.94017 1740.68 3.35897 1740.68 4C1740.68 4.64102 1740.64 5.05983 1740.58 5.24786Z" fill="#1A1A1A"/>
<path d="M1745.76 7C1746.52 7 1747.14 6.80342 1747.6 6.4188C1748.07 6.02564 1748.3 5.47863 1748.3 4.76923L1748.3 1.17949C1748.3 1.11966 1748.27 1.09402 1748.2 1.09402L1746.96 1.09402C1746.89 1.09402 1746.86 1.11966 1746.86 1.17949L1746.86 4.80342C1746.86 5.48718 1746.43 5.88889 1745.76 5.88889C1745.08 5.88889 1744.64 5.48718 1744.64 4.80342L1744.64 1.17949C1744.64 1.11966 1744.61 1.09402 1744.55 1.09402L1743.3 1.09402C1743.24 1.09402 1743.21 1.11966 1743.21 1.17949L1743.21 4.76923C1743.21 5.47863 1743.44 6.02564 1743.9 6.4188C1744.37 6.80342 1744.99 7 1745.76 7Z" fill="#1A1A1A"/>
<path d="M1751.85 7C1753.52 7 1754.46 6.26496 1754.46 5.17094C1754.46 4.16239 1753.76 3.57265 1752.37 3.41026L1752.01 3.36752C1751.27 3.2735 1750.98 3.06838 1750.98 2.7265C1750.98 2.35043 1751.29 2.09402 1751.87 2.09402C1752.38 2.09402 1752.89 2.23932 1753.41 2.53846C1753.46 2.5641 1753.51 2.55556 1753.55 2.51282L1754.15 1.73504C1754.2 1.68376 1754.19 1.64103 1754.13 1.60684C1753.53 1.20513 1752.78 1 1751.87 1C1751.15 1 1750.58 1.16239 1750.15 1.48718C1749.73 1.81197 1749.51 2.23932 1749.51 2.77778C1749.51 3.76923 1750.21 4.35043 1751.61 4.52137L1751.97 4.5641C1752.72 4.65812 1752.99 4.84615 1752.99 5.21367C1752.99 5.63248 1752.58 5.90598 1751.91 5.90598C1751.32 5.90598 1750.74 5.7094 1750.17 5.30769C1750.11 5.26496 1750.06 5.2735 1750.02 5.31624L1749.28 6.05983C1749.23 6.11111 1749.24 6.16239 1749.29 6.20513C1749.55 6.4359 1749.92 6.62393 1750.39 6.77778C1750.86 6.92308 1751.35 7 1751.85 7Z" fill="#1A1A1A"/>
<path d="M1755.36 6.82051C1755.36 6.88034 1755.39 6.90598 1755.45 6.90598L1759.72 6.90598C1759.79 6.90598 1759.82 6.88034 1759.82 6.82051L1759.82 5.90598C1759.82 5.84615 1759.79 5.82051 1759.72 5.82051L1756.85 5.82051C1756.81 5.82051 1756.79 5.80342 1756.79 5.76923L1756.79 4.5641C1756.79 4.52991 1756.81 4.51282 1756.85 4.51282L1759.24 4.51282C1759.31 4.51282 1759.34 4.48718 1759.34 4.42735L1759.34 3.52137C1759.34 3.46154 1759.31 3.4359 1759.24 3.4359L1756.85 3.4359C1756.81 3.4359 1756.79 3.4188 1756.79 3.38461L1756.79 2.23077C1756.79 2.19658 1756.81 2.17949 1756.85 2.17949L1759.72 2.17949C1759.79 2.17949 1759.82 2.15385 1759.82 2.09402L1759.82 1.17949C1759.82 1.11966 1759.79 1.09402 1759.72 1.09402L1755.45 1.09402C1755.39 1.09402 1755.36 1.11966 1755.36 1.17949L1755.36 6.82051Z" fill="#1A1A1A"/>
<path d="M1765.8 6.90598C1765.87 6.90598 1765.9 6.88034 1765.9 6.82051L1765.9 2.26496C1765.9 2.23077 1765.92 2.21368 1765.96 2.21368L1767.64 2.21368C1767.71 2.21368 1767.74 2.18803 1767.74 2.1282L1767.74 1.17949C1767.74 1.11966 1767.71 1.09402 1767.64 1.09402L1762.72 1.09402C1762.65 1.09402 1762.62 1.11966 1762.62 1.17949L1762.62 2.12821C1762.62 2.18803 1762.65 2.21368 1762.72 2.21368L1764.4 2.21368C1764.44 2.21368 1764.46 2.23077 1764.46 2.26496L1764.46 6.82051C1764.46 6.88034 1764.49 6.90598 1764.56 6.90598L1765.8 6.90598Z" fill="#1A1A1A"/>
<path d="M1768.54 6.82051C1768.54 6.88034 1768.57 6.90598 1768.64 6.90598L1772.9 6.90598C1772.97 6.90598 1773 6.88034 1773 6.82051L1773 5.90598C1773 5.84615 1772.97 5.82051 1772.9 5.82051L1770.03 5.82051C1769.99 5.82051 1769.98 5.80342 1769.98 5.76923L1769.98 4.5641C1769.98 4.52991 1769.99 4.51282 1770.03 4.51282L1772.42 4.51282C1772.49 4.51282 1772.52 4.48718 1772.52 4.42735L1772.52 3.52137C1772.52 3.46154 1772.49 3.4359 1772.42 3.4359L1770.03 3.4359C1769.99 3.4359 1769.98 3.4188 1769.98 3.38461L1769.98 2.23077C1769.98 2.19658 1769.99 2.17949 1770.03 2.17949L1772.9 2.17949C1772.97 2.17949 1773 2.15385 1773 2.09402L1773 1.17949C1773 1.11966 1772.97 1.09402 1772.9 1.09402L1768.64 1.09402C1768.57 1.09402 1768.54 1.11966 1768.54 1.17949L1768.54 6.82051Z" fill="#1A1A1A"/>
<path d="M1774.08 5.57265C1774.43 6.50427 1775.27 7 1776.44 7C1777.57 7 1778.38 6.52991 1778.76 5.7094C1778.79 5.65812 1778.78 5.62393 1778.71 5.60684L1777.65 5.18803C1777.59 5.16239 1777.54 5.17094 1777.51 5.23077C1777.3 5.66667 1776.94 5.88889 1776.45 5.88889C1775.95 5.88889 1775.61 5.67521 1775.46 5.24786C1775.39 5.05128 1775.35 4.64102 1775.35 4C1775.35 3.35897 1775.39 2.94872 1775.46 2.75214C1775.61 2.32479 1775.95 2.11111 1776.45 2.11111C1776.94 2.11111 1777.3 2.33333 1777.51 2.76923C1777.54 2.82906 1777.59 2.83761 1777.65 2.81197L1778.71 2.39316C1778.78 2.37607 1778.79 2.34188 1778.76 2.2906C1778.38 1.47009 1777.57 1 1776.44 1C1775.27 1 1774.43 1.49573 1774.08 2.42735C1773.95 2.74359 1773.89 3.2735 1773.89 4C1773.89 4.72649 1773.95 5.25641 1774.08 5.57265Z" fill="#1A1A1A"/>
<path d="M1779.69 6.82051C1779.69 6.88034 1779.72 6.90598 1779.79 6.90598L1781.03 6.90598C1781.1 6.90598 1781.13 6.88034 1781.13 6.82051L1781.13 4.5812C1781.13 4.54701 1781.15 4.52991 1781.19 4.52991L1783.36 4.52991C1783.4 4.52991 1783.42 4.54701 1783.42 4.5812L1783.42 6.82051C1783.42 6.88034 1783.45 6.90598 1783.52 6.90598L1784.76 6.90598C1784.83 6.90598 1784.86 6.88034 1784.86 6.82051L1784.86 1.17949C1784.86 1.11966 1784.83 1.09402 1784.76 1.09402L1783.52 1.09402C1783.45 1.09402 1783.42 1.11966 1783.42 1.17949L1783.42 3.35897C1783.42 3.39316 1783.4 3.41026 1783.36 3.41026L1781.19 3.41026C1781.15 3.41026 1781.13 3.39316 1781.13 3.35897L1781.13 1.17949C1781.13 1.11966 1781.1 1.09402 1781.03 1.09402L1779.79 1.09402C1779.72 1.09402 1779.69 1.11966 1779.69 1.17949L1779.69 6.82051Z" fill="#1A1A1A"/>
</g>
<g clip-path="url(#clip2_2124_1630)">
<rect x="2356.48" y="8" width="4" height="4.04372" transform="rotate(-90 2356.48 8)" fill="#1A1A1A"/>
<rect x="2366.58" y="8" width="4" height="40.4372" transform="rotate(-90 2366.58 8)" fill="#1A1A1A"/>
<rect x="2764" y="4" width="4" height="40.4372" transform="rotate(-90 2764 4)" fill="#1A1A1A"/>
<rect x="2220" y="8" width="4" height="4.04372" transform="rotate(-90 2220 8)" fill="#1A1A1A"/>
<rect x="2543.5" y="8.00012" width="8" height="8.08743" transform="rotate(-90 2543.5 8.00012)" fill="#1A1A1A"/>
<rect x="2703" y="8" width="8" height="24" transform="rotate(-90 2703 8)" fill="#1A1A1A"/>
<rect x="2981.23" y="4" width="4" height="4.04372" transform="rotate(90 2981.23 4)" fill="#1A1A1A"/>
<rect x="2971.12" y="4" width="4" height="12.1311" transform="rotate(90 2971.12 4)" fill="#1A1A1A"/>
<rect x="3320.9" y="4" width="4" height="4.04372" transform="rotate(90 3320.9 4)" fill="#1A1A1A"/>
<rect x="3330" y="4" width="4" height="4.04372" transform="rotate(90 3330 4)" fill="#1A1A1A"/>
<rect x="3296.64" width="8" height="8.08743" transform="rotate(90 3296.64 0)" fill="#1A1A1A"/>
</g>
<defs>
<clipPath id="clip0_2124_1630">
<rect width="1110" height="8.0001" fill="white"/>
</clipPath>
<clipPath id="clip1_2124_1630">
<rect width="1110" height="8.00006" fill="white" transform="translate(1110)"/>
</clipPath>
<clipPath id="clip2_2124_1630">
<rect width="1110" height="8.0001" fill="white" transform="translate(2220)"/>
</clipPath>
</defs>
</svg>
