<svg width="17" height="16" viewBox="0 0 17 16" fill="none" xmlns="http://www.w3.org/2000/svg">
<path fill-rule="evenodd" clip-rule="evenodd" d="M13.7904 2.3C12.2904 0.8 10.2904 0 8.19043 0C3.79043 0 0.19043 3.6 0.19043 8C0.19043 9.4 0.590436 10.8 1.29044 12L0.19043 16L4.39044 14.9C5.59044 15.5 6.89043 15.9 8.19043 15.9C12.5904 15.9 16.1904 12.3 16.1904 7.9C16.1904 5.8 15.2904 3.8 13.7904 2.3ZM8.19043 14.6C6.99043 14.6 5.79044 14.3 4.79044 13.7L4.59042 13.6L2.09042 14.3L2.79044 11.9L2.59042 11.6C1.89042 10.5 1.59042 9.3 1.59042 8.1C1.59042 4.5 4.59043 1.5 8.19043 1.5C9.99043 1.5 11.5904 2.2 12.8904 3.4C14.1904 4.7 14.7904 6.3 14.7904 8.1C14.7904 11.6 11.8904 14.6 8.19043 14.6ZM11.7904 9.6C11.5904 9.5 10.5904 9 10.3904 9C10.1904 8.9 10.0904 8.9 9.99042 9.1C9.89042 9.3 9.49044 9.7 9.39044 9.9C9.29044 10 9.19042 10 8.99042 10C8.79042 9.9 8.19044 9.7 7.39044 9C6.79044 8.5 6.39044 7.8 6.29044 7.6C6.19044 7.4 6.29044 7.3 6.39044 7.2C6.49044 7.1 6.59043 7 6.69043 6.9C6.79043 6.8 6.79044 6.7 6.89044 6.6C6.99044 6.5 6.89044 6.4 6.89044 6.3C6.89044 6.2 6.49044 5.2 6.29044 4.8C6.19044 4.5 5.99044 4.5 5.89044 4.5C5.79044 4.5 5.69042 4.5 5.49042 4.5C5.39042 4.5 5.19042 4.5 4.99042 4.7C4.79042 4.9 4.29044 5.4 4.29044 6.4C4.29044 7.4 4.99042 8.3 5.09042 8.5C5.19042 8.6 6.49042 10.7 8.49042 11.5C10.1904 12.2 10.4904 12 10.8904 12C11.2904 12 12.0904 11.5 12.1904 11.1C12.3904 10.6 12.3904 10.2 12.2904 10.2C12.1904 9.7 11.9904 9.7 11.7904 9.6Z" fill="white"/>
</svg>
