<svg width="17" height="14" viewBox="0 0 17 14" fill="none" xmlns="http://www.w3.org/2000/svg">
<path d="M1.29029 5.7083C5.58524 3.83705 8.44922 2.60341 9.88222 2.00738C13.9737 0.30558 14.8239 0.00996026 15.378 9.46359e-05C15.4999 -0.00194823 15.7724 0.0282562 15.9489 0.171489C16.098 0.292432 16.139 0.455809 16.1586 0.570476C16.1782 0.685143 16.2027 0.946358 16.1833 1.15046C15.9615 3.48009 15.0022 9.13349 14.5141 11.7427C14.3076 12.8468 13.9009 13.217 13.5072 13.2532C12.6516 13.3319 12.002 12.6878 11.1733 12.1446C9.87661 11.2946 9.14406 10.7654 7.8854 9.936C6.43079 8.97744 7.37375 8.4506 8.20273 7.58959C8.41967 7.36426 12.1893 3.93546 12.2623 3.62441C12.2714 3.58551 12.2799 3.44051 12.1937 3.36394C12.1076 3.28737 11.9805 3.31355 11.8887 3.33438C11.7587 3.36389 9.68717 4.73307 5.67426 7.4419C5.08628 7.84565 4.5537 8.04237 4.07653 8.03207C3.55048 8.0207 2.53859 7.73463 1.78635 7.49011C0.863696 7.19019 0.13039 7.03162 0.194245 6.52227C0.227504 6.25697 0.592851 5.98564 1.29029 5.7083Z" fill="white"/>
</svg>
