<svg width="17" height="17" viewBox="0 0 17 17" fill="none" xmlns="http://www.w3.org/2000/svg">
<path d="M8.19045 12.8C5.49045 12.8 4.29043 11.4 4.29043 10.4C4.29043 10.2 4.39048 9.9 4.59048 9.8C4.79048 9.6 4.99045 9.6 5.19045 9.6C6.29045 9.6 5.99045 11.3 8.19045 11.3C9.29045 11.3 9.89047 10.6 9.89047 10C9.89047 9.6 9.69044 9.2 8.99044 9L6.59048 8.4C4.69048 7.9 4.39047 6.8 4.39047 5.9C4.39047 3.8 6.29048 3.1 8.09048 3.1C9.69048 3.1 11.6905 4 11.6905 5.2C11.6905 5.7 11.2905 6 10.6905 6C9.69045 6 9.89047 4.6 7.89047 4.6C6.89047 4.6 6.39047 5.1 6.39047 5.7C6.39047 6.3 7.19043 6.6 7.79043 6.7L9.59048 7.1C11.4905 7.5 11.9904 8.7 11.9904 9.7C11.9904 11.6 10.6905 12.8 8.19045 12.8ZM15.5905 9.3C15.6905 8.9 15.6905 8.4 15.6905 8C15.6905 5.8 14.6904 3.7 12.9904 2.2C11.2904 0.7 8.99043 0.2 6.79043 0.5C6.19043 0.2 5.39048 0 4.59048 0C2.99048 0 1.49045 0.9 0.690454 2.3C-0.109546 3.7 -0.109546 5.4 0.690454 6.8C0.290454 9.2 0.99043 11.7 2.79043 13.5C4.49043 15.2 6.99047 16 9.39047 15.6C10.0905 16 10.7905 16.2 11.5905 16.2C13.1905 16.2 14.6904 15.3 15.4904 13.9C16.2904 12.4 16.3905 10.7 15.5905 9.3Z" fill="white"/>
</svg>
