<svg width="1920" height="10" viewBox="0 0 1920 10" fill="none" xmlns="http://www.w3.org/2000/svg">
<path d="M1396 4.54543L1396 2.72727L1390.67 2.72727L1390.67 4.54543L1396 4.54543Z" fill="#3D70B5"/>
<path d="M1029.33 1.81822L1029.33 5.84171e-05L1024 5.8687e-05L1024 1.81822L1029.33 1.81822Z" fill="#3D70B5"/>
<path d="M774.667 1.81823L774.667 7.50975e-05L769.333 7.53673e-05L769.333 1.81823L774.667 1.81823Z" fill="#3D70B5"/>
<path d="M750.667 1.81824L750.667 7.66695e-05L745.333 7.69393e-05L745.333 1.81824L750.667 1.81824Z" fill="#3D70B5"/>
<path d="M400 4.5455L400 2.72734L394.667 2.72734L394.667 4.5455L400 4.5455Z" fill="#3D70B5"/>
<path d="M457.333 4.54549L457.333 2.72733L452 2.72733L452 4.54549L457.333 4.54549Z" fill="#3D70B5"/>
<path d="M649.333 1.81824L649.333 8.33067e-05L644 8.35765e-05L644 1.81824L649.333 1.81824Z" fill="#3D70B5"/>
<path d="M296 1.81827L296 0.00010645L290.667 0.000106719L290.667 1.81827L296 1.81827Z" fill="#3D70B5"/>
<path d="M146.667 1.81827L146.667 0.000116231L141.333 0.000116501L141.333 1.81828L146.667 1.81827Z" fill="#3D70B5"/>
<path d="M280 1.81827L280 0.000109123L173.333 0.00011452L173.333 1.81827L280 1.81827Z" fill="#3D70B5"/>
<path d="M637.333 4.54548L637.333 2.72732L610.667 2.72732L610.667 4.54548L637.333 4.54548Z" fill="#3D70B5"/>
<path d="M924 4.54546L924 2.7273L918.667 2.7273L918.667 4.54546L924 4.54546Z" fill="#3D70B5"/>
<path d="M934.667 4.54546L934.667 2.7273L929.333 2.7273L929.333 4.54546L934.667 4.54546Z" fill="#3D70B5"/>
<path d="M953.333 4.54546L953.333 2.7273L948 2.7273L948 4.54546L953.333 4.54546Z" fill="#3D70B5"/>
<path d="M1050.67 1.81822L1050.67 5.72366e-05L1034.67 5.80461e-05L1034.67 1.81822L1050.67 1.81822Z" fill="#3D70B5"/>
<path d="M796 1.81823L796 7.39169e-05L780 7.47265e-05L780 1.81823L796 1.81823Z" fill="#3D70B5"/>
<path d="M445.333 4.54549L445.333 2.72733L429.333 2.72734L429.333 4.54549L445.333 4.54549Z" fill="#3D70B5"/>
<path d="M1406.67 4.54543L1406.67 2.72727L1401.33 2.72727L1401.33 4.54543L1406.67 4.54543Z" fill="#3D70B5"/>
<path d="M1601.33 4.54542L1601.33 2.72726L1585.33 2.72726L1585.33 4.54542L1601.33 4.54542Z" fill="#3D70B5"/>
<path d="M1753.33 4.54541L1753.33 2.72725L1737.33 2.72725L1737.33 4.54541L1753.33 4.54541Z" fill="#3D70B5"/>
<path d="M1766.67 4.54541L1766.67 2.72725L1758.67 2.72725L1758.67 4.54541L1766.67 4.54541Z" fill="#3D70B5"/>
<path d="M1066.67 1.81821L1066.67 5.59718e-05L1061.33 5.62417e-05L1061.33 1.81821L1066.67 1.81821Z" fill="#3D70B5"/>
<path d="M1725.33 4.54541L1725.33 2.72725L1617.33 2.72726L1617.33 4.54541L1725.33 4.54541Z" fill="#3D70B5"/>
<path d="M1142 4.54545L1075.33 4.54545L1075.33 5.55125e-05L1119.78 5.26015e-05L1142 4.54545Z" fill="#3D70B5"/>
<path d="M726.667 4.54548L660 4.54548L660 8.27164e-05L704.444 7.98053e-05L726.667 4.54548Z" fill="#3D70B5"/>
<path d="M373.333 4.5455L306.667 4.5455L333.333 0.000104004L351.111 0.00010284L373.333 4.5455Z" fill="#3D70B5"/>
<path d="M1790.67 4.54541L1857.33 4.5454L1857.33 4.29244e-06L1812.89 7.2035e-06L1790.67 4.54541Z" fill="#3D70B5"/>
<path d="M1273.33 4.54544L1262.67 4.54544L1262.67 1.8182L1273.33 4.0909L1273.33 4.54544Z" fill="#3D70B5"/>
<path d="M1289.33 4.54544L1278.67 4.54544L1278.67 1.8182L1289.33 4.0909L1289.33 4.54544Z" fill="#3D70B5"/>
<path fill-rule="evenodd" clip-rule="evenodd" d="M512 4.54549L1920 4.5454L1920 9.99987L1790.67 9.99988L1790.67 4.54541L1684 4.54541L1684 9.99989L1673.33 9.99989L1673.33 8.18173L1668 8.18173L1668 9.99989L1664 9.99989L1664 8.18173L1658.67 8.18173L1658.67 9.99989L1474.67 9.9999L1474.67 8.18175L1469.33 8.18175L1469.33 9.9999L1342.67 9.99991L1369.33 4.54543L1289.33 4.54544L1289.33 9.99992L1168 9.99992L1156 9.99992L1156 8.18177L1140 8.18177L1140 9.99993L1134.67 9.99993L1134.67 8.18177L1126.67 8.18177L1126.67 9.99993L892 9.99994L918.667 4.54546L865.333 4.54547L865.333 9.99994L853.333 9.99994L853.333 4.54547L842.667 4.54547L842.667 9.99994L826.667 9.99995L826.667 4.54547L816 4.54547L816 9.99995L660 9.99996L660 4.54548L649.333 4.54548L649.333 9.99996L624 9.99996L624 8.1818L608 8.1818L608 9.99996L602.667 9.99996L602.667 8.1818L597.333 8.1818L597.333 9.99996L578.667 9.99996L578.667 8.1818L573.333 8.1818L573.333 9.99996L384 9.99997L384 6.36366L389.333 6.36366L389.333 4.5455L373.333 4.5455L373.333 9.99998L309.333 9.99998L309.333 8.18182L304 8.18182L304 9.99998L253.333 9.99998L253.333 8.18183L248 8.18183L248 9.99998L242.667 9.99998L242.667 8.18183L237.333 8.18183L237.333 9.99998L220 9.99999L220 4.54551L146.667 4.54551L146.667 9.99999L-2.45824e-05 10L-2.52188e-05 4.54552L512 4.54549ZM512 4.54549L485.333 9.09089L467.556 9.09089L445.333 4.54549L512 4.54549ZM253.333 8.18183L253.333 6.36367L280 6.36367L280 8.18182L253.333 8.18183ZM1168 9.99992L1276 9.99991L1276 8.18176L1168 8.18177L1168 9.99992ZM1485.33 6.36359L1485.33 4.54543L1469.33 4.54543L1469.33 6.36359L1485.33 6.36359ZM1872 4.5454L1872 6.36356L1866.67 6.36356L1866.67 4.5454L1872 4.5454ZM1862.67 6.36356L1862.67 4.5454L1857.33 4.5454L1857.33 6.36356L1862.67 6.36356ZM1508 6.36358L1508 4.54543L1502.67 4.54543L1502.67 6.36358L1508 6.36358ZM1498.67 4.54543L1498.67 6.36358L1493.33 6.36358L1493.33 4.54543L1498.67 4.54543ZM810.667 6.36363L810.667 8.18179L805.333 8.18179L805.333 6.36363L810.667 6.36363ZM1517.33 4.54543L1517.33 6.36358L1512 6.36358L1512 4.54543L1517.33 4.54543Z" fill="#3D70B5"/>
</svg>
