<svg width="480" height="11" viewBox="0 0 480 11" fill="none" xmlns="http://www.w3.org/2000/svg">
<path d="M36.6667 0.0454028V5.52475L0 5.52475V0.0453949L36.6667 0.0454028Z" fill="#1A1A1A"/>
<path fill-rule="evenodd" clip-rule="evenodd" d="M93.3333 5.52477V0.0454177L77.3333 0.0454135V1.87186L76 1.87186V0.0454131L63.3333 0.0454098V1.87186L62 1.87186V0.0454094L60.6667 0.0454091V1.87186L59.3333 1.87186V0.0454087L55 0.0454076V5.52476L76.7332 5.52477L83.3333 10.0453L87.7778 10.0453L93.3333 5.52477ZM63.3333 3.69831V1.87186L70 1.87186V3.69831L63.3333 3.69831Z" fill="#1A1A1A"/>
<path d="M162.333 5.52479V0.0454358L156 0.0454342V1.87188L152 1.87188V0.0454331L150.667 0.0454328V1.87188L149.333 1.87188V0.0454324L144.667 0.0454312V1.87188L143.333 1.87188V0.0454308L96 0.0454184V3.69832L97.3333 3.69832V5.52477L98.6666 5.52477V7.30562H100V5.52477L107.333 5.52477V7.30563L111.333 7.30563L111.333 5.52478L116.889 0.958649L121.333 0.958651L128 5.52478L152.667 5.52479V7.30564L159.333 7.30564V5.52479L162.333 5.52479Z" fill="#1A1A1A"/>
<path fill-rule="evenodd" clip-rule="evenodd" d="M181.611 5.52479L204 5.5248V0.0454468L165 0.0454365L165 10.0453L176.111 10.0453L181.611 5.52479ZM202.667 3.69835V1.8719L201.333 1.8719V3.69835L202.667 3.69835Z" fill="#1A1A1A"/>
<path d="M210.667 0.0454486V5.5248L206.667 5.5248V0.0454475L210.667 0.0454486Z" fill="#1A1A1A"/>
<path d="M216.333 0.04545V5.5248L213.333 5.5248V0.0454493L216.333 0.04545Z" fill="#1A1A1A"/>
<path d="M322.333 0.0454779L322.333 5.93584L319.667 8.21891V5.52483L318.333 5.52483V5.93584L315.667 8.21891V5.52483L285.445 5.52482L279.944 10.0453L268.833 10.0453L268.833 5.52482L238.333 5.52481V7.30566H237V5.52481L233.667 5.52481V7.30566L232.333 7.30566V5.52481H231V7.30566H229.667L229.667 5.52481L223 0.0454518L281.667 0.0454672V1.87192L283.667 1.87192V0.0454678L285 0.0454681V1.87192L289 1.87192V0.0454692L292 0.0454719V1.87192L319 1.87193V0.0454809L322.333 0.0454779Z" fill="#1A1A1A"/>
<path d="M421 0.0455058V5.47926L431.333 5.47926V7.30571L404.333 7.3057V5.52485L400.333 5.52485V7.3057L396.333 7.3057V5.52485L379.333 5.52484V3.69839L378 3.69839V5.52484L377 5.52484V3.69839L375.667 3.69839V5.52484L374.667 5.52484V3.69839L373.333 3.69839V5.52484L371.333 5.52484V3.69839L367.333 3.69839V5.52484L351.667 5.52484V7.30569L350.333 7.30569V5.52484L349 5.52484V7.30569L347.667 7.30569V5.52484L342.333 5.52483L335.667 0.0454815L367.333 0.0454898V1.87194L368.667 1.87194V0.0454901L414.667 0.0455022V1.87195L416 1.87195V0.0455026L417 0.0455029V1.87195L418.333 1.87195V0.0455032L421 0.0455058Z" fill="#1A1A1A"/>
<path d="M447.667 5.52486H447.722L453.222 10.0454L464.333 10.0454L464.333 3.69842L465.667 3.69842V5.52487L466.667 5.52487V3.69842L468 3.69842V5.52487L480 5.52487V0.0455214L447.667 0.0455109V5.52486Z" fill="#1A1A1A"/>
<path d="M257.333 8.21889V10.0453H256V8.21889L257.333 8.21889Z" fill="#1A1A1A"/>
<path d="M193.667 10.0453V8.21887H192.333V10.0453L193.667 10.0453Z" fill="#1A1A1A"/>
<path d="M187.667 8.21887V10.0453H186.333V8.21887H187.667Z" fill="#1A1A1A"/>
<path d="M114.333 5.47918V7.30563L113 7.30563V5.47918L114.333 5.47918Z" fill="#1A1A1A"/>
<path d="M162.333 10.0453V8.21887L161 8.21886V10.0453H162.333Z" fill="#1A1A1A"/>
<path d="M74 8.21884V10.0453L72.6667 10.0453V8.21884H74Z" fill="#1A1A1A"/>
<path d="M36.6667 10.0453V8.21883H35.3333V10.0453H36.6667Z" fill="#1A1A1A"/>
<path d="M70 8.21884V10.0453L43.3333 10.0453V8.21883L70 8.21884Z" fill="#1A1A1A"/>
<path d="M262.667 10.0453L262.667 8.21889L258.667 8.21889V10.0453L262.667 10.0453Z" fill="#1A1A1A"/>
<path d="M199 8.21888V10.0453L195 10.0453V8.21887L199 8.21888Z" fill="#1A1A1A"/>
<path d="M438.333 5.47926V7.30571L434.333 7.30571V5.47926L438.333 5.47926Z" fill="#1A1A1A"/>
<path d="M441.667 7.30571V5.47926L439.667 5.47926V7.30571L441.667 7.30571Z" fill="#1A1A1A"/>
<path d="M266.667 8.21889V10.0453L265.333 10.0453V8.21889H266.667Z" fill="#1A1A1A"/>
</svg>
