<svg width="1918" height="10" viewBox="0 0 1918 10" fill="none" xmlns="http://www.w3.org/2000/svg">
<path d="M1394 5.45457L1394 7.27273L1388.67 7.27273L1388.67 5.45457L1394 5.45457Z" fill="#1A1A1A"/>
<path d="M1027.33 8.18178L1027.33 9.99994L1022 9.99994L1022 8.18178L1027.33 8.18178Z" fill="#1A1A1A"/>
<path d="M772.667 8.18177L772.667 9.99992L767.333 9.99992L767.333 8.18177L772.667 8.18177Z" fill="#1A1A1A"/>
<path d="M748.667 8.18176L748.667 9.99992L743.333 9.99992L743.333 8.18176L748.667 8.18176Z" fill="#1A1A1A"/>
<path d="M398 5.4545L398 7.27266L392.667 7.27266L392.667 5.4545L398 5.4545Z" fill="#1A1A1A"/>
<path d="M455.333 5.45451L455.333 7.27267L450 7.27267L450 5.45451L455.333 5.45451Z" fill="#1A1A1A"/>
<path d="M647.333 8.18176L647.333 9.99992L642 9.99992L642 8.18176L647.333 8.18176Z" fill="#1A1A1A"/>
<path d="M294 8.18174L294 9.99989L288.667 9.99989L288.667 8.18173L294 8.18174Z" fill="#1A1A1A"/>
<path d="M144.667 8.18173L144.667 9.99988L139.333 9.99988L139.333 8.18172L144.667 8.18173Z" fill="#1A1A1A"/>
<path d="M278 8.18173L278 9.99989L171.333 9.99989L171.333 8.18173L278 8.18173Z" fill="#1A1A1A"/>
<path d="M635.333 5.45452L635.333 7.27268L608.667 7.27268L608.667 5.45452L635.333 5.45452Z" fill="#1A1A1A"/>
<path d="M922 5.45454L922 7.2727L916.667 7.2727L916.667 5.45454L922 5.45454Z" fill="#1A1A1A"/>
<path d="M932.667 5.45454L932.667 7.2727L927.333 7.2727L927.333 5.45454L932.667 5.45454Z" fill="#1A1A1A"/>
<path d="M951.333 5.45454L951.333 7.2727L946 7.2727L946 5.45454L951.333 5.45454Z" fill="#1A1A1A"/>
<path d="M1048.67 8.18178L1048.67 9.99994L1032.67 9.99994L1032.67 8.18178L1048.67 8.18178Z" fill="#1A1A1A"/>
<path d="M794 8.18177L794 9.99993L778 9.99993L778 8.18177L794 8.18177Z" fill="#1A1A1A"/>
<path d="M443.333 5.45451L443.333 7.27267L427.333 7.27266L427.333 5.45451L443.333 5.45451Z" fill="#1A1A1A"/>
<path d="M1404.67 5.45457L1404.67 7.27273L1399.33 7.27273L1399.33 5.45457L1404.67 5.45457Z" fill="#1A1A1A"/>
<path d="M1599.33 5.45458L1599.33 7.27274L1583.33 7.27274L1583.33 5.45458L1599.33 5.45458Z" fill="#1A1A1A"/>
<path d="M1751.33 5.45459L1751.33 7.27275L1735.33 7.27275L1735.33 5.45459L1751.33 5.45459Z" fill="#1A1A1A"/>
<path d="M1764.67 5.45459L1764.67 7.27275L1756.67 7.27275L1756.67 5.45459L1764.67 5.45459Z" fill="#1A1A1A"/>
<path d="M1064.67 8.18179L1064.67 9.99994L1059.33 9.99994L1059.33 8.18179L1064.67 8.18179Z" fill="#1A1A1A"/>
<path d="M1723.33 5.45459L1723.33 7.27275L1615.33 7.27274L1615.33 5.45459L1723.33 5.45459Z" fill="#1A1A1A"/>
<path d="M1140 5.45455L1073.33 5.45455L1073.33 9.99994L1117.78 9.99995L1140 5.45455Z" fill="#1A1A1A"/>
<path d="M724.667 5.45453L658 5.45452L658 9.99992L702.444 9.99992L724.667 5.45453Z" fill="#1A1A1A"/>
<path d="M371.333 5.4545L304.667 5.4545L331.333 9.9999L349.111 9.9999L371.333 5.4545Z" fill="#1A1A1A"/>
<path d="M1788.67 5.45459L1855.33 5.4546L1855.33 10L1810.89 9.99999L1788.67 5.45459Z" fill="#1A1A1A"/>
<path d="M1271.33 5.45456L1260.67 5.45456L1260.67 8.1818L1271.33 5.9091L1271.33 5.45456Z" fill="#1A1A1A"/>
<path d="M1287.33 5.45456L1276.67 5.45456L1276.67 8.1818L1287.33 5.9091L1287.33 5.45456Z" fill="#1A1A1A"/>
<path fill-rule="evenodd" clip-rule="evenodd" d="M510 5.45451L1918 5.4546L1918 0.000127792L1788.67 0.000117414L1788.67 5.45459L1682 5.45459L1682 0.000112335L1671.33 0.000109729L1671.33 1.81827L1666 1.81827L1666 0.000109379L1662 0.000109117L1662 1.81827L1656.67 1.81827L1656.67 0.000108768L1472.67 9.67162e-05L1472.67 1.81825L1467.33 1.81825L1467.33 9.63669e-05L1340.67 8.80703e-05L1367.33 5.45457L1287.33 5.45456L1287.33 8.45771e-05L1166 7.85372e-05L1154 7.58439e-05L1154 1.81823L1138 1.81823L1138 7.47959e-05L1132.67 7.44466e-05L1132.67 1.81823L1124.67 1.81823L1124.67 7.39226e-05L890 5.85522e-05L916.667 5.45454L863.333 5.45453L863.333 5.68056e-05L851.333 5.60196e-05L851.333 5.45453L840.667 5.45453L840.667 5.53209e-05L824.667 5.42729e-05L824.667 5.45453L814 5.45453L814 5.35743e-05L658 4.33565e-05L658 5.45452L647.333 5.45452L647.333 4.26578e-05L622 4.09985e-05L622 1.8182L606 1.8182L606 3.99505e-05L600.667 3.96012e-05L600.667 1.8182L595.333 1.8182L595.333 3.92519e-05L576.667 3.80292e-05L576.667 1.8182L571.333 1.8182L571.333 3.76799e-05L382 2.52788e-05L382 3.63634L387.333 3.63634L387.333 5.4545L371.333 5.4545L371.333 2.45801e-05L307.333 2.03882e-05L307.333 1.81818L302 1.81818L302 2.00389e-05L251.333 1.67203e-05L251.333 1.81817L246 1.81817L246 1.63709e-05L240.667 1.60216e-05L240.667 1.81817L235.333 1.81817L235.333 1.56723e-05L218 1.4537e-05L218 5.45449L144.667 5.45449L144.667 9.73372e-06L-2 2.03456e-06L-2 5.45448L510 5.45451ZM510 5.45451L483.333 0.909112L465.556 0.90911L443.333 5.45451L510 5.45451ZM251.333 1.81817L251.333 3.63633L278 3.63633L278 1.81818L251.333 1.81817ZM1166 7.85372e-05L1274 8.75184e-05L1274 1.81824L1166 1.81823L1166 7.85372e-05ZM1483.33 3.63641L1483.33 5.45457L1467.33 5.45457L1467.33 3.63641L1483.33 3.63641ZM1870 5.4546L1870 3.63644L1864.67 3.63644L1864.67 5.4546L1870 5.4546ZM1860.67 3.63644L1860.67 5.4546L1855.33 5.4546L1855.33 3.63644L1860.67 3.63644ZM1506 3.63642L1506 5.45457L1500.67 5.45457L1500.67 3.63642L1506 3.63642ZM1496.67 5.45457L1496.67 3.63642L1491.33 3.63642L1491.33 5.45457L1496.67 5.45457ZM808.667 3.63637L808.667 1.81821L803.333 1.81821L803.333 3.63637L808.667 3.63637ZM1515.33 5.45457L1515.33 3.63642L1510 3.63642L1510 5.45458L1515.33 5.45457Z" fill="#1A1A1A"/>
</svg>
