<svg width="1920" height="10" viewBox="0 0 1920 10" fill="none" xmlns="http://www.w3.org/2000/svg">
<path d="M1396 5.45457L1396 7.27273L1390.67 7.27273L1390.67 5.45457L1396 5.45457Z" fill="#3D70B5"/>
<path d="M1029.33 8.18178L1029.33 9.99994L1024 9.99994L1024 8.18178L1029.33 8.18178Z" fill="#3D70B5"/>
<path d="M774.667 8.18177L774.667 9.99992L769.333 9.99992L769.333 8.18177L774.667 8.18177Z" fill="#3D70B5"/>
<path d="M750.667 8.18176L750.667 9.99992L745.333 9.99992L745.333 8.18176L750.667 8.18176Z" fill="#3D70B5"/>
<path d="M400 5.4545L400 7.27266L394.667 7.27266L394.667 5.4545L400 5.4545Z" fill="#3D70B5"/>
<path d="M457.333 5.45451L457.333 7.27267L452 7.27267L452 5.45451L457.333 5.45451Z" fill="#3D70B5"/>
<path d="M649.333 8.18176L649.333 9.99992L644 9.99992L644 8.18176L649.333 8.18176Z" fill="#3D70B5"/>
<path d="M296 8.18174L296 9.99989L290.667 9.99989L290.667 8.18173L296 8.18174Z" fill="#3D70B5"/>
<path d="M146.667 8.18173L146.667 9.99988L141.333 9.99988L141.333 8.18172L146.667 8.18173Z" fill="#3D70B5"/>
<path d="M280 8.18173L280 9.99989L173.333 9.99989L173.333 8.18173L280 8.18173Z" fill="#3D70B5"/>
<path d="M637.333 5.45452L637.333 7.27268L610.667 7.27268L610.667 5.45452L637.333 5.45452Z" fill="#3D70B5"/>
<path d="M924 5.45454L924 7.2727L918.667 7.2727L918.667 5.45454L924 5.45454Z" fill="#3D70B5"/>
<path d="M934.667 5.45454L934.667 7.2727L929.333 7.2727L929.333 5.45454L934.667 5.45454Z" fill="#3D70B5"/>
<path d="M953.333 5.45454L953.333 7.2727L948 7.2727L948 5.45454L953.333 5.45454Z" fill="#3D70B5"/>
<path d="M1050.67 8.18178L1050.67 9.99994L1034.67 9.99994L1034.67 8.18178L1050.67 8.18178Z" fill="#3D70B5"/>
<path d="M796 8.18177L796 9.99993L780 9.99993L780 8.18177L796 8.18177Z" fill="#3D70B5"/>
<path d="M445.333 5.45451L445.333 7.27267L429.333 7.27266L429.333 5.45451L445.333 5.45451Z" fill="#3D70B5"/>
<path d="M1406.67 5.45457L1406.67 7.27273L1401.33 7.27273L1401.33 5.45457L1406.67 5.45457Z" fill="#3D70B5"/>
<path d="M1601.33 5.45458L1601.33 7.27274L1585.33 7.27274L1585.33 5.45458L1601.33 5.45458Z" fill="#3D70B5"/>
<path d="M1753.33 5.45459L1753.33 7.27275L1737.33 7.27275L1737.33 5.45459L1753.33 5.45459Z" fill="#3D70B5"/>
<path d="M1766.67 5.45459L1766.67 7.27275L1758.67 7.27275L1758.67 5.45459L1766.67 5.45459Z" fill="#3D70B5"/>
<path d="M1066.67 8.18179L1066.67 9.99994L1061.33 9.99994L1061.33 8.18179L1066.67 8.18179Z" fill="#3D70B5"/>
<path d="M1725.33 5.45459L1725.33 7.27275L1617.33 7.27274L1617.33 5.45459L1725.33 5.45459Z" fill="#3D70B5"/>
<path d="M1142 5.45455L1075.33 5.45455L1075.33 9.99994L1119.78 9.99995L1142 5.45455Z" fill="#3D70B5"/>
<path d="M726.667 5.45453L660 5.45452L660 9.99992L704.444 9.99992L726.667 5.45453Z" fill="#3D70B5"/>
<path d="M373.333 5.4545L306.667 5.4545L333.333 9.9999L351.111 9.9999L373.333 5.4545Z" fill="#3D70B5"/>
<path d="M1790.67 5.45459L1857.33 5.4546L1857.33 10L1812.89 9.99999L1790.67 5.45459Z" fill="#3D70B5"/>
<path d="M1273.33 5.45456L1262.67 5.45456L1262.67 8.1818L1273.33 5.9091L1273.33 5.45456Z" fill="#3D70B5"/>
<path d="M1289.33 5.45456L1278.67 5.45456L1278.67 8.1818L1289.33 5.9091L1289.33 5.45456Z" fill="#3D70B5"/>
<path fill-rule="evenodd" clip-rule="evenodd" d="M512 5.45451L1920 5.4546L1920 0.000127792L1790.67 0.000117414L1790.67 5.45459L1684 5.45459L1684 0.000112335L1673.33 0.000109729L1673.33 1.81827L1668 1.81827L1668 0.000109379L1664 0.000109117L1664 1.81827L1658.67 1.81827L1658.67 0.000108768L1474.67 9.67162e-05L1474.67 1.81825L1469.33 1.81825L1469.33 9.63669e-05L1342.67 8.80703e-05L1369.33 5.45457L1289.33 5.45456L1289.33 8.45771e-05L1168 7.85372e-05L1156 7.58439e-05L1156 1.81823L1140 1.81823L1140 7.47959e-05L1134.67 7.44466e-05L1134.67 1.81823L1126.67 1.81823L1126.67 7.39226e-05L892 5.85522e-05L918.667 5.45454L865.333 5.45453L865.333 5.68056e-05L853.333 5.60196e-05L853.333 5.45453L842.667 5.45453L842.667 5.53209e-05L826.667 5.42729e-05L826.667 5.45453L816 5.45453L816 5.35743e-05L660 4.33565e-05L660 5.45452L649.333 5.45452L649.333 4.26578e-05L624 4.09985e-05L624 1.8182L608 1.8182L608 3.99505e-05L602.667 3.96012e-05L602.667 1.8182L597.333 1.8182L597.333 3.92519e-05L578.667 3.80292e-05L578.667 1.8182L573.333 1.8182L573.333 3.76799e-05L384 2.52788e-05L384 3.63634L389.333 3.63634L389.333 5.4545L373.333 5.4545L373.333 2.45801e-05L309.333 2.03882e-05L309.333 1.81818L304 1.81818L304 2.00389e-05L253.333 1.67203e-05L253.333 1.81817L248 1.81817L248 1.63709e-05L242.667 1.60216e-05L242.667 1.81817L237.333 1.81817L237.333 1.56723e-05L220 1.4537e-05L220 5.45449L146.667 5.45449L146.667 9.73372e-06L1.16684e-06 2.03456e-06L5.3038e-07 5.45448L512 5.45451ZM512 5.45451L485.333 0.909112L467.556 0.90911L445.333 5.45451L512 5.45451ZM253.333 1.81817L253.333 3.63633L280 3.63633L280 1.81818L253.333 1.81817ZM1168 7.85372e-05L1276 8.75184e-05L1276 1.81824L1168 1.81823L1168 7.85372e-05ZM1485.33 3.63641L1485.33 5.45457L1469.33 5.45457L1469.33 3.63641L1485.33 3.63641ZM1872 5.4546L1872 3.63644L1866.67 3.63644L1866.67 5.4546L1872 5.4546ZM1862.67 3.63644L1862.67 5.4546L1857.33 5.4546L1857.33 3.63644L1862.67 3.63644ZM1508 3.63642L1508 5.45457L1502.67 5.45457L1502.67 3.63642L1508 3.63642ZM1498.67 5.45457L1498.67 3.63642L1493.33 3.63642L1493.33 5.45457L1498.67 5.45457ZM810.667 3.63637L810.667 1.81821L805.333 1.81821L805.333 3.63637L810.667 3.63637ZM1517.33 5.45457L1517.33 3.63642L1512 3.63642L1512 5.45458L1517.33 5.45457Z" fill="#3D70B5"/>
</svg>
